Lilex-Regular.ufo
<glyph name="exclam" format="1">
  <unicode hex="0021"/>
  <advance width="1200" height="1560"/>
  <outline>
    <contour>
      <point x="632" y="466" type="line"/>
      <point x="688" y="990" type="line"/>
      <point x="688" y="1396" type="line"/>
      <point x="512" y="1396" type="line"/>
      <point x="512" y="990" type="line"/>
      <point x="568" y="466" type="line"/>
    </contour>
    <contour>
      <point x="600" y="-18" type="curve" smooth="yes"/>
      <point x="708" y="-18"/>
      <point x="748" y="34"/>
      <point x="748" y="102" type="curve" smooth="yes" name="hr01"/>
      <point x="748" y="138" type="line" smooth="yes"/>
      <point x="748" y="206"/>
      <point x="708" y="258"/>
      <point x="600" y="258" type="curve" smooth="yes"/>
      <point x="492" y="258"/>
      <point x="452" y="206"/>
      <point x="452" y="138" type="curve" smooth="yes"/>
      <point x="452" y="102" type="line" smooth="yes"/>
      <point x="452" y="34"/>
      <point x="492" y="-18"/>
    </contour>
  </outline>
</glyph>
<glyph name="numbersign" format="2">
  <advance width="1200" height="1560"/>
  <unicode hex="0023"/>
  <outline>
    <contour>
      <point x="220" y="0" type="line" name="hr00"/>
      <point x="366" y="0" type="line"/>
      <point x="612" y="1396" type="line"/>
      <point x="466" y="1396" type="line"/>
      <point x="390" y="964" type="line"/>
      <point x="104" y="964" type="line"/>
      <point x="104" y="832" type="line"/>
      <point x="366" y="832" type="line"/>
      <point x="320" y="564" type="line"/>
      <point x="32" y="564" type="line"/>
      <point x="32" y="432" type="line"/>
      <point x="296" y="432" type="line"/>
    </contour>
    <contour>
      <point x="588" y="0" type="line"/>
      <point x="734" y="0" type="line"/>
      <point x="810" y="432" type="line"/>
      <point x="1096" y="432" type="line"/>
      <point x="1096" y="564" type="line"/>
      <point x="834" y="564" type="line"/>
      <point x="880" y="832" type="line"/>
      <point x="1168" y="832" type="line"/>
      <point x="1168" y="964" type="line"/>
      <point x="904" y="964" type="line"/>
      <point x="980" y="1396" type="line"/>
      <point x="834" y="1396" type="line"/>
    </contour>
  </outline>
</glyph>
<glyph name="dollar" format="2">
  <advance width="1200" height="1560"/>
  <unicode hex="0024"/>
  <outline>
    <contour>
      <point x="558" y="-226" type="line" name="hr00"/>
      <point x="682" y="-226" type="line"/>
      <point x="682" y="-22" type="line"/>
      <point x="952" y="0"/>
      <point x="1104" y="150"/>
      <point x="1104" y="382" type="curve" smooth="yes"/>
      <point x="1104" y="570"/>
      <point x="1014" y="726"/>
      <point x="740" y="772" type="curve" smooth="yes"/>
      <point x="680" y="782" type="line"/>
      <point x="680" y="1272" type="line"/>
      <point x="812" y="1258"/>
      <point x="900" y="1198"/>
      <point x="972" y="1102" type="curve"/>
      <point x="1098" y="1192" type="line"/>
      <point x="998" y="1328"/>
      <point x="866" y="1404"/>
      <point x="682" y="1418" type="curve"/>
      <point x="682" y="1622" type="line"/>
      <point x="558" y="1622" type="line"/>
      <point x="558" y="1418" type="line"/>
      <point x="306" y="1400"/>
      <point x="150" y="1264"/>
      <point x="150" y="1040" type="curve" smooth="yes"/>
      <point x="150" y="858"/>
      <point x="238" y="698"/>
      <point x="514" y="652" type="curve" smooth="yes"/>
      <point x="560" y="644" type="line"/>
      <point x="560" y="122" type="line"/>
      <point x="420" y="136"/>
      <point x="318" y="202"/>
      <point x="222" y="322" type="curve"/>
      <point x="100" y="222" type="line"/>
      <point x="196" y="88"/>
      <point x="336" y="-8"/>
      <point x="558" y="-22" type="curve"/>
    </contour>
    <contour>
      <point x="312" y="1040" type="curve" smooth="yes"/>
      <point x="312" y="1178"/>
      <point x="402" y="1258"/>
      <point x="560" y="1274" type="curve"/>
      <point x="560" y="802" type="line"/>
      <point x="382" y="838"/>
      <point x="312" y="910"/>
    </contour>
    <contour>
      <point x="942" y="380" type="curve" smooth="yes"/>
      <point x="942" y="234"/>
      <point x="848" y="142"/>
      <point x="680" y="124" type="curve"/>
      <point x="680" y="624" type="line"/>
      <point x="866" y="592"/>
      <point x="942" y="522"/>
    </contour>
  </outline>
</glyph>
<glyph name="percent" format="2">
  <advance width="1200" height="1560"/>
  <unicode hex="0025"/>
  <outline>
    <contour>
      <point x="338" y="712" type="curve" smooth="yes"/>
      <point x="512" y="712"/>
      <point x="636" y="832"/>
      <point x="636" y="1066" type="curve" smooth="yes"/>
      <point x="636" y="1300"/>
      <point x="512" y="1420"/>
      <point x="338" y="1420" type="curve" smooth="yes"/>
      <point x="164" y="1420"/>
      <point x="40" y="1300"/>
      <point x="40" y="1066" type="curve" smooth="yes"/>
      <point x="40" y="832"/>
      <point x="164" y="712"/>
    </contour>
    <contour>
      <point x="338" y="820" type="curve" smooth="yes"/>
      <point x="242" y="820"/>
      <point x="176" y="890"/>
      <point x="176" y="1016" type="curve" smooth="yes"/>
      <point x="176" y="1116" type="line" smooth="yes"/>
      <point x="176" y="1242"/>
      <point x="242" y="1312"/>
      <point x="338" y="1312" type="curve" smooth="yes"/>
      <point x="434" y="1312"/>
      <point x="500" y="1242"/>
      <point x="500" y="1116" type="curve" smooth="yes"/>
      <point x="500" y="1016" type="line" smooth="yes"/>
      <point x="500" y="890"/>
      <point x="434" y="820"/>
    </contour>
    <contour>
      <point x="700" y="796" type="line" name="hr01"/>
      <point x="844" y="796" type="line"/>
      <point x="1164" y="1396" type="line"/>
      <point x="1020" y="1396" type="line"/>
    </contour>
    <contour>
      <point x="36" y="0" type="line"/>
      <point x="180" y="0" type="line"/>
      <point x="500" y="600" type="line" name="hr02"/>
      <point x="356" y="600" type="line"/>
    </contour>
    <contour>
      <point x="862" y="-24" type="curve" smooth="yes" name="hr03"/>
      <point x="1036" y="-24"/>
      <point x="1160" y="96"/>
      <point x="1160" y="330" type="curve" smooth="yes"/>
      <point x="1160" y="564"/>
      <point x="1036" y="684"/>
      <point x="862" y="684" type="curve" smooth="yes"/>
      <point x="688" y="684"/>
      <point x="564" y="564"/>
      <point x="564" y="330" type="curve" smooth="yes"/>
      <point x="564" y="96"/>
      <point x="688" y="-24"/>
    </contour>
    <contour>
      <point x="862" y="84" type="curve" smooth="yes"/>
      <point x="766" y="84"/>
      <point x="700" y="154"/>
      <point x="700" y="280" type="curve" smooth="yes"/>
      <point x="700" y="380" type="line" smooth="yes"/>
      <point x="700" y="506"/>
      <point x="766" y="576"/>
      <point x="862" y="576" type="curve" smooth="yes"/>
      <point x="958" y="576"/>
      <point x="1024" y="506"/>
      <point x="1024" y="380" type="curve" smooth="yes"/>
      <point x="1024" y="280" type="line" smooth="yes"/>
      <point x="1024" y="154"/>
      <point x="958" y="84"/>
    </contour>
  </outline>
</glyph>
<glyph name="ampersand" format="1">
  <unicode hex="0026"/>
  <advance width="1200" height="1560"/>
  <outline>
    <contour>
      <point x="434" y="-24" type="curve" smooth="yes"/>
      <point x="614" y="-24"/>
      <point x="732" y="68"/>
      <point x="770" y="206" type="curve"/>
      <point x="780" y="206" type="line"/>
      <point x="954" y="0" type="line" name="hr01"/>
      <point x="1144" y="0" type="line"/>
      <point x="900" y="288" type="line"/>
      <point x="946" y="412"/>
      <point x="954" y="500"/>
      <point x="972" y="628" type="curve"/>
      <point x="1122" y="628" type="line"/>
      <point x="1122" y="762" type="line"/>
      <point x="840" y="762" type="line"/>
      <point x="834" y="634"/>
      <point x="832" y="492"/>
      <point x="814" y="388" type="curve"/>
      <point x="804" y="388" type="line"/>
      <point x="658" y="568" type="line"/>
      <point x="478" y="790" type="line"/>
      <point x="376" y="918"/>
      <point x="336" y="988"/>
      <point x="336" y="1072" type="curve" smooth="yes"/>
      <point x="336" y="1088" type="line" smooth="yes"/>
      <point x="336" y="1202"/>
      <point x="412" y="1284"/>
      <point x="532" y="1284" type="curve" smooth="yes"/>
      <point x="636" y="1284"/>
      <point x="706" y="1222"/>
      <point x="740" y="1140" type="curve"/>
      <point x="872" y="1208" type="line"/>
      <point x="834" y="1310"/>
      <point x="718" y="1420"/>
      <point x="540" y="1420" type="curve" smooth="yes"/>
      <point x="342" y="1420"/>
      <point x="178" y="1284"/>
      <point x="178" y="1082" type="curve" smooth="yes"/>
      <point x="178" y="964"/>
      <point x="234" y="864"/>
      <point x="308" y="768" type="curve"/>
      <point x="108" y="666"/>
      <point x="50" y="502"/>
      <point x="50" y="362" type="curve" smooth="yes" name="hr02"/>
      <point x="50" y="148"/>
      <point x="190" y="-24"/>
    </contour>
    <contour>
      <point x="476" y="118" type="curve" smooth="yes"/>
      <point x="322" y="118"/>
      <point x="216" y="210"/>
      <point x="216" y="354" type="curve" smooth="yes"/>
      <point x="216" y="384" type="line" smooth="yes"/>
      <point x="216" y="498"/>
      <point x="262" y="598"/>
      <point x="384" y="674" type="curve"/>
      <point x="732" y="254" type="line"/>
      <point x="682" y="168"/>
      <point x="590" y="118"/>
    </contour>
  </outline>
</glyph>
<glyph name="parenleft" format="2">
  <advance width="1200" height="1560"/>
  <unicode hex="0028"/>
  <outline>
    <contour>
      <point x="410" y="622" type="curve" smooth="yes" name="hr00"/>
      <point x="410" y="232"/>
      <point x="600" y="-108"/>
      <point x="826" y="-276" type="curve"/>
      <point x="988" y="-276" type="line"/>
      <point x="756" y="-102"/>
      <point x="560" y="194"/>
      <point x="560" y="536" type="curve" smooth="yes"/>
      <point x="560" y="708" type="line" smooth="yes"/>
      <point x="560" y="1050"/>
      <point x="756" y="1346"/>
      <point x="988" y="1520" type="curve"/>
      <point x="826" y="1520" type="line"/>
      <point x="600" y="1352"/>
      <point x="410" y="1012"/>
    </contour>
  </outline>
</glyph>
<glyph name="hyphen" format="2">
  <advance width="1200" height="1560"/>
  <unicode hex="002D"/>
  <outline>
    <contour>
      <point x="890" y="524" type="line" name="hr00"/>
      <point x="890" y="692" type="line"/>
      <point x="310" y="692" type="line"/>
      <point x="310" y="524" type="line"/>
    </contour>
  </outline>
</glyph>
<glyph name="zero" format="1">
  <unicode hex="0030"/>
  <advance width="1200" height="1560"/>
  <outline>
    <contour>
      <point x="600" y="-24" type="curve" smooth="yes" name="hr00"/>
      <point x="940" y="-24"/>
      <point x="1088" y="242"/>
      <point x="1088" y="698" type="curve" smooth="yes"/>
      <point x="1088" y="1154"/>
      <point x="940" y="1420"/>
      <point x="600" y="1420" type="curve" smooth="yes"/>
      <point x="260" y="1420"/>
      <point x="112" y="1154"/>
      <point x="112" y="698" type="curve" smooth="yes"/>
      <point x="112" y="242"/>
      <point x="260" y="-24"/>
    </contour>
    <contour>
      <point x="600" y="122" type="curve" smooth="yes"/>
      <point x="376" y="122"/>
      <point x="286" y="304"/>
      <point x="286" y="584" type="curve" smooth="yes"/>
      <point x="286" y="812" type="line" smooth="yes"/>
      <point x="286" y="1092"/>
      <point x="376" y="1274"/>
      <point x="600" y="1274" type="curve" smooth="yes"/>
      <point x="824" y="1274"/>
      <point x="914" y="1092"/>
      <point x="914" y="812" type="curve" smooth="yes"/>
      <point x="914" y="584" type="line"/>
      <point x="914" y="304"/>
      <point x="824" y="122"/>
    </contour>
    <contour>
      <point x="600" y="580" type="curve" smooth="yes"/>
      <point x="692" y="580"/>
      <point x="724" y="622"/>
      <point x="724" y="676" type="curve" smooth="yes"/>
      <point x="724" y="720" type="line" smooth="yes"/>
      <point x="724" y="774"/>
      <point x="692" y="816"/>
      <point x="600" y="816" type="curve" smooth="yes"/>
      <point x="508" y="816"/>
      <point x="476" y="774"/>
      <point x="476" y="720" type="curve" smooth="yes"/>
      <point x="476" y="676" type="line" smooth="yes"/>
      <point x="476" y="622"/>
      <point x="508" y="580"/>
    </contour>
  </outline>
</glyph>
<glyph name="one" format="1">
  <unicode hex="0031"/>
  <advance width="1200" height="1560"/>
  <outline>
    <contour>
      <point x="1106" y="0" type="line" name="hr00"/>
      <point x="1106" y="146" type="line"/>
      <point x="738" y="146" type="line"/>
      <point x="738" y="1396" type="line"/>
      <point x="476" y="1396" type="line"/>
      <point x="106" y="1050" type="line"/>
      <point x="204" y="944" type="line"/>
      <point x="556" y="1272" type="line"/>
      <point x="570" y="1272" type="line"/>
      <point x="570" y="146" type="line"/>
      <point x="170" y="146" type="line"/>
      <point x="170" y="0" type="line"/>
    </contour>
  </outline>
</glyph>
<glyph name="two" format="1">
  <unicode hex="0032"/>
  <advance width="1200" height="1560"/>
  <outline>
    <contour>
      <point x="1074" y="146" type="line" name="hr00"/>
      <point x="316" y="146" type="line"/>
      <point x="706" y="486" type="line" smooth="yes"/>
      <point x="892" y="648"/>
      <point x="1018" y="804"/>
      <point x="1018" y="1016" type="curve" smooth="yes"/>
      <point x="1018" y="1252"/>
      <point x="862" y="1420"/>
      <point x="584" y="1420" type="curve" smooth="yes"/>
      <point x="310" y="1420"/>
      <point x="184" y="1256"/>
      <point x="130" y="1092" type="curve"/>
      <point x="280" y="1036" type="line"/>
      <point x="324" y="1180"/>
      <point x="410" y="1274"/>
      <point x="580" y="1274" type="curve" smooth="yes"/>
      <point x="752" y="1274"/>
      <point x="842" y="1178"/>
      <point x="842" y="1010" type="curve" smooth="yes"/>
      <point x="842" y="986" type="line" smooth="yes"/>
      <point x="842" y="844"/>
      <point x="744" y="714"/>
      <point x="608" y="592" type="curve" smooth="yes"/>
      <point x="142" y="172" type="line"/>
      <point x="142" y="0" type="line"/>
      <point x="1074" y="0" type="line"/>
    </contour>
  </outline>
</glyph>
<glyph name="four" format="2">
  <advance width="1200" height="1560"/>
  <unicode hex="0034"/>
  <outline>
    <contour>
      <point x="916" y="0" type="line" name="hr00"/>
      <point x="916" y="274" type="line"/>
      <point x="1124" y="274" type="line"/>
      <point x="1124" y="412" type="line"/>
      <point x="916" y="412" type="line"/>
      <point x="916" y="1396" type="line"/>
      <point x="672" y="1396" type="line"/>
      <point x="68" y="422" type="line"/>
      <point x="68" y="274" type="line"/>
      <point x="756" y="274" type="line"/>
      <point x="756" y="0" type="line"/>
    </contour>
    <contour>
      <point x="748" y="1266" type="line"/>
      <point x="756" y="1266" type="line"/>
      <point x="756" y="412" type="line"/>
      <point x="218" y="412" type="line"/>
    </contour>
  </outline>
</glyph>
<glyph name="six" format="2">
  <advance width="1200" height="1560"/>
  <unicode hex="0036"/>
  <outline>
    <contour>
      <point x="602" y="-24" type="curve" smooth="yes" name="hr00"/>
      <point x="886" y="-24"/>
      <point x="1072" y="164"/>
      <point x="1072" y="438" type="curve" smooth="yes"/>
      <point x="1072" y="702"/>
      <point x="898" y="868"/>
      <point x="654" y="868" type="curve" smooth="yes"/>
      <point x="480" y="868"/>
      <point x="378" y="782"/>
      <point x="310" y="668" type="curve"/>
      <point x="300" y="672" type="line"/>
      <point x="378" y="996"/>
      <point x="546" y="1178"/>
      <point x="850" y="1396" type="curve"/>
      <point x="634" y="1396" type="line"/>
      <point x="406" y="1250"/>
      <point x="128" y="926"/>
      <point x="128" y="512" type="curve" smooth="yes"/>
      <point x="128" y="180"/>
      <point x="308" y="-24"/>
    </contour>
    <contour>
      <point x="600" y="118" type="curve" smooth="yes"/>
      <point x="410" y="118"/>
      <point x="298" y="228"/>
      <point x="298" y="416" type="curve" smooth="yes"/>
      <point x="298" y="432" type="line" smooth="yes"/>
      <point x="298" y="620"/>
      <point x="410" y="730"/>
      <point x="600" y="730" type="curve" smooth="yes"/>
      <point x="790" y="730"/>
      <point x="902" y="620"/>
      <point x="902" y="432" type="curve" smooth="yes"/>
      <point x="902" y="416" type="line" smooth="yes"/>
      <point x="902" y="228"/>
      <point x="790" y="118"/>
    </contour>
  </outline>
</glyph>
<glyph name="seven" format="2">
  <advance width="1200" height="1560"/>
  <unicode hex="0037"/>
  <outline>
    <contour>
      <point x="526" y="0" type="line" name="hr00"/>
      <point x="1062" y="1248" type="line"/>
      <point x="1062" y="1396" type="line"/>
      <point x="130" y="1396" type="line"/>
      <point x="130" y="992" type="line"/>
      <point x="280" y="992" type="line"/>
      <point x="280" y="1252" type="line"/>
      <point x="892" y="1252" type="line"/>
      <point x="346" y="0" type="line"/>
    </contour>
  </outline>
</glyph>
<glyph name="eight" format="1">
  <unicode hex="0038"/>
  <advance width="1200" height="1560"/>
  <outline>
    <contour>
      <point x="600" y="-24" type="curve" smooth="yes"/>
      <point x="924" y="-24"/>
      <point x="1090" y="150"/>
      <point x="1090" y="380" type="curve" smooth="yes"/>
      <point x="1090" y="570"/>
      <point x="976" y="680"/>
      <point x="806" y="726" type="curve"/>
      <point x="806" y="742" type="line"/>
      <point x="954" y="792"/>
      <point x="1048" y="910"/>
      <point x="1048" y="1070" type="curve" smooth="yes" name="hr01"/>
      <point x="1048" y="1282"/>
      <point x="882" y="1420"/>
      <point x="600" y="1420" type="curve" smooth="yes"/>
      <point x="318" y="1420"/>
      <point x="152" y="1282"/>
      <point x="152" y="1070" type="curve" smooth="yes"/>
      <point x="152" y="910"/>
      <point x="246" y="792"/>
      <point x="394" y="742" type="curve"/>
      <point x="394" y="726" type="line"/>
      <point x="224" y="680"/>
      <point x="110" y="570"/>
      <point x="110" y="380" type="curve" smooth="yes" name="hr02"/>
      <point x="110" y="150"/>
      <point x="276" y="-24"/>
    </contour>
    <contour>
      <point x="600" y="118" type="curve" smooth="yes"/>
      <point x="404" y="118"/>
      <point x="284" y="212"/>
      <point x="284" y="370" type="curve" smooth="yes"/>
      <point x="284" y="414" type="line" smooth="yes"/>
      <point x="284" y="574"/>
      <point x="400" y="666"/>
      <point x="600" y="666" type="curve" smooth="yes"/>
      <point x="800" y="666"/>
      <point x="916" y="574"/>
      <point x="916" y="414" type="curve" smooth="yes"/>
      <point x="916" y="370" type="line" smooth="yes"/>
      <point x="916" y="212"/>
      <point x="796" y="118"/>
    </contour>
    <contour>
      <point x="600" y="802" type="curve" smooth="yes"/>
      <point x="420" y="802"/>
      <point x="322" y="884"/>
      <point x="322" y="1026" type="curve" smooth="yes" name="hr03"/>
      <point x="322" y="1054" type="line" smooth="yes"/>
      <point x="322" y="1196"/>
      <point x="424" y="1278"/>
      <point x="600" y="1278" type="curve" smooth="yes"/>
      <point x="776" y="1278"/>
      <point x="878" y="1196"/>
      <point x="878" y="1054" type="curve" smooth="yes"/>
      <point x="878" y="1026" type="line" smooth="yes"/>
      <point x="878" y="884"/>
      <point x="780" y="802"/>
    </contour>
  </outline>
</glyph>
<glyph name="nine" format="2">
  <advance width="1200" height="1560"/>
  <unicode hex="0039"/>
  <outline>
    <contour>
      <point x="1072" y="884" type="curve" smooth="yes" name="hr00"/>
      <point x="1072" y="1216"/>
      <point x="892" y="1420"/>
      <point x="598" y="1420" type="curve" smooth="yes"/>
      <point x="314" y="1420"/>
      <point x="128" y="1232"/>
      <point x="128" y="958" type="curve" smooth="yes"/>
      <point x="128" y="694"/>
      <point x="302" y="528"/>
      <point x="546" y="528" type="curve" smooth="yes"/>
      <point x="720" y="528"/>
      <point x="822" y="614"/>
      <point x="890" y="728" type="curve"/>
      <point x="900" y="724" type="line"/>
      <point x="822" y="400"/>
      <point x="654" y="218"/>
      <point x="350" y="0" type="curve"/>
      <point x="566" y="0" type="line"/>
      <point x="794" y="146"/>
      <point x="1072" y="470"/>
    </contour>
    <contour>
      <point x="600" y="666" type="curve" smooth="yes"/>
      <point x="410" y="666"/>
      <point x="298" y="776"/>
      <point x="298" y="964" type="curve" smooth="yes"/>
      <point x="298" y="980" type="line" smooth="yes"/>
      <point x="298" y="1168"/>
      <point x="410" y="1278"/>
      <point x="600" y="1278" type="curve" smooth="yes"/>
      <point x="790" y="1278"/>
      <point x="902" y="1168"/>
      <point x="902" y="980" type="curve" smooth="yes"/>
      <point x="902" y="964" type="line" smooth="yes"/>
      <point x="902" y="776"/>
      <point x="790" y="666"/>
    </contour>
  </outline>
</glyph>
<glyph name="less" format="2">
  <advance width="1200" height="1560"/>
  <unicode hex="003C"/>
  <outline>
    <contour>
      <point x="1030" y="32" type="line" name="hr00"/>
      <point x="1030" y="202" type="line"/>
      <point x="320" y="604" type="line"/>
      <point x="320" y="620" type="line"/>
      <point x="1030" y="1022" type="line"/>
      <point x="1030" y="1188" type="line"/>
      <point x="170" y="690" type="line"/>
      <point x="170" y="530" type="line"/>
    </contour>
  </outline>
</glyph>
<glyph name="equal" format="1">
  <unicode hex="003D"/>
  <advance width="1200" height="1560"/>
  <outline>
    <contour>
      <point x="1074" y="744" type="line" name="hr00.1"/>
      <point x="1074" y="880" type="line"/>
      <point x="126" y="880" type="line"/>
      <point x="126" y="744" type="line"/>
    </contour>
    <contour>
      <point x="1074" y="344" type="line"/>
      <point x="1074" y="480" type="line"/>
      <point x="126" y="480" type="line"/>
      <point x="126" y="344" type="line"/>
    </contour>
  </outline>
</glyph>
<glyph name="question" format="2">
  <advance width="1200" height="1560"/>
  <unicode hex="003F"/>
  <outline>
    <contour>
      <point x="636" y="430" type="line"/>
      <point x="636" y="632" type="line"/>
      <point x="824" y="666"/>
      <point x="1020" y="790"/>
      <point x="1020" y="1042" type="curve" smooth="yes"/>
      <point x="1020" y="1272"/>
      <point x="856" y="1420"/>
      <point x="602" y="1420" type="curve" smooth="yes"/>
      <point x="346" y="1420"/>
      <point x="206" y="1272"/>
      <point x="154" y="1096" type="curve"/>
      <point x="304" y="1040" type="line"/>
      <point x="340" y="1174"/>
      <point x="436" y="1274"/>
      <point x="596" y="1274" type="curve" smooth="yes"/>
      <point x="750" y="1274"/>
      <point x="846" y="1198"/>
      <point x="846" y="1050" type="curve" smooth="yes"/>
      <point x="846" y="1022" type="line" smooth="yes"/>
      <point x="846" y="842"/>
      <point x="706" y="754"/>
      <point x="478" y="744" type="curve"/>
      <point x="478" y="430" type="line"/>
    </contour>
    <contour>
      <point x="564" y="-18" type="curve" smooth="yes"/>
      <point x="672" y="-18"/>
      <point x="712" y="34"/>
      <point x="712" y="102" type="curve" smooth="yes" name="hr01"/>
      <point x="712" y="138" type="line" smooth="yes"/>
      <point x="712" y="206"/>
      <point x="672" y="258"/>
      <point x="564" y="258" type="curve" smooth="yes"/>
      <point x="456" y="258"/>
      <point x="416" y="206"/>
      <point x="416" y="138" type="curve" smooth="yes"/>
      <point x="416" y="102" type="line" smooth="yes"/>
      <point x="416" y="34"/>
      <point x="456" y="-18"/>
    </contour>
  </outline>
</glyph>
<glyph name="at" format="1">
  <unicode hex="0040"/>
  <advance width="1200" height="1560"/>
  <outline>
    <contour>
      <point x="908" y="-96" type="line" name="hr00"/>
      <point x="662" y="-96" type="line" smooth="yes"/>
      <point x="344" y="-96"/>
      <point x="274" y="148"/>
      <point x="274" y="458" type="curve" smooth="yes"/>
      <point x="274" y="716" type="line" smooth="yes"/>
      <point x="274" y="1118"/>
      <point x="368" y="1292"/>
      <point x="606" y="1292" type="curve" smooth="yes"/>
      <point x="820" y="1292"/>
      <point x="908" y="1152"/>
      <point x="908" y="926" type="curve" smooth="yes"/>
      <point x="908" y="878" type="line"/>
      <point x="898" y="878" type="line"/>
      <point x="872" y="946"/>
      <point x="816" y="1016"/>
      <point x="698" y="1016" type="curve" smooth="yes"/>
      <point x="536" y="1016"/>
      <point x="432" y="882"/>
      <point x="432" y="586" type="curve" smooth="yes"/>
      <point x="432" y="292"/>
      <point x="536" y="158"/>
      <point x="698" y="158" type="curve" smooth="yes"/>
      <point x="816" y="158"/>
      <point x="872" y="228"/>
      <point x="898" y="296" type="curve"/>
      <point x="908" y="296" type="line"/>
      <point x="908" y="182" type="line"/>
      <point x="1050" y="182" type="line"/>
      <point x="1050" y="926" type="line" smooth="yes"/>
      <point x="1050" y="1206"/>
      <point x="922" y="1420"/>
      <point x="602" y="1420" type="curve" smooth="yes"/>
      <point x="290" y="1420"/>
      <point x="124" y="1218"/>
      <point x="124" y="600" type="curve" smooth="yes"/>
      <point x="124" y="48"/>
      <point x="256" y="-224"/>
      <point x="662" y="-224" type="curve" smooth="yes"/>
      <point x="908" y="-224" type="line"/>
    </contour>
    <contour>
      <point x="750" y="278" type="curve" smooth="yes"/>
      <point x="640" y="278"/>
      <point x="580" y="348"/>
      <point x="580" y="526" type="curve"/>
      <point x="580" y="648" type="line" smooth="yes"/>
      <point x="580" y="826"/>
      <point x="640" y="896"/>
      <point x="750" y="896" type="curve" smooth="yes"/>
      <point x="846" y="896"/>
      <point x="908" y="842"/>
      <point x="908" y="740" type="curve" smooth="yes"/>
      <point x="908" y="434" type="line" smooth="yes"/>
      <point x="908" y="332"/>
      <point x="846" y="278"/>
    </contour>
  </outline>
</glyph>
<glyph name="A" format="2">
  <advance width="1200" height="1560"/>
  <unicode hex="0041"/>
  <anchor x="600" y="0" name="bottom"/>
  <anchor x="1140" y="0" name="bottomright"/>
  <anchor x="600" y="1396" name="top"/>
  <anchor x="300" y="0" name="b.cedillacomb"/>
  <anchor x="570" y="0" name="b.ogonekcomb"/>
  <anchor x="300" y="698" name="m.tildecomb"/>
  <outline>
    <contour>
      <point x="1140" y="0" type="line" name="hr00"/>
      <point x="712" y="1396" type="line"/>
      <point x="490" y="1396" type="line"/>
      <point x="62" y="0" type="line"/>
      <point x="236" y="0" type="line"/>
      <point x="354" y="398" type="line"/>
      <point x="844" y="398" type="line"/>
      <point x="962" y="0" type="line"/>
    </contour>
    <contour>
      <point x="804" y="544" type="line"/>
      <point x="394" y="544" type="line"/>
      <point x="590" y="1218" type="line"/>
      <point x="608" y="1218" type="line"/>
    </contour>
  </outline>
</glyph>
<glyph name="C" format="2">
  <advance width="1200" height="1560"/>
  <unicode hex="0043"/>
  <anchor x="616" y="0" name="bottom"/>
  <anchor x="656" y="1396" name="top"/>
  <anchor x="308" y="0" name="b.cedillacomb"/>
  <anchor x="328" y="698" name="m.tildecomb"/>
  <anchor x="308" y="0" name="m.cedillacomb"/>
  <anchor x="328" y="698" name="t.tildecomb"/>
  <outline>
    <contour>
      <point x="646" y="-24" type="curve" smooth="yes" name="hr00"/>
      <point x="902" y="-24"/>
      <point x="1008" y="130"/>
      <point x="1076" y="282" type="curve"/>
      <point x="932" y="348" type="line"/>
      <point x="882" y="224"/>
      <point x="816" y="122"/>
      <point x="646" y="122" type="curve" smooth="yes"/>
      <point x="424" y="122"/>
      <point x="318" y="304"/>
      <point x="318" y="584" type="curve" smooth="yes"/>
      <point x="318" y="812" type="line" smooth="yes"/>
      <point x="318" y="1092"/>
      <point x="424" y="1274"/>
      <point x="646" y="1274" type="curve" smooth="yes"/>
      <point x="816" y="1274"/>
      <point x="882" y="1172"/>
      <point x="932" y="1048" type="curve"/>
      <point x="1076" y="1114" type="line"/>
      <point x="1008" y="1266"/>
      <point x="902" y="1420"/>
      <point x="646" y="1420" type="curve" smooth="yes"/>
      <point x="306" y="1420"/>
      <point x="140" y="1162"/>
      <point x="140" y="698" type="curve" smooth="yes"/>
      <point x="140" y="234"/>
      <point x="306" y="-24"/>
    </contour>
  </outline>
</glyph>
<glyph name="D" format="2">
  <advance width="1200" height="1560"/>
  <unicode hex="0044"/>
  <anchor x="554" y="0" name="bottom"/>
  <anchor x="554" y="1396" name="top"/>
  <anchor x="277" y="0" name="b.cedillacomb"/>
  <anchor x="277" y="698" name="m.tildecomb"/>
  <outline>
    <contour>
      <point x="190" y="0" type="line" name="hr00"/>
      <point x="580" y="0" type="line"/>
      <point x="920" y="0"/>
      <point x="1088" y="240"/>
      <point x="1088" y="698" type="curve" smooth="yes"/>
      <point x="1088" y="1156"/>
      <point x="920" y="1396"/>
      <point x="580" y="1396" type="curve" smooth="yes"/>
      <point x="190" y="1396" type="line"/>
    </contour>
    <contour>
      <point x="358" y="146" type="line"/>
      <point x="358" y="1250" type="line"/>
      <point x="572" y="1250" type="line" smooth="yes"/>
      <point x="794" y="1250"/>
      <point x="910" y="1086"/>
      <point x="910" y="806" type="curve" smooth="yes"/>
      <point x="910" y="590" type="line"/>
      <point x="910" y="310"/>
      <point x="794" y="146"/>
      <point x="572" y="146" type="curve" smooth="yes"/>
    </contour>
  </outline>
</glyph>
<glyph name="E" format="2">
  <advance width="1200" height="1560"/>
  <unicode hex="0045"/>
  <anchor x="610" y="0" name="bottom"/>
  <anchor x="1040" y="0" name="bottomright"/>
  <anchor x="610" y="1396" name="top"/>
  <anchor x="305" y="0" name="b.cedillacomb"/>
  <anchor x="520" y="0" name="b.ogonekcomb"/>
  <anchor x="305" y="698" name="m.tildecomb"/>
  <outline>
    <contour>
      <point x="1040" y="0" type="line" name="hr00"/>
      <point x="1040" y="146" type="line"/>
      <point x="348" y="146" type="line"/>
      <point x="348" y="634" type="line"/>
      <point x="1016" y="634" type="line"/>
      <point x="1016" y="780" type="line"/>
      <point x="348" y="780" type="line"/>
      <point x="348" y="1250" type="line"/>
      <point x="1040" y="1250" type="line"/>
      <point x="1040" y="1396" type="line"/>
      <point x="180" y="1396" type="line"/>
      <point x="180" y="0" type="line"/>
    </contour>
  </outline>
</glyph>
<glyph name="F" format="2">
  <advance width="1200" height="1560"/>
  <unicode hex="0046"/>
  <anchor x="264" y="0" name="bottom"/>
  <anchor x="620" y="1396" name="top"/>
  <anchor x="132" y="0" name="b.cedillacomb"/>
  <anchor x="310" y="698" name="m.tildecomb"/>
  <outline>
    <contour>
      <point x="348" y="0" type="line" name="hr00"/>
      <point x="348" y="634" type="line"/>
      <point x="1000" y="634" type="line"/>
      <point x="1000" y="780" type="line"/>
      <point x="348" y="780" type="line"/>
      <point x="348" y="1250" type="line"/>
      <point x="1060" y="1250" type="line"/>
      <point x="1060" y="1396" type="line"/>
      <point x="180" y="1396" type="line"/>
      <point x="180" y="0" type="line"/>
    </contour>
  </outline>
</glyph>
<glyph name="G" format="2">
  <advance width="1200" height="1560"/>
  <unicode hex="0047"/>
  <anchor x="600" y="0" name="bottom"/>
  <anchor x="612" y="1396" name="top"/>
  <anchor x="300" y="0" name="b.cedillacomb"/>
  <anchor x="306" y="698" name="m.tildecomb"/>
  <outline>
    <contour>
      <point x="888" y="0" type="line"/>
      <point x="1044" y="0" type="line"/>
      <point x="1044" y="690" type="line"/>
      <point x="594" y="690" type="line"/>
      <point x="594" y="556" type="line"/>
      <point x="888" y="556" type="line"/>
      <point x="888" y="412" type="line" smooth="yes"/>
      <point x="888" y="240"/>
      <point x="780" y="118"/>
      <point x="600" y="118" type="curve" smooth="yes" name="hr01"/>
      <point x="372" y="118"/>
      <point x="290" y="316"/>
      <point x="290" y="596" type="curve" smooth="yes"/>
      <point x="290" y="812" type="line" smooth="yes"/>
      <point x="290" y="1092"/>
      <point x="392" y="1274"/>
      <point x="616" y="1274" type="curve" smooth="yes"/>
      <point x="784" y="1274"/>
      <point x="850" y="1172"/>
      <point x="900" y="1048" type="curve"/>
      <point x="1044" y="1114" type="line"/>
      <point x="984" y="1266"/>
      <point x="872" y="1420"/>
      <point x="610" y="1420" type="curve" smooth="yes"/>
      <point x="274" y="1420"/>
      <point x="112" y="1164"/>
      <point x="112" y="688" type="curve" smooth="yes"/>
      <point x="112" y="232"/>
      <point x="260" y="-24"/>
      <point x="562" y="-24" type="curve" smooth="yes"/>
      <point x="754" y="-24"/>
      <point x="832" y="78"/>
      <point x="878" y="186" type="curve" name="hr02"/>
      <point x="888" y="186" type="line"/>
    </contour>
  </outline>
</glyph>
<glyph name="H" format="2">
  <advance width="1200" height="1560"/>
  <unicode hex="0048"/>
  <anchor x="600" y="0" name="bottom"/>
  <anchor x="600" y="1396" name="top"/>
  <anchor x="300" y="0" name="b.cedillacomb"/>
  <anchor x="300" y="698" name="m.tildecomb"/>
  <anchor x="300" y="0" name="m.cedillacomb"/>
  <anchor x="300" y="698" name="t.tildecomb"/>
  <outline>
    <contour>
      <point x="872" y="0" type="line" name="hr00"/>
      <point x="1040" y="0" type="line"/>
      <point x="1040" y="1396" type="line"/>
      <point x="872" y="1396" type="line"/>
      <point x="872" y="780" type="line"/>
      <point x="328" y="780" type="line"/>
      <point x="328" y="1396" type="line"/>
      <point x="160" y="1396" type="line"/>
      <point x="160" y="0" type="line"/>
      <point x="328" y="0" type="line"/>
      <point x="328" y="634" type="line"/>
      <point x="872" y="634" type="line"/>
    </contour>
  </outline>
</glyph>
<glyph name="I" format="2">
  <advance width="1200" height="1560"/>
  <unicode hex="0049"/>
  <anchor x="600" y="0" name="bottom"/>
  <anchor x="1032" y="0" name="bottomright"/>
  <anchor x="600" y="1396" name="top"/>
  <anchor x="300" y="0" name="b.cedillacomb"/>
  <anchor x="516" y="0" name="b.ogonekcomb"/>
  <anchor x="300" y="698" name="m.tildecomb"/>
  <outline>
    <contour>
      <point x="1032" y="0" type="line" name="hr00"/>
      <point x="1032" y="134" type="line"/>
      <point x="684" y="134" type="line"/>
      <point x="684" y="1262" type="line"/>
      <point x="1032" y="1262" type="line"/>
      <point x="1032" y="1396" type="line"/>
      <point x="168" y="1396" type="line"/>
      <point x="168" y="1262" type="line"/>
      <point x="516" y="1262" type="line"/>
      <point x="516" y="134" type="line"/>
      <point x="168" y="134" type="line"/>
      <point x="168" y="0" type="line"/>
    </contour>
  </outline>
</glyph>
<glyph name="J" format="2">
  <advance width="1200" height="1560"/>
  <unicode hex="004A"/>
  <anchor x="554" y="0" name="bottom"/>
  <anchor x="626" y="1396" name="top"/>
  <anchor x="277" y="0" name="b.cedillacomb"/>
  <anchor x="313" y="698" name="m.tildecomb"/>
  <outline>
    <contour>
      <point x="288" y="1396" type="line" name="hr00"/>
      <point x="288" y="1250" type="line"/>
      <point x="792" y="1250" type="line"/>
      <point x="792" y="392" type="line" smooth="yes"/>
      <point x="792" y="210"/>
      <point x="704" y="124"/>
      <point x="552" y="124" type="curve" smooth="yes"/>
      <point x="396" y="124"/>
      <point x="334" y="214"/>
      <point x="308" y="326" type="curve"/>
      <point x="148" y="292" type="line"/>
      <point x="190" y="92"/>
      <point x="336" y="-24"/>
      <point x="548" y="-24" type="curve" smooth="yes"/>
      <point x="790" y="-24"/>
      <point x="960" y="126"/>
      <point x="960" y="362" type="curve"/>
      <point x="960" y="1396" type="line"/>
    </contour>
  </outline>
</glyph>
<glyph name="L" format="2">
  <advance width="1200" height="1560"/>
  <unicode hex="004C"/>
  <anchor x="654" y="0" name="bottom"/>
  <anchor x="324" y="1396" name="top"/>
  <anchor x="580" y="1480" name="topright"/>
  <anchor x="327" y="0" name="b.cedillacomb"/>
  <anchor x="162" y="698" name="m.tildecomb"/>
  <anchor x="290" y="740" name="m.caronslovakcomb"/>
  <anchor x="327" y="0" name="m.cedillacomb"/>
  <anchor x="162" y="698" name="t.tildecomb"/>
  <anchor x="290" y="740" name="t.caronslovakcomb"/>
  <outline>
    <contour>
      <point x="1070" y="0" type="line" name="hr00"/>
      <point x="1070" y="146" type="line"/>
      <point x="408" y="146" type="line"/>
      <point x="408" y="1396" type="line"/>
      <point x="240" y="1396" type="line"/>
      <point x="240" y="0" type="line"/>
    </contour>
  </outline>
</glyph>
<glyph name="M" format="2">
  <advance width="1200" height="1560"/>
  <unicode hex="004D"/>
  <anchor x="600" y="0" name="bottom"/>
  <anchor x="600" y="1396" name="top"/>
  <anchor x="300" y="0" name="b.cedillacomb"/>
  <anchor x="300" y="698" name="m.tildecomb"/>
  <outline>
    <contour>
      <point x="910" y="0" type="line" name="hr00"/>
      <point x="1064" y="0" type="line"/>
      <point x="1064" y="1396" type="line"/>
      <point x="856" y="1396" type="line"/>
      <point x="610" y="780" type="line"/>
      <point x="598" y="780" type="line"/>
      <point x="352" y="1396" type="line"/>
      <point x="136" y="1396" type="line"/>
      <point x="136" y="0" type="line"/>
      <point x="290" y="0" type="line"/>
      <point x="290" y="700" type="line"/>
      <point x="290" y="1142" type="line"/>
      <point x="306" y="1142" type="line"/>
      <point x="600" y="424" type="line"/>
      <point x="894" y="1142" type="line"/>
      <point x="910" y="1142" type="line"/>
      <point x="910" y="700" type="line"/>
    </contour>
  </outline>
</glyph>
<glyph name="N" format="2">
  <advance width="1200" height="1560"/>
  <unicode hex="004E"/>
  <anchor x="600" y="0" name="bottom"/>
  <anchor x="600" y="1396" name="top"/>
  <anchor x="300" y="0" name="b.cedillacomb"/>
  <anchor x="300" y="698" name="m.tildecomb"/>
  <outline>
    <contour>
      <point x="802" y="0" type="line" name="hr00"/>
      <point x="1040" y="0" type="line"/>
      <point x="1040" y="1396" type="line"/>
      <point x="888" y="1396" type="line"/>
      <point x="888" y="226" type="line"/>
      <point x="874" y="226" type="line"/>
      <point x="398" y="1396" type="line"/>
      <point x="160" y="1396" type="line"/>
      <point x="160" y="0" type="line"/>
      <point x="312" y="0" type="line"/>
      <point x="312" y="1182" type="line"/>
      <point x="326" y="1182" type="line"/>
    </contour>
  </outline>
</glyph>
<glyph name="O" format="2">
  <advance width="1200" height="1560"/>
  <unicode hex="004F"/>
  <anchor x="600" y="0" name="bottom"/>
  <anchor x="600" y="1396" name="top"/>
  <anchor x="300" y="0" name="b.cedillacomb"/>
  <anchor x="300" y="698" name="m.tildecomb"/>
  <outline>
    <contour>
      <point x="600" y="-24" type="curve" smooth="yes" name="hr00"/>
      <point x="940" y="-24"/>
      <point x="1088" y="242"/>
      <point x="1088" y="698" type="curve" smooth="yes"/>
      <point x="1088" y="1154"/>
      <point x="940" y="1420"/>
      <point x="600" y="1420" type="curve" smooth="yes"/>
      <point x="260" y="1420"/>
      <point x="112" y="1154"/>
      <point x="112" y="698" type="curve" smooth="yes"/>
      <point x="112" y="242"/>
      <point x="260" y="-24"/>
    </contour>
    <contour>
      <point x="600" y="122" type="curve" smooth="yes"/>
      <point x="378" y="122"/>
      <point x="290" y="304"/>
      <point x="290" y="584" type="curve" smooth="yes"/>
      <point x="290" y="812" type="line" smooth="yes"/>
      <point x="290" y="1092"/>
      <point x="378" y="1274"/>
      <point x="600" y="1274" type="curve" smooth="yes"/>
      <point x="822" y="1274"/>
      <point x="910" y="1092"/>
      <point x="910" y="812" type="curve" smooth="yes"/>
      <point x="910" y="584" type="line"/>
      <point x="910" y="304"/>
      <point x="822" y="122"/>
    </contour>
  </outline>
</glyph>
<glyph name="P" format="2">
  <advance width="1200" height="1560"/>
  <unicode hex="0050"/>
  <anchor x="264" y="0" name="bottom"/>
  <anchor x="600" y="1396" name="top"/>
  <anchor x="132" y="0" name="b.cedillacomb"/>
  <anchor x="300" y="698" name="m.tildecomb"/>
  <outline>
    <contour>
      <point x="348" y="0" type="line" name="hr00"/>
      <point x="348" y="592" type="line"/>
      <point x="688" y="592" type="line" smooth="yes"/>
      <point x="946" y="592"/>
      <point x="1086" y="742"/>
      <point x="1086" y="994" type="curve" smooth="yes"/>
      <point x="1086" y="1246"/>
      <point x="946" y="1396"/>
      <point x="688" y="1396" type="curve" smooth="yes"/>
      <point x="180" y="1396" type="line"/>
      <point x="180" y="0" type="line"/>
    </contour>
    <contour>
      <point x="348" y="1250" type="line"/>
      <point x="684" y="1250" type="line" smooth="yes"/>
      <point x="824" y="1250"/>
      <point x="908" y="1176"/>
      <point x="908" y="1046" type="curve" smooth="yes"/>
      <point x="908" y="942" type="line" smooth="yes"/>
      <point x="908" y="812"/>
      <point x="824" y="738"/>
      <point x="684" y="738" type="curve" smooth="yes"/>
      <point x="348" y="738" type="line"/>
    </contour>
  </outline>
</glyph>
<glyph name="Q" format="1">
  <unicode hex="0051"/>
  <advance width="1200" height="1560"/>
  <outline>
    <contour>
      <point x="982" y="-192" type="line" name="hr00"/>
      <point x="680" y="-192" type="line"/>
      <point x="680" y="-18" type="line"/>
      <point x="962" y="20"/>
      <point x="1088" y="280"/>
      <point x="1088" y="698" type="curve" smooth="yes"/>
      <point x="1088" y="1154"/>
      <point x="940" y="1420"/>
      <point x="600" y="1420" type="curve" smooth="yes"/>
      <point x="260" y="1420"/>
      <point x="112" y="1154"/>
      <point x="112" y="698" type="curve" smooth="yes"/>
      <point x="112" y="280"/>
      <point x="236" y="20"/>
      <point x="520" y="-18" type="curve"/>
      <point x="520" y="-92" type="line" smooth="yes"/>
      <point x="520" y="-230"/>
      <point x="592" y="-328"/>
      <point x="748" y="-328" type="curve" smooth="yes"/>
      <point x="982" y="-328" type="line"/>
    </contour>
    <contour>
      <point x="600" y="122" type="curve" smooth="yes"/>
      <point x="378" y="122"/>
      <point x="290" y="304"/>
      <point x="290" y="584" type="curve" smooth="yes"/>
      <point x="290" y="812" type="line" smooth="yes"/>
      <point x="290" y="1092"/>
      <point x="378" y="1274"/>
      <point x="600" y="1274" type="curve" smooth="yes"/>
      <point x="822" y="1274"/>
      <point x="910" y="1092"/>
      <point x="910" y="812" type="curve" smooth="yes"/>
      <point x="910" y="584" type="line" smooth="yes"/>
      <point x="910" y="304"/>
      <point x="822" y="122"/>
    </contour>
    <contour>
      <point x="600" y="1396" type="move" name="top"/>
    </contour>
  </outline>
</glyph>
<glyph name="R" format="2">
  <advance width="1200" height="1560"/>
  <unicode hex="0052"/>
  <anchor x="616" y="0" name="bottom"/>
  <anchor x="616" y="1396" name="top"/>
  <anchor x="308" y="0" name="b.cedillacomb"/>
  <anchor x="308" y="698" name="m.tildecomb"/>
  <anchor x="308" y="0" name="m.cedillacomb"/>
  <anchor x="308" y="698" name="t.tildecomb"/>
  <outline>
    <contour>
      <point x="348" y="596" type="line" name="hr00"/>
      <point x="570" y="596" type="line"/>
      <point x="910" y="0" type="line"/>
      <point x="1098" y="0" type="line"/>
      <point x="742" y="604" type="line"/>
      <point x="964" y="626"/>
      <point x="1086" y="770"/>
      <point x="1086" y="994" type="curve" smooth="yes"/>
      <point x="1086" y="1246"/>
      <point x="946" y="1396"/>
      <point x="688" y="1396" type="curve" smooth="yes"/>
      <point x="180" y="1396" type="line"/>
      <point x="180" y="0" type="line"/>
      <point x="348" y="0" type="line"/>
    </contour>
    <contour>
      <point x="348" y="738" type="line"/>
      <point x="348" y="1250" type="line"/>
      <point x="684" y="1250" type="line" smooth="yes"/>
      <point x="824" y="1250"/>
      <point x="908" y="1176"/>
      <point x="908" y="1046" type="curve" smooth="yes"/>
      <point x="908" y="942" type="line" smooth="yes"/>
      <point x="908" y="812"/>
      <point x="824" y="738"/>
      <point x="684" y="738" type="curve" smooth="yes"/>
    </contour>
  </outline>
</glyph>
<glyph name="S" format="2">
  <advance width="1200" height="1560"/>
  <unicode hex="0053"/>
  <anchor x="594" y="0" name="bottom"/>
  <anchor x="596" y="1396" name="top"/>
  <anchor x="297" y="0" name="b.cedillacomb"/>
  <anchor x="298" y="698" name="m.tildecomb"/>
  <outline>
    <contour>
      <point x="596" y="-24" type="curve" smooth="yes" name="hr00"/>
      <point x="906" y="-24"/>
      <point x="1084" y="132"/>
      <point x="1084" y="390" type="curve" smooth="yes"/>
      <point x="1084" y="572"/>
      <point x="994" y="724"/>
      <point x="720" y="772" type="curve" smooth="yes"/>
      <point x="570" y="798" type="line" smooth="yes"/>
      <point x="372" y="832"/>
      <point x="308" y="912"/>
      <point x="308" y="1036" type="curve" smooth="yes"/>
      <point x="308" y="1194"/>
      <point x="414" y="1276"/>
      <point x="602" y="1276" type="curve" smooth="yes"/>
      <point x="776" y="1276"/>
      <point x="876" y="1206"/>
      <point x="954" y="1104" type="curve"/>
      <point x="1072" y="1206" type="line"/>
      <point x="978" y="1340"/>
      <point x="826" y="1420"/>
      <point x="604" y="1420" type="curve" smooth="yes"/>
      <point x="320" y="1420"/>
      <point x="138" y="1288"/>
      <point x="138" y="1032" type="curve" smooth="yes"/>
      <point x="138" y="856"/>
      <point x="224" y="698"/>
      <point x="498" y="652" type="curve" smooth="yes"/>
      <point x="654" y="626" type="line" smooth="yes"/>
      <point x="844" y="594"/>
      <point x="914" y="522"/>
      <point x="914" y="386" type="curve" smooth="yes"/>
      <point x="914" y="218"/>
      <point x="804" y="120"/>
      <point x="602" y="120" type="curve" smooth="yes"/>
      <point x="434" y="120"/>
      <point x="320" y="186"/>
      <point x="212" y="322" type="curve"/>
      <point x="90" y="222" type="line"/>
      <point x="194" y="78"/>
      <point x="346" y="-24"/>
    </contour>
  </outline>
</glyph>
<glyph name="V" format="2">
  <advance width="1200" height="1560"/>
  <unicode hex="0056"/>
  <anchor x="600" y="0" name="bottom"/>
  <anchor x="600" y="1396" name="top"/>
  <anchor x="300" y="0" name="b.cedillacomb"/>
  <anchor x="300" y="698" name="m.tildecomb"/>
  <outline>
    <contour>
      <point x="714" y="0" type="line" name="hr00"/>
      <point x="1128" y="1396" type="line"/>
      <point x="956" y="1396" type="line"/>
      <point x="758" y="698" type="line"/>
      <point x="608" y="170" type="line"/>
      <point x="598" y="170" type="line"/>
      <point x="448" y="698" type="line"/>
      <point x="250" y="1396" type="line"/>
      <point x="72" y="1396" type="line"/>
      <point x="486" y="0" type="line"/>
    </contour>
  </outline>
</glyph>
<glyph name="W" format="1">
  <unicode hex="0057"/>
  <advance width="1200" height="1560"/>
  <outline>
    <contour>
      <point x="422" y="0" type="line" name="hr00"/>
      <point x="592" y="834" type="line"/>
      <point x="608" y="834" type="line"/>
      <point x="778" y="0" type="line"/>
      <point x="1020" y="0" type="line"/>
      <point x="1130" y="1396" type="line"/>
      <point x="984" y="1396" type="line"/>
      <point x="926" y="596" type="line"/>
      <point x="896" y="174" type="line"/>
      <point x="880" y="174" type="line"/>
      <point x="696" y="1032" type="line"/>
      <point x="508" y="1032" type="line"/>
      <point x="324" y="174" type="line"/>
      <point x="308" y="174" type="line"/>
      <point x="278" y="596" type="line"/>
      <point x="220" y="1396" type="line"/>
      <point x="70" y="1396" type="line"/>
      <point x="180" y="0" type="line"/>
    </contour>
    <contour>
      <point x="600" y="0" type="move" name="bottom"/>
    </contour>
    <contour>
      <point x="600" y="1396" type="move" name="top"/>
    </contour>
  </outline>
</glyph>
<glyph name="X" format="2">
  <advance width="1200" height="1560"/>
  <unicode hex="0058"/>
  <anchor x="600" y="0" name="bottom"/>
  <anchor x="600" y="1396" name="top"/>
  <anchor x="300" y="0" name="b.cedillacomb"/>
  <anchor x="300" y="698" name="m.tildecomb"/>
  <anchor x="300" y="0" name="m.cedillacomb"/>
  <anchor x="300" y="698" name="t.tildecomb"/>
  <outline>
    <contour>
      <point x="704" y="714" type="line" name="hr00"/>
      <point x="1136" y="1396" type="line"/>
      <point x="952" y="1396" type="line"/>
      <point x="784" y="1126" type="line"/>
      <point x="612" y="844" type="line"/>
      <point x="604" y="844" type="line"/>
      <point x="430" y="1126" type="line"/>
      <point x="268" y="1396" type="line"/>
      <point x="78" y="1396" type="line"/>
      <point x="508" y="712" type="line"/>
      <point x="52" y="0" type="line"/>
      <point x="236" y="0" type="line"/>
      <point x="412" y="278" type="line"/>
      <point x="602" y="582" type="line"/>
      <point x="610" y="582" type="line"/>
      <point x="794" y="278" type="line"/>
      <point x="960" y="0" type="line"/>
      <point x="1150" y="0" type="line"/>
    </contour>
  </outline>
</glyph>
<glyph name="Y" format="2">
  <advance width="1200" height="1560"/>
  <unicode hex="0059"/>
  <anchor x="600" y="0" name="bottom"/>
  <anchor x="600" y="1396" name="top"/>
  <anchor x="300" y="0" name="b.cedillacomb"/>
  <anchor x="300" y="698" name="m.tildecomb"/>
  <outline>
    <contour>
      <point x="684" y="0" type="line" name="hr00"/>
      <point x="684" y="548" type="line"/>
      <point x="1166" y="1396" type="line"/>
      <point x="978" y="1396" type="line"/>
      <point x="778" y="1032" type="line"/>
      <point x="604" y="714" type="line"/>
      <point x="596" y="714" type="line"/>
      <point x="426" y="1032" type="line"/>
      <point x="226" y="1396" type="line"/>
      <point x="34" y="1396" type="line"/>
      <point x="516" y="548" type="line"/>
      <point x="516" y="0" type="line"/>
    </contour>
  </outline>
</glyph>
<glyph name="Z" format="1">
  <unicode hex="005A"/>
  <advance width="1200" height="1560"/>
  <outline>
    <contour>
      <point x="1104" y="146" type="line" name="hr00"/>
      <point x="278" y="146" type="line"/>
      <point x="1070" y="1246" type="line"/>
      <point x="1070" y="1396" type="line"/>
      <point x="130" y="1396" type="line"/>
      <point x="130" y="1250" type="line"/>
      <point x="886" y="1250" type="line"/>
      <point x="96" y="150" type="line"/>
      <point x="96" y="0" type="line"/>
      <point x="1104" y="0" type="line"/>
    </contour>
    <contour>
      <point x="600" y="0" type="move" name="bottom"/>
    </contour>
    <contour>
      <point x="600" y="1396" type="move" name="top"/>
    </contour>
  </outline>
</glyph>
<glyph name="bracketleft" format="2">
  <advance width="1200" height="1560"/>
  <unicode hex="005B"/>
  <outline>
    <contour>
      <point x="1010" y="-276" type="line" name="hr00"/>
      <point x="1010" y="-152" type="line"/>
      <point x="588" y="-152" type="line"/>
      <point x="588" y="1396" type="line"/>
      <point x="1010" y="1396" type="line"/>
      <point x="1010" y="1520" type="line"/>
      <point x="450" y="1520" type="line"/>
      <point x="450" y="-276" type="line"/>
    </contour>
  </outline>
</glyph>
<glyph name="bracketright" format="2">
  <advance width="1200" height="1560"/>
  <unicode hex="005D"/>
  <outline>
    <contour>
      <point x="190" y="1520" type="line" name="hr00"/>
      <point x="190" y="1396" type="line"/>
      <point x="612" y="1396" type="line"/>
      <point x="612" y="-152" type="line"/>
      <point x="190" y="-152" type="line"/>
      <point x="190" y="-276" type="line"/>
      <point x="750" y="-276" type="line"/>
      <point x="750" y="1520" type="line"/>
    </contour>
  </outline>
</glyph>
<glyph name="asciicircum" format="2">
  <advance width="1200" height="1560"/>
  <unicode hex="005E"/>
  <outline>
    <contour>
      <point x="1110" y="636" type="line" name="hr00"/>
      <point x="690" y="1396" type="line"/>
      <point x="510" y="1396" type="line"/>
      <point x="90" y="636" type="line"/>
      <point x="214" y="574" type="line"/>
      <point x="592" y="1258" type="line"/>
      <point x="600" y="1258" type="line"/>
      <point x="978" y="574" type="line"/>
    </contour>
  </outline>
</glyph>
<glyph name="underscore" format="1">
  <unicode hex="005F"/>
  <advance width="1200" height="1560"/>
  <outline>
    <contour>
      <point x="1080" y="-338" type="line" name="hr00"/>
      <point x="1080" y="-190" type="line"/>
      <point x="120" y="-190" type="line"/>
      <point x="120" y="-338" type="line"/>
    </contour>
  </outline>
</glyph>
<glyph name="grave" format="2">
  <advance width="1200" height="1560"/>
  <unicode hex="0060"/>
  <anchor x="600" y="1032" name="_top"/>
  <outline>
    <contour>
      <point x="586" y="1170" type="line" name="hr00"/>
      <point x="690" y="1218" type="line"/>
      <point x="520" y="1558" type="line"/>
      <point x="374" y="1488" type="line"/>
    </contour>
  </outline>
</glyph>
<glyph name="a" format="2">
  <advance width="1200" height="1560"/>
  <unicode hex="0061"/>
  <anchor x="566" y="0" name="bottom"/>
  <anchor x="1100" y="0" name="bottomright"/>
  <anchor x="566" y="1032" name="top"/>
  <anchor x="283" y="0" name="b.cedillacomb"/>
  <anchor x="550" y="0" name="b.ogonekcomb"/>
  <anchor x="283" y="516" name="m.tildecomb"/>
  <outline>
    <contour>
      <point x="1100" y="0" type="line"/>
      <point x="1100" y="140" type="line"/>
      <point x="956" y="140" type="line"/>
      <point x="956" y="708" type="line" smooth="yes"/>
      <point x="956" y="926"/>
      <point x="802" y="1056"/>
      <point x="560" y="1056" type="curve" smooth="yes"/>
      <point x="350" y="1056"/>
      <point x="218" y="956"/>
      <point x="166" y="848" type="curve"/>
      <point x="274" y="768" type="line"/>
      <point x="328" y="862"/>
      <point x="412" y="920"/>
      <point x="550" y="920" type="curve" smooth="yes"/>
      <point x="706" y="920"/>
      <point x="796" y="842"/>
      <point x="796" y="692" type="curve" smooth="yes"/>
      <point x="796" y="590" type="line"/>
      <point x="576" y="590" type="line" smooth="yes"/>
      <point x="266" y="590"/>
      <point x="132" y="480"/>
      <point x="132" y="290" type="curve" smooth="yes"/>
      <point x="132" y="96"/>
      <point x="270" y="-24"/>
      <point x="486" y="-24" type="curve" smooth="yes" name="hr01"/>
      <point x="654" y="-24"/>
      <point x="752" y="50"/>
      <point x="796" y="168" type="curve"/>
      <point x="806" y="168" type="line"/>
      <point x="818" y="72"/>
      <point x="866" y="0"/>
      <point x="990" y="0" type="curve" smooth="yes" name="hr02"/>
    </contour>
    <contour>
      <point x="514" y="110" type="curve" smooth="yes" name="hr03"/>
      <point x="382" y="110"/>
      <point x="300" y="166"/>
      <point x="300" y="272" type="curve" smooth="yes"/>
      <point x="300" y="314" type="line" smooth="yes"/>
      <point x="300" y="414"/>
      <point x="386" y="470"/>
      <point x="576" y="470" type="curve" smooth="yes"/>
      <point x="796" y="470" type="line"/>
      <point x="796" y="300" type="line" smooth="yes"/>
      <point x="796" y="194"/>
      <point x="678" y="110"/>
    </contour>
  </outline>
</glyph>
<glyph name="c" format="2">
  <advance width="1200" height="1560"/>
  <unicode hex="0063"/>
  <anchor x="606" y="0" name="bottom"/>
  <anchor x="626" y="1032" name="top"/>
  <anchor x="303" y="0" name="b.cedillacomb"/>
  <anchor x="313" y="516" name="m.tildecomb"/>
  <outline>
    <contour>
      <point x="636" y="-24" type="curve" smooth="yes" name="hr00"/>
      <point x="842" y="-24"/>
      <point x="972" y="78"/>
      <point x="1032" y="216" type="curve"/>
      <point x="918" y="294" type="line"/>
      <point x="866" y="182"/>
      <point x="776" y="114"/>
      <point x="638" y="114" type="curve" smooth="yes"/>
      <point x="444" y="114"/>
      <point x="340" y="246"/>
      <point x="340" y="428" type="curve" smooth="yes"/>
      <point x="340" y="604" type="line" smooth="yes"/>
      <point x="340" y="786"/>
      <point x="446" y="918"/>
      <point x="634" y="918" type="curve" smooth="yes"/>
      <point x="762" y="918"/>
      <point x="850" y="856"/>
      <point x="888" y="750" type="curve"/>
      <point x="1016" y="818" type="line"/>
      <point x="958" y="958"/>
      <point x="834" y="1056"/>
      <point x="634" y="1056" type="curve" smooth="yes"/>
      <point x="342" y="1056"/>
      <point x="168" y="844"/>
      <point x="168" y="516" type="curve" smooth="yes"/>
      <point x="168" y="190"/>
      <point x="340" y="-24"/>
    </contour>
  </outline>
</glyph>
<glyph name="e" format="2">
  <advance width="1200" height="1560"/>
  <unicode hex="0065"/>
  <anchor x="618" y="0" name="bottom"/>
  <anchor x="782" y="0" name="bottomright"/>
  <anchor x="604" y="1032" name="top"/>
  <anchor x="309" y="0" name="b.cedillacomb"/>
  <anchor x="391" y="0" name="b.ogonekcomb"/>
  <anchor x="302" y="516" name="m.tildecomb"/>
  <outline>
    <contour>
      <point x="618" y="-24" type="curve" smooth="yes" name="hr00"/>
      <point x="822" y="-24"/>
      <point x="970" y="76"/>
      <point x="1032" y="214" type="curve"/>
      <point x="914" y="294" type="line"/>
      <point x="860" y="182"/>
      <point x="756" y="114"/>
      <point x="618" y="114" type="curve" smooth="yes"/>
      <point x="424" y="114"/>
      <point x="302" y="246"/>
      <point x="302" y="428" type="curve" smooth="yes"/>
      <point x="302" y="476" type="line"/>
      <point x="1066" y="476" type="line"/>
      <point x="1066" y="552" type="line" smooth="yes"/>
      <point x="1066" y="844"/>
      <point x="886" y="1056"/>
      <point x="608" y="1056" type="curve" smooth="yes"/>
      <point x="328" y="1056"/>
      <point x="134" y="844"/>
      <point x="134" y="514" type="curve" smooth="yes"/>
      <point x="134" y="188"/>
      <point x="322" y="-24"/>
    </contour>
    <contour>
      <point x="608" y="924" type="curve" smooth="yes"/>
      <point x="778" y="924"/>
      <point x="894" y="800"/>
      <point x="894" y="618" type="curve" smooth="yes"/>
      <point x="894" y="596" type="line"/>
      <point x="302" y="596" type="line"/>
      <point x="302" y="610" type="line" smooth="yes"/>
      <point x="302" y="790"/>
      <point x="432" y="924"/>
    </contour>
  </outline>
</glyph>
<glyph name="g" format="2">
  <advance width="1200" height="1560"/>
  <unicode hex="0067"/>
  <anchor x="594" y="1032" name="top"/>
  <anchor x="297" y="516" name="m.tildecomb"/>
  <anchor x="297" y="516" name="t.tildecomb"/>
  <outline>
    <contour>
      <point x="1122" y="-118" type="curve" smooth="yes"/>
      <point x="1122" y="50"/>
      <point x="1008" y="158"/>
      <point x="742" y="158" type="curve" smooth="yes"/>
      <point x="514" y="158" type="line" smooth="yes"/>
      <point x="416" y="158"/>
      <point x="348" y="172"/>
      <point x="348" y="234" type="curve" smooth="yes"/>
      <point x="348" y="304"/>
      <point x="434" y="340"/>
      <point x="496" y="352" type="curve"/>
      <point x="528" y="346"/>
      <point x="560" y="344"/>
      <point x="594" y="344" type="curve" smooth="yes"/>
      <point x="836" y="344"/>
      <point x="996" y="490"/>
      <point x="996" y="700" type="curve" smooth="yes" name="hr01"/>
      <point x="996" y="808"/>
      <point x="954" y="898"/>
      <point x="880" y="962" type="curve"/>
      <point x="880" y="1032" type="line"/>
      <point x="1112" y="1032" type="line"/>
      <point x="1112" y="1172" type="line"/>
      <point x="922" y="1172" type="line" smooth="yes"/>
      <point x="832" y="1172"/>
      <point x="798" y="1112"/>
      <point x="798" y="1032" type="curve" smooth="yes"/>
      <point x="798" y="1014" type="line"/>
      <point x="740" y="1042"/>
      <point x="672" y="1056"/>
      <point x="594" y="1056" type="curve" smooth="yes" name="hr02"/>
      <point x="352" y="1056"/>
      <point x="194" y="910"/>
      <point x="194" y="700" type="curve" smooth="yes"/>
      <point x="194" y="554"/>
      <point x="270" y="440"/>
      <point x="396" y="384" type="curve"/>
      <point x="396" y="376" type="line"/>
      <point x="290" y="350"/>
      <point x="210" y="302"/>
      <point x="210" y="196" type="curve" smooth="yes" name="hr03"/>
      <point x="210" y="126"/>
      <point x="244" y="82"/>
      <point x="302" y="54" type="curve"/>
      <point x="302" y="30" type="line"/>
      <point x="196" y="2"/>
      <point x="134" y="-58"/>
      <point x="134" y="-168" type="curve" smooth="yes" name="hr04"/>
      <point x="134" y="-332"/>
      <point x="270" y="-424"/>
      <point x="602" y="-424" type="curve" smooth="yes"/>
      <point x="946" y="-424"/>
      <point x="1122" y="-326"/>
    </contour>
    <contour>
      <point x="972" y="-126" type="curve" smooth="yes"/>
      <point x="972" y="-238"/>
      <point x="862" y="-296"/>
      <point x="676" y="-296" type="curve" smooth="yes"/>
      <point x="520" y="-296" type="line" smooth="yes"/>
      <point x="352" y="-296"/>
      <point x="286" y="-220"/>
      <point x="286" y="-130" type="curve" smooth="yes"/>
      <point x="286" y="-64"/>
      <point x="322" y="-18"/>
      <point x="390" y="10" type="curve"/>
      <point x="748" y="10" type="line" smooth="yes"/>
      <point x="914" y="10"/>
      <point x="972" y="-44"/>
    </contour>
    <contour>
      <point x="594" y="468" type="curve" smooth="yes"/>
      <point x="436" y="468"/>
      <point x="362" y="550"/>
      <point x="362" y="672" type="curve" smooth="yes" name="hr05"/>
      <point x="362" y="730" type="line" smooth="yes"/>
      <point x="362" y="852"/>
      <point x="436" y="932"/>
      <point x="594" y="932" type="curve" smooth="yes"/>
      <point x="754" y="932"/>
      <point x="828" y="852"/>
      <point x="828" y="730" type="curve" smooth="yes"/>
      <point x="828" y="672" type="line" smooth="yes"/>
      <point x="828" y="550"/>
      <point x="754" y="468"/>
    </contour>
  </outline>
</glyph>
<glyph name="h" format="2">
  <advance width="1200" height="1560"/>
  <unicode hex="0068"/>
  <anchor x="606" y="0" name="bottom"/>
  <anchor x="276" y="1396" name="top"/>
  <anchor x="303" y="0" name="b.cedillacomb"/>
  <anchor x="138" y="698" name="m.tildecomb"/>
  <anchor x="303" y="0" name="m.cedillacomb"/>
  <anchor x="138" y="698" name="t.tildecomb"/>
  <outline>
    <contour>
      <point x="196" y="0" type="line" name="hr00"/>
      <point x="356" y="0" type="line"/>
      <point x="356" y="716" type="line"/>
      <point x="356" y="852"/>
      <point x="484" y="914"/>
      <point x="612" y="914" type="curve" smooth="yes"/>
      <point x="770" y="914"/>
      <point x="856" y="822"/>
      <point x="856" y="634" type="curve" smooth="yes"/>
      <point x="856" y="0" type="line"/>
      <point x="1016" y="0" type="line"/>
      <point x="1016" y="662" type="line" smooth="yes"/>
      <point x="1016" y="912"/>
      <point x="874" y="1056"/>
      <point x="658" y="1056" type="curve" smooth="yes"/>
      <point x="488" y="1056"/>
      <point x="408" y="966"/>
      <point x="364" y="864" type="curve"/>
      <point x="356" y="864" type="line"/>
      <point x="356" y="1480" type="line"/>
      <point x="196" y="1480" type="line"/>
    </contour>
  </outline>
</glyph>
<glyph name="i" format="2">
  <advance width="1200" height="1560"/>
  <unicode hex="0069"/>
  <anchor x="664" y="0" name="bottom"/>
  <anchor x="1092" y="0" name="bottomright"/>
  <anchor x="332" y="0" name="b.cedillacomb"/>
  <anchor x="546" y="0" name="b.ogonekcomb"/>
  <anchor x="332" y="0" name="m.cedillacomb"/>
  <anchor x="546" y="0" name="m.ogonekcomb"/>
  <outline>
    <contour>
      <point x="664" y="1260" type="curve" smooth="yes"/>
      <point x="756" y="1260"/>
      <point x="790" y="1304"/>
      <point x="790" y="1362" type="curve" smooth="yes"/>
      <point x="790" y="1394" type="line" smooth="yes"/>
      <point x="790" y="1452"/>
      <point x="756" y="1496"/>
      <point x="664" y="1496" type="curve" smooth="yes"/>
      <point x="572" y="1496"/>
      <point x="538" y="1452"/>
      <point x="538" y="1394" type="curve" smooth="yes"/>
      <point x="538" y="1362" type="line" smooth="yes"/>
      <point x="538" y="1304"/>
      <point x="572" y="1260"/>
    </contour>
    <contour>
      <point x="212" y="0" type="line"/>
      <point x="1092" y="0" type="line"/>
      <point x="1092" y="136" type="line"/>
      <point x="744" y="136" type="line" name="hr01"/>
      <point x="744" y="1032" type="line"/>
      <point x="212" y="1032" type="line"/>
      <point x="212" y="896" type="line"/>
      <point x="584" y="896" type="line"/>
      <point x="584" y="136" type="line"/>
      <point x="212" y="136" type="line"/>
    </contour>
  </outline>
</glyph>
<glyph name="j" format="1">
  <unicode hex="006A"/>
  <advance width="1200" height="1560"/>
  <outline>
    <contour>
      <point x="204" y="-400" type="line"/>
      <point x="636" y="-400" type="line" smooth="yes"/>
      <point x="792" y="-400"/>
      <point x="864" y="-302"/>
      <point x="864" y="-164" type="curve" smooth="yes"/>
      <point x="864" y="1032" type="line"/>
      <point x="186" y="1032" type="line"/>
      <point x="186" y="896" type="line"/>
      <point x="704" y="896" type="line"/>
      <point x="704" y="-264" type="line"/>
      <point x="204" y="-264" type="line"/>
    </contour>
    <contour>
      <point x="784" y="1260" type="curve" smooth="yes"/>
      <point x="876" y="1260"/>
      <point x="910" y="1304"/>
      <point x="910" y="1362" type="curve" smooth="yes" name="hr01"/>
      <point x="910" y="1394" type="line" smooth="yes"/>
      <point x="910" y="1452"/>
      <point x="876" y="1496"/>
      <point x="784" y="1496" type="curve" smooth="yes"/>
      <point x="692" y="1496"/>
      <point x="658" y="1452"/>
      <point x="658" y="1394" type="curve" smooth="yes"/>
      <point x="658" y="1362" type="line" smooth="yes"/>
      <point x="658" y="1304"/>
      <point x="692" y="1260"/>
    </contour>
  </outline>
</glyph>
<glyph name="k" format="2">
  <advance width="1200" height="1560"/>
  <unicode hex="006B"/>
  <anchor x="646" y="0" name="bottom"/>
  <anchor x="323" y="0" name="b.cedillacomb"/>
  <anchor x="323" y="0" name="m.cedillacomb"/>
  <outline>
    <contour>
      <point x="210" y="0" type="line" name="hr00"/>
      <point x="370" y="0" type="line"/>
      <point x="370" y="374" type="line"/>
      <point x="548" y="536" type="line"/>
      <point x="950" y="0" type="line"/>
      <point x="1148" y="0" type="line"/>
      <point x="670" y="628" type="line"/>
      <point x="1098" y="1032" type="line"/>
      <point x="902" y="1032" type="line"/>
      <point x="558" y="716" type="line"/>
      <point x="378" y="546" type="line"/>
      <point x="370" y="546" type="line"/>
      <point x="370" y="1480" type="line"/>
      <point x="210" y="1480" type="line"/>
    </contour>
  </outline>
</glyph>
<glyph name="l" format="2">
  <advance width="1200" height="1560"/>
  <unicode hex="006C"/>
  <anchor x="600" y="0" name="bottom"/>
  <anchor x="600" y="1396" name="top"/>
  <anchor x="852" y="1480" name="topright"/>
  <anchor x="300" y="0" name="b.cedillacomb"/>
  <anchor x="300" y="698" name="m.tildecomb"/>
  <anchor x="426" y="740" name="m.caronslovakcomb"/>
  <outline>
    <contour>
      <point x="160" y="0" type="line" name="hr00"/>
      <point x="1040" y="0" type="line"/>
      <point x="1040" y="136" type="line"/>
      <point x="680" y="136" type="line"/>
      <point x="680" y="1480" type="line"/>
      <point x="160" y="1480" type="line"/>
      <point x="160" y="1344" type="line"/>
      <point x="520" y="1344" type="line"/>
      <point x="520" y="136" type="line"/>
      <point x="160" y="136" type="line"/>
    </contour>
  </outline>
</glyph>
<glyph name="m" format="2">
  <advance width="1200" height="1560"/>
  <unicode hex="006D"/>
  <anchor x="600" y="0" name="bottom"/>
  <anchor x="600" y="1032" name="top"/>
  <anchor x="300" y="0" name="b.cedillacomb"/>
  <anchor x="300" y="516" name="m.tildecomb"/>
  <outline>
    <contour>
      <point x="256" y="0" type="line"/>
      <point x="256" y="758" type="line"/>
      <point x="256" y="868"/>
      <point x="316" y="924"/>
      <point x="402" y="924" type="curve" smooth="yes"/>
      <point x="496" y="924"/>
      <point x="526" y="866"/>
      <point x="526" y="690" type="curve" smooth="yes"/>
      <point x="526" y="0" type="line"/>
      <point x="674" y="0" type="line"/>
      <point x="674" y="758" type="line"/>
      <point x="674" y="868"/>
      <point x="734" y="924"/>
      <point x="818" y="924" type="curve" smooth="yes"/>
      <point x="914" y="924"/>
      <point x="944" y="866"/>
      <point x="944" y="690" type="curve" smooth="yes"/>
      <point x="944" y="0" type="line"/>
      <point x="1092" y="0" type="line"/>
      <point x="1092" y="716" type="line" smooth="yes"/>
      <point x="1092" y="934"/>
      <point x="1048" y="1056"/>
      <point x="880" y="1056" type="curve" smooth="yes"/>
      <point x="758" y="1056"/>
      <point x="694" y="988"/>
      <point x="656" y="894" type="curve"/>
      <point x="650" y="894" type="line"/>
      <point x="638" y="990"/>
      <point x="580" y="1056"/>
      <point x="462" y="1056" type="curve" smooth="yes"/>
      <point x="348" y="1056"/>
      <point x="296" y="992"/>
      <point x="264" y="912" type="curve"/>
      <point x="256" y="912" type="line"/>
      <point x="256" y="1032" type="line" name="hr01"/>
      <point x="108" y="1032" type="line"/>
      <point x="108" y="0" type="line"/>
    </contour>
  </outline>
</glyph>
<glyph name="n" format="2">
  <advance width="1200" height="1560"/>
  <unicode hex="006E"/>
  <anchor x="606" y="0" name="bottom"/>
  <anchor x="606" y="1032" name="top"/>
  <anchor x="303" y="0" name="b.cedillacomb"/>
  <anchor x="303" y="516" name="m.tildecomb"/>
  <anchor x="303" y="0" name="m.cedillacomb"/>
  <anchor x="303" y="516" name="t.tildecomb"/>
  <outline>
    <contour>
      <point x="356" y="0" type="line"/>
      <point x="356" y="716" type="line"/>
      <point x="356" y="852"/>
      <point x="484" y="914"/>
      <point x="612" y="914" type="curve" smooth="yes"/>
      <point x="770" y="914"/>
      <point x="856" y="822"/>
      <point x="856" y="634" type="curve" smooth="yes"/>
      <point x="856" y="0" type="line"/>
      <point x="1016" y="0" type="line"/>
      <point x="1016" y="662" type="line" smooth="yes"/>
      <point x="1016" y="912"/>
      <point x="874" y="1056"/>
      <point x="658" y="1056" type="curve" smooth="yes"/>
      <point x="488" y="1056"/>
      <point x="408" y="966"/>
      <point x="364" y="864" type="curve"/>
      <point x="356" y="864" type="line"/>
      <point x="356" y="1032" type="line" name="hr01"/>
      <point x="196" y="1032" type="line"/>
      <point x="196" y="0" type="line"/>
    </contour>
  </outline>
</glyph>
<glyph name="o" format="2">
  <advance width="1200" height="1560"/>
  <unicode hex="006F"/>
  <anchor x="600" y="0" name="bottom"/>
  <anchor x="600" y="1032" name="top"/>
  <anchor x="300" y="0" name="b.cedillacomb"/>
  <anchor x="300" y="516" name="m.tildecomb"/>
  <anchor x="300" y="0" name="m.cedillacomb"/>
  <anchor x="300" y="516" name="t.tildecomb"/>
  <outline>
    <contour>
      <point x="600" y="-24" type="curve" smooth="yes" name="hr00"/>
      <point x="890" y="-24"/>
      <point x="1068" y="188"/>
      <point x="1068" y="516" type="curve" smooth="yes"/>
      <point x="1068" y="844"/>
      <point x="890" y="1056"/>
      <point x="600" y="1056" type="curve" smooth="yes"/>
      <point x="310" y="1056"/>
      <point x="132" y="844"/>
      <point x="132" y="516" type="curve" smooth="yes"/>
      <point x="132" y="188"/>
      <point x="310" y="-24"/>
    </contour>
    <contour>
      <point x="600" y="114" type="curve" smooth="yes"/>
      <point x="422" y="114"/>
      <point x="302" y="220"/>
      <point x="302" y="442" type="curve" smooth="yes"/>
      <point x="302" y="590" type="line" smooth="yes"/>
      <point x="302" y="812"/>
      <point x="422" y="918"/>
      <point x="600" y="918" type="curve" smooth="yes"/>
      <point x="778" y="918"/>
      <point x="898" y="812"/>
      <point x="898" y="590" type="curve" smooth="yes"/>
      <point x="898" y="442" type="line" smooth="yes"/>
      <point x="898" y="220"/>
      <point x="778" y="114"/>
    </contour>
  </outline>
</glyph>
<glyph name="p" format="2">
  <advance width="1200" height="1560"/>
  <unicode hex="0070"/>
  <anchor x="634" y="1032" name="top"/>
  <anchor x="317" y="516" name="m.tildecomb"/>
  <anchor x="317" y="516" name="t.tildecomb"/>
  <outline>
    <contour>
      <point x="190" y="-400" type="line"/>
      <point x="350" y="-400" type="line"/>
      <point x="350" y="168" type="line"/>
      <point x="358" y="168" type="line"/>
      <point x="424" y="42"/>
      <point x="532" y="-24"/>
      <point x="676" y="-24" type="curve" smooth="yes"/>
      <point x="928" y="-24"/>
      <point x="1080" y="178"/>
      <point x="1080" y="516" type="curve" smooth="yes"/>
      <point x="1080" y="854"/>
      <point x="928" y="1056"/>
      <point x="676" y="1056" type="curve" smooth="yes"/>
      <point x="532" y="1056"/>
      <point x="424" y="990"/>
      <point x="358" y="864" type="curve"/>
      <point x="350" y="864" type="line"/>
      <point x="350" y="1032" type="line" name="hr01"/>
      <point x="190" y="1032" type="line"/>
    </contour>
    <contour>
      <point x="614" y="118" type="curve" smooth="yes"/>
      <point x="472" y="118"/>
      <point x="350" y="192"/>
      <point x="350" y="330" type="curve"/>
      <point x="350" y="702" type="line"/>
      <point x="350" y="840"/>
      <point x="472" y="914"/>
      <point x="614" y="914" type="curve" smooth="yes" name="hr02"/>
      <point x="800" y="914"/>
      <point x="908" y="790"/>
      <point x="908" y="604" type="curve" smooth="yes"/>
      <point x="908" y="428" type="line" smooth="yes"/>
      <point x="908" y="242"/>
      <point x="800" y="118"/>
    </contour>
  </outline>
</glyph>
<glyph name="r" format="2">
  <advance width="1200" height="1560"/>
  <unicode hex="0072"/>
  <anchor x="536" y="0" name="bottom"/>
  <anchor x="706" y="1032" name="top"/>
  <anchor x="268" y="0" name="b.cedillacomb"/>
  <anchor x="353" y="516" name="m.tildecomb"/>
  <anchor x="268" y="0" name="m.cedillacomb"/>
  <anchor x="353" y="516" name="t.tildecomb"/>
  <outline>
    <contour>
      <point x="154" y="0" type="line"/>
      <point x="1016" y="0" type="line"/>
      <point x="1016" y="136" type="line"/>
      <point x="616" y="136" type="line"/>
      <point x="616" y="582" type="line" smooth="yes"/>
      <point x="616" y="742"/>
      <point x="722" y="872"/>
      <point x="924" y="872" type="curve" smooth="yes"/>
      <point x="1118" y="872" type="line"/>
      <point x="1118" y="1032" type="line"/>
      <point x="974" y="1032" type="line" smooth="yes"/>
      <point x="758" y="1032"/>
      <point x="666" y="908"/>
      <point x="626" y="772" type="curve"/>
      <point x="616" y="772" type="line"/>
      <point x="616" y="1032" type="line"/>
      <point x="154" y="1032" type="line"/>
      <point x="154" y="896" type="line" name="hr01"/>
      <point x="456" y="896" type="line"/>
      <point x="456" y="136" type="line"/>
      <point x="154" y="136" type="line"/>
    </contour>
  </outline>
</glyph>
<glyph name="s" format="1">
  <unicode hex="0073"/>
  <advance width="1200" height="1560"/>
  <outline>
    <contour>
      <point x="612" y="-24" type="curve" smooth="yes" name="hr00"/>
      <point x="876" y="-24"/>
      <point x="1048" y="94"/>
      <point x="1048" y="298" type="curve" smooth="yes"/>
      <point x="1048" y="522"/>
      <point x="842" y="562"/>
      <point x="694" y="584" type="curve" smooth="yes"/>
      <point x="532" y="608" type="line" smooth="yes"/>
      <point x="440" y="622"/>
      <point x="350" y="650"/>
      <point x="350" y="758" type="curve" smooth="yes"/>
      <point x="350" y="864"/>
      <point x="440" y="922"/>
      <point x="602" y="922" type="curve" smooth="yes"/>
      <point x="784" y="922"/>
      <point x="876" y="850"/>
      <point x="924" y="792" type="curve"/>
      <point x="1028" y="890" type="line"/>
      <point x="930" y="994"/>
      <point x="794" y="1056"/>
      <point x="608" y="1056" type="curve" smooth="yes"/>
      <point x="368" y="1056"/>
      <point x="192" y="954"/>
      <point x="192" y="748" type="curve" smooth="yes"/>
      <point x="192" y="524"/>
      <point x="400" y="484"/>
      <point x="546" y="462" type="curve" smooth="yes"/>
      <point x="708" y="438" type="line" smooth="yes"/>
      <point x="802" y="424"/>
      <point x="890" y="396"/>
      <point x="890" y="288" type="curve" smooth="yes"/>
      <point x="890" y="166"/>
      <point x="776" y="110"/>
      <point x="616" y="110" type="curve" smooth="yes"/>
      <point x="452" y="110"/>
      <point x="340" y="168"/>
      <point x="242" y="272" type="curve"/>
      <point x="134" y="178" type="line"/>
      <point x="242" y="56"/>
      <point x="396" y="-24"/>
    </contour>
    <contour>
      <point x="588" y="0" type="move" name="bottom"/>
    </contour>
    <contour>
      <point x="596" y="1032" type="move" name="top"/>
    </contour>
  </outline>
</glyph>
<glyph name="t" format="2">
  <advance width="1200" height="1560"/>
  <unicode hex="0074"/>
  <anchor x="750" y="0" name="bottom"/>
  <anchor x="774" y="1520" name="topright"/>
  <anchor x="375" y="0" name="b.cedillacomb"/>
  <anchor x="387" y="760" name="m.caronslovakcomb"/>
  <outline>
    <contour>
      <point x="1052" y="0" type="line" name="hr00"/>
      <point x="1052" y="136" type="line"/>
      <point x="582" y="136" type="line"/>
      <point x="582" y="896" type="line"/>
      <point x="1052" y="896" type="line"/>
      <point x="1052" y="1032" type="line"/>
      <point x="582" y="1032" type="line"/>
      <point x="582" y="1396" type="line"/>
      <point x="428" y="1396" type="line"/>
      <point x="428" y="1126" type="line" smooth="yes"/>
      <point x="428" y="1056"/>
      <point x="402" y="1032"/>
      <point x="334" y="1032" type="curve" smooth="yes"/>
      <point x="78" y="1032" type="line"/>
      <point x="78" y="896" type="line"/>
      <point x="422" y="896" type="line"/>
      <point x="422" y="236" type="line" smooth="yes"/>
      <point x="422" y="98"/>
      <point x="494" y="0"/>
      <point x="650" y="0" type="curve" smooth="yes"/>
    </contour>
  </outline>
</glyph>
<glyph name="u" format="1">
  <unicode hex="0075"/>
  <advance width="1200" height="1560"/>
  <outline>
    <contour>
      <point x="844" y="0" type="line"/>
      <point x="1004" y="0" type="line"/>
      <point x="1004" y="1032" type="line"/>
      <point x="844" y="1032" type="line"/>
      <point x="844" y="316" type="line"/>
      <point x="844" y="180"/>
      <point x="716" y="118"/>
      <point x="588" y="118" type="curve" smooth="yes" name="hr01"/>
      <point x="430" y="118"/>
      <point x="344" y="210"/>
      <point x="344" y="398" type="curve" smooth="yes"/>
      <point x="344" y="1032" type="line"/>
      <point x="184" y="1032" type="line"/>
      <point x="184" y="370" type="line" smooth="yes"/>
      <point x="184" y="120"/>
      <point x="326" y="-24"/>
      <point x="542" y="-24" type="curve" smooth="yes"/>
      <point x="712" y="-24"/>
      <point x="792" y="66"/>
      <point x="836" y="168" type="curve" name="hr02"/>
      <point x="844" y="168" type="line"/>
    </contour>
    <contour>
      <point x="594" y="0" type="move" name="bottom"/>
    </contour>
    <contour>
      <point x="1004" y="0" type="move" name="bottomright"/>
    </contour>
    <contour>
      <point x="594" y="1032" type="move" name="top"/>
    </contour>
  </outline>
</glyph>
<glyph name="v" format="1">
  <unicode hex="0076"/>
  <advance width="1200" height="1560"/>
  <outline>
    <contour>
      <point x="702" y="0" type="line" name="hr00"/>
      <point x="1072" y="1032" type="line"/>
      <point x="914" y="1032" type="line"/>
      <point x="766" y="600" type="line"/>
      <point x="606" y="134" type="line"/>
      <point x="598" y="134" type="line"/>
      <point x="438" y="600" type="line"/>
      <point x="290" y="1032" type="line"/>
      <point x="128" y="1032" type="line"/>
      <point x="498" y="0" type="line"/>
    </contour>
    <contour>
      <point x="600" y="0" type="move" name="bottom"/>
    </contour>
    <contour>
      <point x="600" y="1032" type="move" name="top"/>
    </contour>
  </outline>
</glyph>
<glyph name="w" format="2">
  <advance width="1200" height="1560"/>
  <unicode hex="0077"/>
  <anchor x="600" y="0" name="bottom"/>
  <anchor x="600" y="1032" name="top"/>
  <anchor x="300" y="0" name="b.cedillacomb"/>
  <anchor x="300" y="516" name="m.tildecomb"/>
  <anchor x="300" y="0" name="m.cedillacomb"/>
  <anchor x="300" y="516" name="t.tildecomb"/>
  <outline>
    <contour>
      <point x="218" y="0" type="line" name="hr00"/>
      <point x="426" y="0" type="line"/>
      <point x="594" y="864" type="line"/>
      <point x="610" y="864" type="line"/>
      <point x="774" y="0" type="line"/>
      <point x="982" y="0" type="line"/>
      <point x="1140" y="1032" type="line"/>
      <point x="1002" y="1032" type="line"/>
      <point x="884" y="140" type="line"/>
      <point x="866" y="140" type="line"/>
      <point x="690" y="1032" type="line"/>
      <point x="514" y="1032" type="line"/>
      <point x="338" y="140" type="line"/>
      <point x="320" y="140" type="line"/>
      <point x="202" y="1032" type="line"/>
      <point x="60" y="1032" type="line"/>
    </contour>
  </outline>
</glyph>
<glyph name="x" format="2">
  <advance width="1200" height="1560"/>
  <unicode hex="0078"/>
  <anchor x="600" y="0" name="bottom"/>
  <anchor x="600" y="1032" name="top"/>
  <anchor x="300" y="0" name="b.cedillacomb"/>
  <anchor x="300" y="516" name="m.tildecomb"/>
  <outline>
    <contour>
      <point x="306" y="0" type="line" name="hr00"/>
      <point x="474" y="242" type="line"/>
      <point x="588" y="406" type="line"/>
      <point x="596" y="406" type="line"/>
      <point x="714" y="242" type="line"/>
      <point x="888" y="0" type="line"/>
      <point x="1080" y="0" type="line"/>
      <point x="692" y="526" type="line"/>
      <point x="1070" y="1032" type="line"/>
      <point x="886" y="1032" type="line"/>
      <point x="732" y="814" type="line"/>
      <point x="612" y="642" type="line"/>
      <point x="604" y="642" type="line"/>
      <point x="480" y="814" type="line"/>
      <point x="324" y="1032" type="line"/>
      <point x="132" y="1032" type="line"/>
      <point x="506" y="524" type="line"/>
      <point x="122" y="0" type="line"/>
    </contour>
  </outline>
</glyph>
<glyph name="y" format="2">
  <advance width="1200" height="1560"/>
  <unicode hex="0079"/>
  <anchor x="920" y="0" name="bottom"/>
  <anchor x="600" y="1032" name="top"/>
  <anchor x="460" y="0" name="b.cedillacomb"/>
  <anchor x="300" y="516" name="m.tildecomb"/>
  <anchor x="460" y="0" name="m.cedillacomb"/>
  <anchor x="300" y="516" name="t.tildecomb"/>
  <outline>
    <contour>
      <point x="760" y="600" type="line" name="hr00"/>
      <point x="606" y="208" type="line"/>
      <point x="598" y="208" type="line"/>
      <point x="444" y="600" type="line"/>
      <point x="270" y="1032" type="line"/>
      <point x="106" y="1032" type="line"/>
      <point x="522" y="20" type="line"/>
      <point x="406" y="-264" type="line"/>
      <point x="166" y="-264" type="line"/>
      <point x="166" y="-400" type="line"/>
      <point x="318" y="-400" type="line" smooth="yes"/>
      <point x="474" y="-400"/>
      <point x="534" y="-344"/>
      <point x="582" y="-226" type="curve" smooth="yes"/>
      <point x="1094" y="1032" type="line"/>
      <point x="934" y="1032" type="line"/>
    </contour>
  </outline>
</glyph>
<glyph name="z" format="1">
  <unicode hex="007A"/>
  <advance width="1200" height="1560"/>
  <outline>
    <contour>
      <point x="1030" y="0" type="line" name="hr00"/>
      <point x="1030" y="136" type="line"/>
      <point x="344" y="136" type="line"/>
      <point x="1010" y="878" type="line"/>
      <point x="1010" y="1032" type="line"/>
      <point x="192" y="1032" type="line"/>
      <point x="192" y="896" type="line"/>
      <point x="836" y="896" type="line"/>
      <point x="170" y="154" type="line"/>
      <point x="170" y="0" type="line"/>
    </contour>
    <contour>
      <point x="600" y="0" type="move" name="bottom"/>
    </contour>
    <contour>
      <point x="600" y="1032" type="move" name="top"/>
    </contour>
  </outline>
</glyph>
<glyph name="braceleft" format="2">
  <advance width="1200" height="1560"/>
  <unicode hex="007B"/>
  <outline>
    <contour>
      <point x="990" y="-276" type="line" name="hr00"/>
      <point x="990" y="-152" type="line"/>
      <point x="608" y="-152" type="line"/>
      <point x="608" y="2" type="line" smooth="yes"/>
      <point x="608" y="112"/>
      <point x="646" y="158"/>
      <point x="688" y="214" type="curve" smooth="yes"/>
      <point x="732" y="272"/>
      <point x="782" y="332"/>
      <point x="782" y="416" type="curve" smooth="yes"/>
      <point x="782" y="526"/>
      <point x="696" y="600"/>
      <point x="562" y="618" type="curve"/>
      <point x="562" y="626" type="line"/>
      <point x="696" y="644"/>
      <point x="782" y="718"/>
      <point x="782" y="828" type="curve" smooth="yes"/>
      <point x="782" y="912"/>
      <point x="732" y="972"/>
      <point x="688" y="1030" type="curve" smooth="yes"/>
      <point x="646" y="1086"/>
      <point x="608" y="1132"/>
      <point x="608" y="1242" type="curve" smooth="yes"/>
      <point x="608" y="1396" type="line"/>
      <point x="990" y="1396" type="line"/>
      <point x="990" y="1520" type="line"/>
      <point x="638" y="1520" type="line" smooth="yes"/>
      <point x="528" y="1520"/>
      <point x="470" y="1448"/>
      <point x="470" y="1356" type="curve" smooth="yes"/>
      <point x="470" y="1230" type="line" smooth="yes"/>
      <point x="470" y="1086"/>
      <point x="534" y="1020"/>
      <point x="582" y="960" type="curve" smooth="yes"/>
      <point x="626" y="906"/>
      <point x="642" y="872"/>
      <point x="642" y="830" type="curve" smooth="yes"/>
      <point x="642" y="730"/>
      <point x="546" y="684"/>
      <point x="366" y="684" type="curve" smooth="yes"/>
      <point x="210" y="684" type="line"/>
      <point x="210" y="560" type="line"/>
      <point x="366" y="560" type="line" smooth="yes"/>
      <point x="546" y="560"/>
      <point x="642" y="514"/>
      <point x="642" y="414" type="curve" smooth="yes"/>
      <point x="642" y="372"/>
      <point x="626" y="338"/>
      <point x="582" y="284" type="curve" smooth="yes"/>
      <point x="534" y="224"/>
      <point x="470" y="158"/>
      <point x="470" y="14" type="curve" smooth="yes"/>
      <point x="470" y="-112" type="line" smooth="yes"/>
      <point x="470" y="-204"/>
      <point x="528" y="-276"/>
      <point x="638" y="-276" type="curve" smooth="yes"/>
    </contour>
  </outline>
</glyph>
<glyph name="bar" format="2">
  <advance width="1200" height="1560"/>
  <unicode hex="007C"/>
  <outline>
    <contour>
      <point x="670" y="-276" type="line" name="hr00"/>
      <point x="670" y="1520" type="line"/>
      <point x="530" y="1520" type="line"/>
      <point x="530" y="-276" type="line"/>
    </contour>
  </outline>
</glyph>
<glyph name="asciitilde" format="2">
  <advance width="1200" height="1560"/>
  <unicode hex="007E"/>
  <outline>
    <contour>
      <point x="816" y="474" type="curve" smooth="yes" name="hr00"/>
      <point x="964" y="474"/>
      <point x="1060" y="570"/>
      <point x="1096" y="696" type="curve"/>
      <point x="974" y="746" type="line"/>
      <point x="940" y="666"/>
      <point x="896" y="608"/>
      <point x="818" y="608" type="curve" smooth="yes"/>
      <point x="752" y="608"/>
      <point x="680" y="648"/>
      <point x="610" y="682" type="curve" smooth="yes"/>
      <point x="540" y="716"/>
      <point x="466" y="746"/>
      <point x="384" y="746" type="curve" smooth="yes"/>
      <point x="236" y="746"/>
      <point x="140" y="650"/>
      <point x="104" y="524" type="curve"/>
      <point x="226" y="474" type="line"/>
      <point x="260" y="554"/>
      <point x="304" y="612"/>
      <point x="382" y="612" type="curve" smooth="yes"/>
      <point x="448" y="612"/>
      <point x="520" y="572"/>
      <point x="590" y="538" type="curve" smooth="yes"/>
      <point x="660" y="504"/>
      <point x="734" y="474"/>
    </contour>
  </outline>
</glyph>
<glyph name="exclamdown" format="2">
  <advance width="1200" height="1560"/>
  <unicode hex="00A1"/>
  <outline>
    <contour>
      <point x="688" y="-364" type="line"/>
      <point x="688" y="42" type="line"/>
      <point x="632" y="566" type="line"/>
      <point x="568" y="566" type="line"/>
      <point x="512" y="42" type="line"/>
      <point x="512" y="-364" type="line"/>
    </contour>
    <contour>
      <point x="600" y="774" type="curve" smooth="yes"/>
      <point x="708" y="774"/>
      <point x="748" y="826"/>
      <point x="748" y="894" type="curve" smooth="yes" name="hr01"/>
      <point x="748" y="930" type="line" smooth="yes"/>
      <point x="748" y="998"/>
      <point x="708" y="1050"/>
      <point x="600" y="1050" type="curve" smooth="yes"/>
      <point x="492" y="1050"/>
      <point x="452" y="998"/>
      <point x="452" y="930" type="curve" smooth="yes"/>
      <point x="452" y="894" type="line" smooth="yes"/>
      <point x="452" y="826"/>
      <point x="492" y="774"/>
    </contour>
  </outline>
</glyph>
<glyph name="cent" format="2">
  <advance width="1200" height="1560"/>
  <unicode hex="00A2"/>
  <outline>
    <contour>
      <point x="682" y="-228" type="line" name="hr00"/>
      <point x="682" y="-22" type="line"/>
      <point x="862" y="-8"/>
      <point x="976" y="88"/>
      <point x="1032" y="216" type="curve"/>
      <point x="918" y="294" type="line"/>
      <point x="872" y="194"/>
      <point x="794" y="128"/>
      <point x="680" y="116" type="curve"/>
      <point x="680" y="916" type="line"/>
      <point x="784" y="902"/>
      <point x="854" y="842"/>
      <point x="888" y="750" type="curve"/>
      <point x="1016" y="818" type="line"/>
      <point x="962" y="946"/>
      <point x="854" y="1040"/>
      <point x="682" y="1054" type="curve"/>
      <point x="682" y="1260" type="line"/>
      <point x="558" y="1260" type="line"/>
      <point x="558" y="1050" type="line"/>
      <point x="312" y="1016"/>
      <point x="168" y="814"/>
      <point x="168" y="516" type="curve" smooth="yes"/>
      <point x="168" y="220"/>
      <point x="310" y="16"/>
      <point x="558" y="-18" type="curve"/>
      <point x="558" y="-228" type="line"/>
    </contour>
    <contour>
      <point x="340" y="428" type="curve" smooth="yes"/>
      <point x="340" y="604" type="line" smooth="yes"/>
      <point x="340" y="760"/>
      <point x="418" y="880"/>
      <point x="560" y="910" type="curve"/>
      <point x="560" y="122" type="line"/>
      <point x="416" y="152"/>
      <point x="340" y="272"/>
    </contour>
  </outline>
</glyph>
<glyph name="sterling" format="2">
  <advance width="1200" height="1560"/>
  <unicode hex="00A3"/>
  <outline>
    <contour>
      <point x="1076" y="0" type="line"/>
      <point x="1076" y="160" type="line"/>
      <point x="308" y="160" type="line"/>
      <point x="308" y="170" type="line"/>
      <point x="384" y="220"/>
      <point x="472" y="330"/>
      <point x="472" y="494" type="curve" smooth="yes"/>
      <point x="472" y="522"/>
      <point x="470" y="546"/>
      <point x="466" y="572" type="curve"/>
      <point x="830" y="572" type="line"/>
      <point x="830" y="710" type="line"/>
      <point x="428" y="710" type="line"/>
      <point x="400" y="794"/>
      <point x="368" y="880"/>
      <point x="368" y="988" type="curve" smooth="yes"/>
      <point x="368" y="1192"/>
      <point x="480" y="1274"/>
      <point x="654" y="1274" type="curve" smooth="yes"/>
      <point x="806" y="1274"/>
      <point x="900" y="1210"/>
      <point x="974" y="1102" type="curve"/>
      <point x="1100" y="1192" type="line"/>
      <point x="1012" y="1328"/>
      <point x="876" y="1420"/>
      <point x="664" y="1420" type="curve" smooth="yes"/>
      <point x="374" y="1420"/>
      <point x="196" y="1246"/>
      <point x="196" y="998" type="curve" smooth="yes"/>
      <point x="196" y="888"/>
      <point x="230" y="800"/>
      <point x="260" y="710" type="curve"/>
      <point x="104" y="710" type="line"/>
      <point x="104" y="572" type="line"/>
      <point x="298" y="572" type="line"/>
      <point x="304" y="540"/>
      <point x="308" y="508"/>
      <point x="308" y="474" type="curve" smooth="yes"/>
      <point x="308" y="350"/>
      <point x="262" y="256"/>
      <point x="150" y="210" type="curve"/>
      <point x="150" y="0" type="line"/>
    </contour>
  </outline>
</glyph>
<glyph name="yen" format="1">
  <unicode hex="00A5"/>
  <advance width="1200" height="1560"/>
  <outline>
    <contour>
      <point x="150" y="0" type="line" name="hr00"/>
      <point x="1050" y="0" type="line"/>
      <point x="1050" y="138" type="line"/>
      <point x="680" y="138" type="line"/>
      <point x="680" y="510" type="line"/>
      <point x="1050" y="510" type="line"/>
      <point x="1050" y="648" type="line"/>
      <point x="768" y="648" type="line"/>
      <point x="1156" y="1396" type="line"/>
      <point x="974" y="1396" type="line"/>
      <point x="606" y="648" type="line"/>
      <point x="598" y="648" type="line"/>
      <point x="230" y="1396" type="line"/>
      <point x="44" y="1396" type="line"/>
      <point x="432" y="648" type="line"/>
      <point x="150" y="648" type="line"/>
      <point x="150" y="510" type="line"/>
      <point x="520" y="510" type="line"/>
      <point x="520" y="138" type="line"/>
      <point x="150" y="138" type="line"/>
    </contour>
  </outline>
</glyph>
<glyph name="section" format="2">
  <advance width="1200" height="1560"/>
  <unicode hex="00A7"/>
  <outline>
    <contour>
      <point x="974" y="6" type="curve" smooth="yes"/>
      <point x="974" y="112"/>
      <point x="926" y="206"/>
      <point x="822" y="270" type="curve"/>
      <point x="822" y="280" type="line"/>
      <point x="964" y="336"/>
      <point x="1046" y="438"/>
      <point x="1046" y="566" type="curve" smooth="yes" name="hr01"/>
      <point x="1046" y="702"/>
      <point x="952" y="814"/>
      <point x="732" y="876" type="curve" smooth="yes"/>
      <point x="604" y="912" type="line" smooth="yes"/>
      <point x="470" y="950"/>
      <point x="392" y="1006"/>
      <point x="392" y="1106" type="curve" smooth="yes"/>
      <point x="392" y="1214"/>
      <point x="482" y="1282"/>
      <point x="634" y="1282" type="curve" smooth="yes"/>
      <point x="736" y="1282"/>
      <point x="818" y="1250"/>
      <point x="882" y="1196" type="curve"/>
      <point x="976" y="1308" type="line"/>
      <point x="882" y="1388"/>
      <point x="758" y="1420"/>
      <point x="636" y="1420" type="curve" smooth="yes"/>
      <point x="396" y="1420"/>
      <point x="234" y="1296"/>
      <point x="234" y="1104" type="curve" smooth="yes"/>
      <point x="234" y="998"/>
      <point x="282" y="904"/>
      <point x="386" y="840" type="curve"/>
      <point x="386" y="830" type="line"/>
      <point x="244" y="774"/>
      <point x="162" y="672"/>
      <point x="162" y="544" type="curve" smooth="yes" name="hr02"/>
      <point x="162" y="408"/>
      <point x="256" y="296"/>
      <point x="476" y="234" type="curve" smooth="yes"/>
      <point x="604" y="198" type="line" smooth="yes"/>
      <point x="738" y="160"/>
      <point x="816" y="104"/>
      <point x="816" y="4" type="curve" smooth="yes"/>
      <point x="816" y="-104"/>
      <point x="726" y="-172"/>
      <point x="574" y="-172" type="curve" smooth="yes"/>
      <point x="472" y="-172"/>
      <point x="390" y="-140"/>
      <point x="326" y="-86" type="curve"/>
      <point x="232" y="-198" type="line"/>
      <point x="326" y="-278"/>
      <point x="450" y="-310"/>
      <point x="572" y="-310" type="curve" smooth="yes"/>
      <point x="812" y="-310"/>
      <point x="974" y="-186"/>
    </contour>
    <contour>
      <point x="888" y="526" type="curve" smooth="yes" name="hr03"/>
      <point x="888" y="432"/>
      <point x="836" y="360"/>
      <point x="754" y="304" type="curve"/>
      <point x="734" y="312"/>
      <point x="710" y="320"/>
      <point x="686" y="326" type="curve" smooth="yes"/>
      <point x="560" y="360" type="line" smooth="yes"/>
      <point x="396" y="404"/>
      <point x="320" y="470"/>
      <point x="320" y="584" type="curve" smooth="yes"/>
      <point x="320" y="678"/>
      <point x="372" y="750"/>
      <point x="454" y="806" type="curve"/>
      <point x="474" y="798"/>
      <point x="498" y="790"/>
      <point x="522" y="784" type="curve" smooth="yes"/>
      <point x="648" y="750" type="line" smooth="yes"/>
      <point x="812" y="706"/>
      <point x="888" y="640"/>
    </contour>
  </outline>
</glyph>
<glyph name="dieresis" format="1">
  <unicode hex="00A8"/>
  <advance width="1200" height="1560"/>
  <outline>
    <contour>
      <point x="414" y="1236" type="curve" smooth="yes" name="hr00"/>
      <point x="496" y="1236"/>
      <point x="528" y="1276"/>
      <point x="528" y="1328" type="curve" smooth="yes"/>
      <point x="528" y="1356" type="line" smooth="yes"/>
      <point x="528" y="1408"/>
      <point x="496" y="1448"/>
      <point x="414" y="1448" type="curve" smooth="yes"/>
      <point x="332" y="1448"/>
      <point x="300" y="1408"/>
      <point x="300" y="1356" type="curve" smooth="yes"/>
      <point x="300" y="1328" type="line" smooth="yes"/>
      <point x="300" y="1276"/>
      <point x="332" y="1236"/>
    </contour>
    <contour>
      <point x="786" y="1236" type="curve" smooth="yes"/>
      <point x="868" y="1236"/>
      <point x="900" y="1276"/>
      <point x="900" y="1328" type="curve" smooth="yes"/>
      <point x="900" y="1356" type="line" smooth="yes"/>
      <point x="900" y="1408"/>
      <point x="868" y="1448"/>
      <point x="786" y="1448" type="curve" smooth="yes"/>
      <point x="704" y="1448"/>
      <point x="672" y="1408"/>
      <point x="672" y="1356" type="curve" smooth="yes"/>
      <point x="672" y="1328" type="line" smooth="yes"/>
      <point x="672" y="1276"/>
      <point x="704" y="1236"/>
    </contour>
    <contour>
      <point x="600" y="1032" type="move" name="_top"/>
    </contour>
  </outline>
</glyph>
<glyph name="copyright" format="2">
  <advance width="1200" height="1560"/>
  <unicode hex="00A9"/>
  <outline>
    <contour>
      <point x="600" y="36" type="curve" smooth="yes" name="hr00"/>
      <point x="934" y="36"/>
      <point x="1200" y="290"/>
      <point x="1200" y="698" type="curve" smooth="yes"/>
      <point x="1200" y="1106"/>
      <point x="934" y="1360"/>
      <point x="600" y="1360" type="curve" smooth="yes"/>
      <point x="266" y="1360"/>
      <point x="0" y="1106"/>
      <point x="0" y="698" type="curve" smooth="yes"/>
      <point x="0" y="290"/>
      <point x="266" y="36"/>
    </contour>
    <contour>
      <point x="600" y="146" type="curve" smooth="yes"/>
      <point x="326" y="146"/>
      <point x="126" y="364"/>
      <point x="126" y="638" type="curve" smooth="yes"/>
      <point x="126" y="758" type="line" smooth="yes"/>
      <point x="126" y="1032"/>
      <point x="326" y="1250"/>
      <point x="600" y="1250" type="curve" smooth="yes"/>
      <point x="874" y="1250"/>
      <point x="1074" y="1032"/>
      <point x="1074" y="758" type="curve" smooth="yes"/>
      <point x="1074" y="638" type="line" smooth="yes"/>
      <point x="1074" y="364"/>
      <point x="874" y="146"/>
    </contour>
    <contour>
      <point x="610" y="342" type="curve" smooth="yes"/>
      <point x="740" y="342"/>
      <point x="828" y="410"/>
      <point x="872" y="504" type="curve"/>
      <point x="772" y="566" type="line"/>
      <point x="736" y="500"/>
      <point x="692" y="456"/>
      <point x="612" y="456" type="curve" smooth="yes"/>
      <point x="504" y="456"/>
      <point x="446" y="532"/>
      <point x="446" y="642" type="curve" smooth="yes"/>
      <point x="446" y="756" type="line" smooth="yes"/>
      <point x="446" y="864"/>
      <point x="506" y="940"/>
      <point x="610" y="940" type="curve" smooth="yes"/>
      <point x="684" y="940"/>
      <point x="728" y="900"/>
      <point x="756" y="836" type="curve"/>
      <point x="862" y="894" type="line"/>
      <point x="818" y="990"/>
      <point x="736" y="1054"/>
      <point x="610" y="1054" type="curve" smooth="yes"/>
      <point x="418" y="1054"/>
      <point x="302" y="916"/>
      <point x="302" y="698" type="curve" smooth="yes"/>
      <point x="302" y="482"/>
      <point x="416" y="342"/>
    </contour>
  </outline>
</glyph>
<glyph name="ordfeminine" format="1">
  <unicode hex="00AA"/>
  <advance width="1200" height="1560"/>
  <outline>
    <contour>
      <point x="926" y="714" type="line"/>
      <point x="926" y="826" type="line"/>
      <point x="850" y="826" type="line"/>
      <point x="850" y="1166" type="line" smooth="yes"/>
      <point x="850" y="1328"/>
      <point x="746" y="1420"/>
      <point x="576" y="1420" type="curve" smooth="yes"/>
      <point x="428" y="1420"/>
      <point x="340" y="1348"/>
      <point x="300" y="1280" type="curve"/>
      <point x="384" y="1212" type="line"/>
      <point x="414" y="1272"/>
      <point x="478" y="1316"/>
      <point x="570" y="1316" type="curve" smooth="yes"/>
      <point x="670" y="1316"/>
      <point x="724" y="1266"/>
      <point x="724" y="1160" type="curve" smooth="yes"/>
      <point x="724" y="1104" type="line"/>
      <point x="578" y="1104" type="line" smooth="yes"/>
      <point x="386" y="1104"/>
      <point x="276" y="1038"/>
      <point x="276" y="896" type="curve" smooth="yes"/>
      <point x="276" y="778"/>
      <point x="354" y="698"/>
      <point x="498" y="698" type="curve" smooth="yes" name="hr01"/>
      <point x="622" y="698"/>
      <point x="694" y="758"/>
      <point x="724" y="820" type="curve"/>
      <point x="732" y="820" type="line"/>
      <point x="736" y="754"/>
      <point x="770" y="714"/>
      <point x="858" y="714" type="curve" smooth="yes" name="hr02"/>
    </contour>
    <contour>
      <point x="724" y="1012" type="line"/>
      <point x="724" y="930" type="line" smooth="yes"/>
      <point x="724" y="850"/>
      <point x="630" y="800"/>
      <point x="524" y="800" type="curve" smooth="yes" name="hr03"/>
      <point x="444" y="800"/>
      <point x="402" y="830"/>
      <point x="402" y="898" type="curve" smooth="yes"/>
      <point x="402" y="918" type="line" smooth="yes"/>
      <point x="402" y="980"/>
      <point x="464" y="1012"/>
      <point x="574" y="1012" type="curve" smooth="yes"/>
    </contour>
  </outline>
</glyph>
<glyph name="logicalnot" format="1">
  <unicode hex="00AC"/>
  <advance width="1200" height="1560"/>
  <outline>
    <contour>
      <point x="1044" y="156" type="line" name="hr00"/>
      <point x="1044" y="678" type="line"/>
      <point x="124" y="678" type="line"/>
      <point x="124" y="542" type="line"/>
      <point x="906" y="542" type="line"/>
      <point x="906" y="156" type="line"/>
    </contour>
  </outline>
</glyph>
<glyph name="registered" format="1">
  <unicode hex="00AE"/>
  <advance width="1200" height="1560"/>
  <outline>
    <contour>
      <point x="600" y="692" type="curve" smooth="yes" name="hr00"/>
      <point x="804" y="692"/>
      <point x="966" y="848"/>
      <point x="966" y="1056" type="curve" smooth="yes"/>
      <point x="966" y="1264"/>
      <point x="804" y="1420"/>
      <point x="600" y="1420" type="curve" smooth="yes"/>
      <point x="396" y="1420"/>
      <point x="234" y="1264"/>
      <point x="234" y="1056" type="curve" smooth="yes"/>
      <point x="234" y="848"/>
      <point x="396" y="692"/>
    </contour>
    <contour>
      <point x="600" y="774" type="curve" smooth="yes"/>
      <point x="446" y="774"/>
      <point x="330" y="878"/>
      <point x="330" y="1036" type="curve" smooth="yes"/>
      <point x="330" y="1076" type="line" smooth="yes"/>
      <point x="330" y="1234"/>
      <point x="446" y="1338"/>
      <point x="600" y="1338" type="curve" smooth="yes"/>
      <point x="754" y="1338"/>
      <point x="870" y="1234"/>
      <point x="870" y="1076" type="curve" smooth="yes"/>
      <point x="870" y="1036" type="line" smooth="yes"/>
      <point x="870" y="878"/>
      <point x="754" y="774"/>
    </contour>
    <contour>
      <point x="540" y="1012" type="line"/>
      <point x="598" y="1012" type="line"/>
      <point x="676" y="872" type="line"/>
      <point x="766" y="872" type="line"/>
      <point x="674" y="1024" type="line"/>
      <point x="720" y="1040"/>
      <point x="748" y="1078"/>
      <point x="748" y="1128" type="curve" smooth="yes"/>
      <point x="748" y="1198"/>
      <point x="704" y="1242"/>
      <point x="630" y="1242" type="curve" smooth="yes"/>
      <point x="460" y="1242" type="line"/>
      <point x="460" y="872" type="line"/>
      <point x="540" y="872" type="line"/>
    </contour>
    <contour>
      <point x="540" y="1070" type="line"/>
      <point x="540" y="1180" type="line"/>
      <point x="612" y="1180" type="line" smooth="yes"/>
      <point x="644" y="1180"/>
      <point x="664" y="1162"/>
      <point x="664" y="1132" type="curve" smooth="yes"/>
      <point x="664" y="1118" type="line" smooth="yes"/>
      <point x="664" y="1088"/>
      <point x="644" y="1070"/>
      <point x="612" y="1070" type="curve" smooth="yes"/>
    </contour>
  </outline>
</glyph>
<glyph name="macron" format="2">
  <advance width="1200" height="1560"/>
  <unicode hex="00AF"/>
  <anchor x="600" y="1032" name="_top"/>
  <outline>
    <contour>
      <point x="320" y="1274" type="line" name="hr00"/>
      <point x="880" y="1274" type="line"/>
      <point x="880" y="1410" type="line"/>
      <point x="320" y="1410" type="line"/>
    </contour>
  </outline>
</glyph>
<glyph name="degree" format="2">
  <advance width="1200" height="1560"/>
  <unicode hex="00B0"/>
  <outline>
    <contour>
      <point x="600" y="736" type="curve" smooth="yes" name="hr00"/>
      <point x="792" y="736"/>
      <point x="942" y="884"/>
      <point x="942" y="1078" type="curve" smooth="yes"/>
      <point x="942" y="1272"/>
      <point x="792" y="1420"/>
      <point x="600" y="1420" type="curve" smooth="yes"/>
      <point x="408" y="1420"/>
      <point x="258" y="1272"/>
      <point x="258" y="1078" type="curve" smooth="yes"/>
      <point x="258" y="884"/>
      <point x="408" y="736"/>
    </contour>
    <contour>
      <point x="600" y="864" type="curve" smooth="yes"/>
      <point x="478" y="864"/>
      <point x="398" y="958"/>
      <point x="398" y="1078" type="curve" smooth="yes"/>
      <point x="398" y="1198"/>
      <point x="478" y="1292"/>
      <point x="600" y="1292" type="curve" smooth="yes"/>
      <point x="722" y="1292"/>
      <point x="802" y="1198"/>
      <point x="802" y="1078" type="curve" smooth="yes"/>
      <point x="802" y="958"/>
      <point x="722" y="864"/>
    </contour>
  </outline>
</glyph>
<glyph name="plusminus" format="2">
  <advance width="1200" height="1560"/>
  <unicode hex="00B1"/>
  <outline>
    <contour>
      <point x="676" y="304" type="line" name="hr00"/>
      <point x="676" y="702" type="line"/>
      <point x="1076" y="702" type="line"/>
      <point x="1076" y="838" type="line"/>
      <point x="676" y="838" type="line"/>
      <point x="676" y="1236" type="line"/>
      <point x="524" y="1236" type="line"/>
      <point x="524" y="838" type="line"/>
      <point x="124" y="838" type="line"/>
      <point x="124" y="702" type="line"/>
      <point x="524" y="702" type="line"/>
      <point x="524" y="304" type="line"/>
    </contour>
    <contour>
      <point x="1076" y="0" type="line"/>
      <point x="1076" y="136" type="line"/>
      <point x="124" y="136" type="line"/>
      <point x="124" y="0" type="line"/>
    </contour>
  </outline>
</glyph>
<glyph name="twosuperior" format="2">
  <advance width="1200" height="1560"/>
  <unicode hex="00B2"/>
  <outline>
    <contour>
      <point x="876" y="758" type="line" name="hr00"/>
      <point x="466" y="758" type="line"/>
      <point x="660" y="908" type="line" smooth="yes"/>
      <point x="772" y="994"/>
      <point x="850" y="1074"/>
      <point x="850" y="1190" type="curve" smooth="yes"/>
      <point x="850" y="1318"/>
      <point x="758" y="1408"/>
      <point x="594" y="1408" type="curve" smooth="yes"/>
      <point x="434" y="1408"/>
      <point x="354" y="1322"/>
      <point x="322" y="1228" type="curve"/>
      <point x="430" y="1188" type="line"/>
      <point x="452" y="1252"/>
      <point x="494" y="1304"/>
      <point x="586" y="1304" type="curve" smooth="yes"/>
      <point x="670" y="1304"/>
      <point x="716" y="1258"/>
      <point x="716" y="1190" type="curve" smooth="yes"/>
      <point x="716" y="1178" type="line" smooth="yes"/>
      <point x="716" y="1106"/>
      <point x="670" y="1046"/>
      <point x="592" y="982" type="curve" smooth="yes"/>
      <point x="332" y="772" type="line"/>
      <point x="332" y="658" type="line"/>
      <point x="876" y="658" type="line"/>
    </contour>
  </outline>
</glyph>
<glyph name="threesuperior" format="2">
  <advance width="1200" height="1560"/>
  <unicode hex="00B3"/>
  <outline>
    <contour>
      <point x="484" y="1092" type="line"/>
      <point x="484" y="990" type="line"/>
      <point x="574" y="990" type="line" smooth="yes"/>
      <point x="674" y="990"/>
      <point x="728" y="956"/>
      <point x="728" y="880" type="curve" smooth="yes"/>
      <point x="728" y="868" type="line" smooth="yes"/>
      <point x="728" y="792"/>
      <point x="674" y="746"/>
      <point x="574" y="746" type="curve" smooth="yes"/>
      <point x="482" y="746"/>
      <point x="434" y="788"/>
      <point x="396" y="846" type="curve"/>
      <point x="302" y="778" type="line"/>
      <point x="352" y="710"/>
      <point x="428" y="646"/>
      <point x="574" y="646" type="curve" smooth="yes"/>
      <point x="748" y="646"/>
      <point x="860" y="732"/>
      <point x="860" y="862" type="curve" smooth="yes"/>
      <point x="860" y="968"/>
      <point x="782" y="1026"/>
      <point x="692" y="1042" type="curve"/>
      <point x="692" y="1048" type="line"/>
      <point x="776" y="1066"/>
      <point x="848" y="1122"/>
      <point x="848" y="1218" type="curve" smooth="yes" name="hr01"/>
      <point x="848" y="1338"/>
      <point x="738" y="1408"/>
      <point x="588" y="1408" type="curve" smooth="yes"/>
      <point x="456" y="1408"/>
      <point x="378" y="1352"/>
      <point x="332" y="1286" type="curve"/>
      <point x="418" y="1218" type="line"/>
      <point x="454" y="1274"/>
      <point x="506" y="1308"/>
      <point x="584" y="1308" type="curve" smooth="yes"/>
      <point x="664" y="1308"/>
      <point x="714" y="1270"/>
      <point x="714" y="1204" type="curve" smooth="yes"/>
      <point x="714" y="1196" type="line" smooth="yes"/>
      <point x="714" y="1136"/>
      <point x="666" y="1092"/>
      <point x="564" y="1092" type="curve" smooth="yes"/>
    </contour>
  </outline>
</glyph>
<glyph name="acute" format="1">
  <unicode hex="00B4"/>
  <advance width="1200" height="1560"/>
  <outline>
    <contour>
      <point x="826" y="1488" type="line" name="hr00"/>
      <point x="680" y="1558" type="line"/>
      <point x="510" y="1218" type="line"/>
      <point x="614" y="1170" type="line"/>
    </contour>
    <contour>
      <point x="600" y="1032" type="move" name="_top"/>
    </contour>
  </outline>
</glyph>
<glyph name="mu" format="2">
  <advance width="1200" height="1560"/>
  <unicode hex="00B5"/>
  <outline>
    <contour>
      <point x="356" y="-400" type="line"/>
      <point x="356" y="-88" type="line"/>
      <point x="342" y="80" type="line"/>
      <point x="350" y="80" type="line"/>
      <point x="388" y="10"/>
      <point x="454" y="-24"/>
      <point x="556" y="-24" type="curve" smooth="yes"/>
      <point x="716" y="-24"/>
      <point x="790" y="62"/>
      <point x="836" y="168" type="curve"/>
      <point x="844" y="168" type="line"/>
      <point x="844" y="0" type="line" name="hr01"/>
      <point x="1004" y="0" type="line"/>
      <point x="1004" y="1032" type="line"/>
      <point x="844" y="1032" type="line"/>
      <point x="844" y="316" type="line" smooth="yes"/>
      <point x="844" y="180"/>
      <point x="722" y="118"/>
      <point x="594" y="118" type="curve" smooth="yes" name="hr02"/>
      <point x="438" y="118"/>
      <point x="356" y="210"/>
      <point x="356" y="398" type="curve" smooth="yes"/>
      <point x="356" y="1032" type="line"/>
      <point x="196" y="1032" type="line"/>
      <point x="196" y="-400" type="line"/>
    </contour>
  </outline>
</glyph>
<glyph name="paragraph" format="2">
  <advance width="1200" height="1560"/>
  <unicode hex="00B6"/>
  <outline>
    <contour>
      <point x="540" y="-298" type="line" name="hr00"/>
      <point x="684" y="-298" type="line"/>
      <point x="684" y="1268" type="line"/>
      <point x="864" y="1268" type="line"/>
      <point x="864" y="-298" type="line"/>
      <point x="1008" y="-298" type="line"/>
      <point x="1008" y="1396" type="line"/>
      <point x="540" y="1396" type="line" smooth="yes"/>
      <point x="292" y="1396"/>
      <point x="90" y="1206"/>
      <point x="90" y="944" type="curve" smooth="yes"/>
      <point x="90" y="682"/>
      <point x="292" y="492"/>
      <point x="540" y="492" type="curve"/>
    </contour>
  </outline>
</glyph>
<glyph name="periodcentered" format="2">
  <advance width="1200" height="1560"/>
  <unicode hex="00B7"/>
  <outline>
    <contour>
      <point x="600" y="470" type="curve" smooth="yes" name="hr00"/>
      <point x="708" y="470"/>
      <point x="748" y="522"/>
      <point x="748" y="590" type="curve" smooth="yes"/>
      <point x="748" y="626" type="line" smooth="yes"/>
      <point x="748" y="694"/>
      <point x="708" y="746"/>
      <point x="600" y="746" type="curve" smooth="yes"/>
      <point x="492" y="746"/>
      <point x="452" y="694"/>
      <point x="452" y="626" type="curve" smooth="yes"/>
      <point x="452" y="590" type="line" smooth="yes"/>
      <point x="452" y="522"/>
      <point x="492" y="470"/>
    </contour>
  </outline>
</glyph>
<glyph name="cedilla" format="1">
  <unicode hex="00B8"/>
  <advance width="1200" height="1560"/>
  <outline>
    <contour>
      <point x="624" y="-414" type="curve" smooth="yes" name="hr00"/>
      <point x="742" y="-414"/>
      <point x="846" y="-362"/>
      <point x="846" y="-248" type="curve" smooth="yes"/>
      <point x="846" y="-162"/>
      <point x="788" y="-116"/>
      <point x="710" y="-116" type="curve" smooth="yes"/>
      <point x="686" y="-116"/>
      <point x="658" y="-120"/>
      <point x="632" y="-128" type="curve"/>
      <point x="626" y="-122" type="line"/>
      <point x="658" y="40" type="line"/>
      <point x="558" y="40" type="line"/>
      <point x="520" y="-154" type="line"/>
      <point x="576" y="-162" type="line" smooth="yes"/>
      <point x="688" y="-178"/>
      <point x="712" y="-208"/>
      <point x="712" y="-244" type="curve" smooth="yes"/>
      <point x="712" y="-286"/>
      <point x="674" y="-306"/>
      <point x="624" y="-306" type="curve" smooth="yes"/>
      <point x="566" y="-306"/>
      <point x="526" y="-280"/>
      <point x="502" y="-250" type="curve"/>
      <point x="426" y="-332" type="line"/>
      <point x="454" y="-370"/>
      <point x="516" y="-414"/>
    </contour>
    <contour>
      <point x="600" y="0" type="move" name="_bottom"/>
    </contour>
  </outline>
</glyph>
<glyph name="onesuperior" format="2">
  <advance width="1200" height="1560"/>
  <unicode hex="00B9"/>
  <outline>
    <contour>
      <point x="892" y="658" type="line" name="hr00"/>
      <point x="892" y="758" type="line"/>
      <point x="696" y="758" type="line"/>
      <point x="696" y="1396" type="line"/>
      <point x="560" y="1396" type="line"/>
      <point x="308" y="1266" type="line"/>
      <point x="358" y="1178" type="line"/>
      <point x="570" y="1288" type="line"/>
      <point x="570" y="758" type="line"/>
      <point x="352" y="758" type="line"/>
      <point x="352" y="658" type="line"/>
    </contour>
  </outline>
</glyph>
<glyph name="ordmasculine" format="2">
  <advance width="1200" height="1560"/>
  <unicode hex="00BA"/>
  <outline>
    <contour>
      <point x="600" y="698" type="curve" smooth="yes" name="hr00"/>
      <point x="800" y="698"/>
      <point x="920" y="836"/>
      <point x="920" y="1060" type="curve" smooth="yes"/>
      <point x="920" y="1282"/>
      <point x="800" y="1420"/>
      <point x="600" y="1420" type="curve" smooth="yes"/>
      <point x="400" y="1420"/>
      <point x="280" y="1282"/>
      <point x="280" y="1060" type="curve"/>
      <point x="280" y="836"/>
      <point x="398" y="698"/>
    </contour>
    <contour>
      <point x="600" y="804" type="curve" smooth="yes"/>
      <point x="480" y="804"/>
      <point x="418" y="886"/>
      <point x="418" y="1000" type="curve" smooth="yes"/>
      <point x="418" y="1118" type="line" smooth="yes"/>
      <point x="418" y="1232"/>
      <point x="480" y="1314"/>
      <point x="600" y="1314" type="curve" smooth="yes"/>
      <point x="720" y="1314"/>
      <point x="782" y="1232"/>
      <point x="782" y="1118" type="curve" smooth="yes"/>
      <point x="782" y="1000" type="line" smooth="yes"/>
      <point x="782" y="886"/>
      <point x="720" y="804"/>
    </contour>
  </outline>
</glyph>
<glyph name="questiondown" format="2">
  <advance width="1200" height="1560"/>
  <unicode hex="00BF"/>
  <outline>
    <contour>
      <point x="598" y="-388" type="curve" smooth="yes" name="hr00"/>
      <point x="854" y="-388"/>
      <point x="994" y="-240"/>
      <point x="1046" y="-64" type="curve"/>
      <point x="896" y="-8" type="line"/>
      <point x="860" y="-142"/>
      <point x="764" y="-242"/>
      <point x="604" y="-242" type="curve" smooth="yes"/>
      <point x="450" y="-242"/>
      <point x="354" y="-166"/>
      <point x="354" y="-18" type="curve" smooth="yes"/>
      <point x="354" y="10" type="line" smooth="yes"/>
      <point x="354" y="190"/>
      <point x="494" y="278"/>
      <point x="722" y="288" type="curve"/>
      <point x="722" y="602" type="line"/>
      <point x="564" y="602" type="line"/>
      <point x="564" y="400" type="line"/>
      <point x="376" y="366"/>
      <point x="180" y="242"/>
      <point x="180" y="-10" type="curve" smooth="yes"/>
      <point x="180" y="-240"/>
      <point x="344" y="-388"/>
    </contour>
    <contour>
      <point x="636" y="774" type="curve" smooth="yes"/>
      <point x="744" y="774"/>
      <point x="784" y="826"/>
      <point x="784" y="894" type="curve" smooth="yes"/>
      <point x="784" y="930" type="line" smooth="yes"/>
      <point x="784" y="998"/>
      <point x="744" y="1050"/>
      <point x="636" y="1050" type="curve" smooth="yes"/>
      <point x="528" y="1050"/>
      <point x="488" y="998"/>
      <point x="488" y="930" type="curve" smooth="yes"/>
      <point x="488" y="894" type="line" smooth="yes"/>
      <point x="488" y="826"/>
      <point x="528" y="774"/>
    </contour>
  </outline>
</glyph>
<glyph name="AE" format="1">
  <unicode hex="00C6"/>
  <advance width="1200" height="1560"/>
  <outline>
    <contour>
      <point x="624" y="0" type="line" name="hr00"/>
      <point x="1120" y="0" type="line"/>
      <point x="1120" y="138" type="line"/>
      <point x="784" y="138" type="line"/>
      <point x="784" y="638" type="line"/>
      <point x="1096" y="638" type="line"/>
      <point x="1096" y="776" type="line"/>
      <point x="784" y="776" type="line"/>
      <point x="784" y="1258" type="line"/>
      <point x="1120" y="1258" type="line"/>
      <point x="1120" y="1396" type="line"/>
      <point x="452" y="1396" type="line"/>
      <point x="40" y="0" type="line"/>
      <point x="208" y="0" type="line"/>
      <point x="320" y="402" type="line"/>
      <point x="624" y="402" type="line"/>
    </contour>
    <contour>
      <point x="624" y="1276" type="line"/>
      <point x="624" y="540" type="line"/>
      <point x="356" y="540" type="line"/>
      <point x="562" y="1276" type="line"/>
    </contour>
    <contour>
      <point x="786" y="1396" type="move" name="top"/>
    </contour>
  </outline>
</glyph>
<glyph name="Ccedilla" format="1">
  <unicode hex="00C7"/>
  <advance width="1200" height="1560"/>
  <outline>
    <contour>
      <point x="646" y="1274" type="curve" smooth="yes" name="hr00"/>
      <point x="816" y="1274"/>
      <point x="882" y="1172"/>
      <point x="932" y="1048" type="curve"/>
      <point x="1076" y="1114" type="line"/>
      <point x="1008" y="1266"/>
      <point x="902" y="1420"/>
      <point x="646" y="1420" type="curve" smooth="yes"/>
      <point x="306" y="1420"/>
      <point x="140" y="1162"/>
      <point x="140" y="698" type="curve" smooth="yes"/>
      <point x="140" y="272"/>
      <point x="278" y="22"/>
      <point x="562" y="-18" type="curve"/>
      <point x="536" y="-154" type="line"/>
      <point x="592" y="-162" type="line" smooth="yes"/>
      <point x="704" y="-178"/>
      <point x="728" y="-208"/>
      <point x="728" y="-244" type="curve" smooth="yes"/>
      <point x="728" y="-286"/>
      <point x="690" y="-306"/>
      <point x="640" y="-306" type="curve" smooth="yes"/>
      <point x="582" y="-306"/>
      <point x="542" y="-280"/>
      <point x="518" y="-250" type="curve"/>
      <point x="442" y="-332" type="line"/>
      <point x="470" y="-370"/>
      <point x="532" y="-414"/>
      <point x="640" y="-414" type="curve" smooth="yes"/>
      <point x="758" y="-414"/>
      <point x="862" y="-362"/>
      <point x="862" y="-248" type="curve" smooth="yes"/>
      <point x="862" y="-162"/>
      <point x="804" y="-116"/>
      <point x="726" y="-116" type="curve" smooth="yes"/>
      <point x="702" y="-116"/>
      <point x="674" y="-120"/>
      <point x="648" y="-128" type="curve"/>
      <point x="642" y="-122" type="line"/>
      <point x="660" y="-24" type="line"/>
      <point x="906" y="-18"/>
      <point x="1008" y="132"/>
      <point x="1076" y="282" type="curve"/>
      <point x="932" y="348" type="line"/>
      <point x="882" y="224"/>
      <point x="816" y="122"/>
      <point x="646" y="122" type="curve" smooth="yes"/>
      <point x="424" y="122"/>
      <point x="318" y="304"/>
      <point x="318" y="584" type="curve" smooth="yes"/>
      <point x="318" y="812" type="line" smooth="yes"/>
      <point x="318" y="1092"/>
      <point x="424" y="1274"/>
    </contour>
  </outline>
</glyph>
<glyph name="germandbls" format="1">
  <unicode hex="00DF"/>
  <advance width="1200" height="1560"/>
  <outline>
    <contour>
      <point x="364" y="0" type="line" name="hr00"/>
      <point x="364" y="896" type="line"/>
      <point x="904" y="896" type="line"/>
      <point x="552" y="440" type="line"/>
      <point x="552" y="304" type="line"/>
      <point x="584" y="304" type="line" smooth="yes"/>
      <point x="854" y="304"/>
      <point x="974" y="234"/>
      <point x="974" y="56" type="curve" smooth="yes"/>
      <point x="974" y="6" type="line" smooth="yes"/>
      <point x="974" y="-182"/>
      <point x="858" y="-264"/>
      <point x="620" y="-264" type="curve" smooth="yes"/>
      <point x="488" y="-264" type="line"/>
      <point x="488" y="-400" type="line"/>
      <point x="620" y="-400" type="line" smooth="yes"/>
      <point x="940" y="-400"/>
      <point x="1144" y="-250"/>
      <point x="1144" y="28" type="curve" smooth="yes"/>
      <point x="1144" y="280"/>
      <point x="978" y="406"/>
      <point x="704" y="424" type="curve"/>
      <point x="1050" y="874" type="line"/>
      <point x="1050" y="1032" type="line"/>
      <point x="364" y="1032" type="line"/>
      <point x="364" y="1342" type="line"/>
      <point x="706" y="1342" type="line"/>
      <point x="706" y="1480" type="line"/>
      <point x="432" y="1480" type="line" smooth="yes"/>
      <point x="276" y="1480"/>
      <point x="204" y="1382"/>
      <point x="204" y="1244" type="curve" smooth="yes"/>
      <point x="204" y="0" type="line"/>
    </contour>
  </outline>
</glyph>
<glyph name="ae" format="2">
  <advance width="1200" height="1560"/>
  <unicode hex="00E6"/>
  <anchor x="600" y="1032" name="top"/>
  <anchor x="300" y="516" name="m.tildecomb"/>
  <outline>
    <contour>
      <point x="282" y="-24" type="curve" smooth="yes" name="hr00"/>
      <point x="406" y="-24"/>
      <point x="502" y="48"/>
      <point x="538" y="204" type="curve"/>
      <point x="544" y="204" type="line"/>
      <point x="600" y="60"/>
      <point x="700" y="-24"/>
      <point x="836" y="-24" type="curve" smooth="yes"/>
      <point x="1004" y="-24"/>
      <point x="1108" y="106"/>
      <point x="1148" y="228" type="curve"/>
      <point x="1032" y="282" type="line"/>
      <point x="998" y="192"/>
      <point x="944" y="104"/>
      <point x="840" y="104" type="curve" smooth="yes"/>
      <point x="714" y="104"/>
      <point x="648" y="238"/>
      <point x="648" y="426" type="curve" smooth="yes"/>
      <point x="648" y="476" type="line"/>
      <point x="1164" y="476" type="line"/>
      <point x="1164" y="584" type="line" smooth="yes"/>
      <point x="1164" y="894"/>
      <point x="1056" y="1056"/>
      <point x="848" y="1056" type="curve" smooth="yes"/>
      <point x="744" y="1056"/>
      <point x="654" y="1014"/>
      <point x="600" y="900" type="curve"/>
      <point x="594" y="900" type="line"/>
      <point x="548" y="1000"/>
      <point x="466" y="1056"/>
      <point x="346" y="1056" type="curve" smooth="yes"/>
      <point x="186" y="1056"/>
      <point x="86" y="952"/>
      <point x="44" y="844" type="curve"/>
      <point x="150" y="778" type="line"/>
      <point x="188" y="872"/>
      <point x="238" y="936"/>
      <point x="340" y="936" type="curve" smooth="yes"/>
      <point x="442" y="936"/>
      <point x="502" y="874"/>
      <point x="502" y="696" type="curve" smooth="yes"/>
      <point x="502" y="590" type="line"/>
      <point x="376" y="590" type="line" smooth="yes"/>
      <point x="146" y="590"/>
      <point x="20" y="484"/>
      <point x="20" y="276" type="curve" smooth="yes"/>
      <point x="20" y="80"/>
      <point x="132" y="-24"/>
    </contour>
    <contour>
      <point x="310" y="100" type="curve" smooth="yes"/>
      <point x="204" y="100"/>
      <point x="166" y="166"/>
      <point x="166" y="274" type="curve" smooth="yes"/>
      <point x="166" y="304" type="line" smooth="yes"/>
      <point x="166" y="426"/>
      <point x="252" y="476"/>
      <point x="398" y="476" type="curve" smooth="yes"/>
      <point x="502" y="476" type="line"/>
      <point x="502" y="308" type="line" smooth="yes"/>
      <point x="502" y="198"/>
      <point x="440" y="100"/>
    </contour>
    <contour>
      <point x="840" y="940" type="curve" smooth="yes"/>
      <point x="962" y="940"/>
      <point x="1032" y="848"/>
      <point x="1032" y="658" type="curve" smooth="yes"/>
      <point x="1032" y="590" type="line"/>
      <point x="648" y="590" type="line"/>
      <point x="648" y="658" type="line" smooth="yes"/>
      <point x="648" y="848"/>
      <point x="718" y="940"/>
    </contour>
  </outline>
</glyph>
<glyph name="ccedilla" format="2">
  <advance width="1200" height="1560"/>
  <unicode hex="00E7"/>
  <outline>
    <contour>
      <point x="634" y="1056" type="curve" smooth="yes" name="hr00"/>
      <point x="342" y="1056"/>
      <point x="168" y="844"/>
      <point x="168" y="516" type="curve" smooth="yes"/>
      <point x="168" y="222"/>
      <point x="310" y="18"/>
      <point x="554" y="-18" type="curve"/>
      <point x="526" y="-154" type="line"/>
      <point x="582" y="-162" type="line" smooth="yes"/>
      <point x="694" y="-178"/>
      <point x="718" y="-208"/>
      <point x="718" y="-244" type="curve" smooth="yes"/>
      <point x="718" y="-286"/>
      <point x="680" y="-306"/>
      <point x="630" y="-306" type="curve" smooth="yes"/>
      <point x="572" y="-306"/>
      <point x="532" y="-280"/>
      <point x="508" y="-250" type="curve"/>
      <point x="432" y="-332" type="line"/>
      <point x="460" y="-370"/>
      <point x="522" y="-414"/>
      <point x="630" y="-414" type="curve" smooth="yes"/>
      <point x="748" y="-414"/>
      <point x="852" y="-362"/>
      <point x="852" y="-248" type="curve" smooth="yes"/>
      <point x="852" y="-162"/>
      <point x="794" y="-116"/>
      <point x="716" y="-116" type="curve" smooth="yes"/>
      <point x="692" y="-116"/>
      <point x="664" y="-120"/>
      <point x="638" y="-128" type="curve"/>
      <point x="632" y="-122" type="line"/>
      <point x="652" y="-24" type="line"/>
      <point x="850" y="-18"/>
      <point x="972" y="80"/>
      <point x="1032" y="216" type="curve"/>
      <point x="918" y="294" type="line"/>
      <point x="866" y="182"/>
      <point x="776" y="114"/>
      <point x="638" y="114" type="curve" smooth="yes"/>
      <point x="444" y="114"/>
      <point x="340" y="246"/>
      <point x="340" y="428" type="curve" smooth="yes"/>
      <point x="340" y="604" type="line" smooth="yes"/>
      <point x="340" y="786"/>
      <point x="446" y="918"/>
      <point x="634" y="918" type="curve" smooth="yes"/>
      <point x="762" y="918"/>
      <point x="850" y="856"/>
      <point x="888" y="750" type="curve"/>
      <point x="1016" y="818" type="line"/>
      <point x="958" y="958"/>
      <point x="834" y="1056"/>
    </contour>
  </outline>
</glyph>
<glyph name="eth" format="2">
  <advance width="1200" height="1560"/>
  <unicode hex="00F0"/>
  <outline>
    <contour>
      <point x="842" y="1506" type="line" name="hr00"/>
      <point x="654" y="1376" type="line"/>
      <point x="602" y="1418"/>
      <point x="550" y="1452"/>
      <point x="506" y="1480" type="curve"/>
      <point x="254" y="1480" type="line"/>
      <point x="356" y="1424"/>
      <point x="452" y="1364"/>
      <point x="540" y="1294" type="curve"/>
      <point x="356" y="1166" type="line"/>
      <point x="432" y="1076" type="line"/>
      <point x="630" y="1216" type="line"/>
      <point x="742" y="1110"/>
      <point x="832" y="984"/>
      <point x="898" y="820" type="curve"/>
      <point x="890" y="816" type="line"/>
      <point x="826" y="922"/>
      <point x="722" y="1008"/>
      <point x="560" y="1008" type="curve" smooth="yes"/>
      <point x="310" y="1008"/>
      <point x="132" y="806"/>
      <point x="132" y="492" type="curve" smooth="yes"/>
      <point x="132" y="178"/>
      <point x="308" y="-24"/>
      <point x="606" y="-24" type="curve" smooth="yes"/>
      <point x="890" y="-24"/>
      <point x="1068" y="160"/>
      <point x="1068" y="532" type="curve" smooth="yes"/>
      <point x="1068" y="880"/>
      <point x="912" y="1130"/>
      <point x="744" y="1294" type="curve"/>
      <point x="918" y="1416" type="line"/>
    </contour>
    <contour>
      <point x="600" y="114" type="curve" smooth="yes"/>
      <point x="422" y="114"/>
      <point x="302" y="214"/>
      <point x="302" y="422" type="curve" smooth="yes"/>
      <point x="302" y="562" type="line" smooth="yes"/>
      <point x="302" y="770"/>
      <point x="422" y="870"/>
      <point x="600" y="870" type="curve" smooth="yes"/>
      <point x="778" y="870"/>
      <point x="898" y="770"/>
      <point x="898" y="562" type="curve" smooth="yes"/>
      <point x="898" y="422" type="line" smooth="yes"/>
      <point x="898" y="214"/>
      <point x="778" y="114"/>
    </contour>
  </outline>
</glyph>
<glyph name="divide" format="2">
  <advance width="1200" height="1560"/>
  <unicode hex="00F7"/>
  <outline>
    <contour>
      <point x="1076" y="542" type="line" name="hr00"/>
      <point x="1076" y="678" type="line"/>
      <point x="124" y="678" type="line"/>
      <point x="124" y="542" type="line"/>
    </contour>
    <contour>
      <point x="600" y="104" type="curve" smooth="yes"/>
      <point x="692" y="104"/>
      <point x="724" y="146"/>
      <point x="724" y="200" type="curve" smooth="yes"/>
      <point x="724" y="244" type="line" smooth="yes"/>
      <point x="724" y="298"/>
      <point x="692" y="340"/>
      <point x="600" y="340" type="curve" smooth="yes"/>
      <point x="508" y="340"/>
      <point x="476" y="298"/>
      <point x="476" y="244" type="curve" smooth="yes"/>
      <point x="476" y="200" type="line" smooth="yes"/>
      <point x="476" y="146"/>
      <point x="508" y="104"/>
    </contour>
    <contour>
      <point x="600" y="880" type="curve" smooth="yes"/>
      <point x="692" y="880"/>
      <point x="724" y="922"/>
      <point x="724" y="976" type="curve" smooth="yes"/>
      <point x="724" y="1020" type="line" smooth="yes"/>
      <point x="724" y="1074"/>
      <point x="692" y="1116"/>
      <point x="600" y="1116" type="curve" smooth="yes"/>
      <point x="508" y="1116"/>
      <point x="476" y="1074"/>
      <point x="476" y="1020" type="curve" smooth="yes"/>
      <point x="476" y="976" type="line" smooth="yes"/>
      <point x="476" y="922"/>
      <point x="508" y="880"/>
    </contour>
  </outline>
</glyph>
<glyph name="oslash" format="2">
  <advance width="1200" height="1560"/>
  <unicode hex="00F8"/>
  <anchor x="600" y="1032" name="top"/>
  <anchor x="300" y="516" name="m.tildecomb"/>
  <anchor x="300" y="516" name="t.tildecomb"/>
  <outline>
    <contour>
      <point x="184" y="-80" type="line" name="hr00"/>
      <point x="310" y="74" type="line"/>
      <point x="386" y="12"/>
      <point x="484" y="-24"/>
      <point x="600" y="-24" type="curve" smooth="yes"/>
      <point x="890" y="-24"/>
      <point x="1068" y="188"/>
      <point x="1068" y="516" type="curve" smooth="yes"/>
      <point x="1068" y="660"/>
      <point x="1032" y="784"/>
      <point x="968" y="876" type="curve"/>
      <point x="1106" y="1044" type="line"/>
      <point x="1016" y="1112" type="line"/>
      <point x="890" y="958" type="line"/>
      <point x="814" y="1020"/>
      <point x="716" y="1056"/>
      <point x="600" y="1056" type="curve" smooth="yes"/>
      <point x="310" y="1056"/>
      <point x="132" y="844"/>
      <point x="132" y="516" type="curve" smooth="yes"/>
      <point x="132" y="372"/>
      <point x="168" y="248"/>
      <point x="232" y="156" type="curve"/>
      <point x="94" y="-12" type="line"/>
    </contour>
    <contour>
      <point x="600" y="918" type="curve" smooth="yes"/>
      <point x="682" y="918"/>
      <point x="752" y="896"/>
      <point x="802" y="850" type="curve"/>
      <point x="332" y="276" type="line"/>
      <point x="312" y="320"/>
      <point x="302" y="378"/>
      <point x="302" y="442" type="curve" smooth="yes"/>
      <point x="302" y="590" type="line" smooth="yes"/>
      <point x="302" y="812"/>
      <point x="422" y="918"/>
    </contour>
    <contour>
      <point x="600" y="114" type="curve" smooth="yes"/>
      <point x="518" y="114"/>
      <point x="448" y="136"/>
      <point x="398" y="182" type="curve"/>
      <point x="868" y="756" type="line"/>
      <point x="888" y="712"/>
      <point x="898" y="654"/>
      <point x="898" y="590" type="curve" smooth="yes"/>
      <point x="898" y="442" type="line" smooth="yes"/>
      <point x="898" y="220"/>
      <point x="778" y="114"/>
    </contour>
  </outline>
</glyph>
<glyph name="Aogonek" format="2">
  <advance width="1200" height="1560"/>
  <unicode hex="0104"/>
  <outline>
    <contour>
      <point x="62" y="0" type="line" name="hr00"/>
      <point x="236" y="0" type="line"/>
      <point x="354" y="398" type="line"/>
      <point x="844" y="398" type="line"/>
      <point x="962" y="0" type="line"/>
      <point x="1006" y="0" type="line"/>
      <point x="1008" y="-6" type="line"/>
      <point x="858" y="-78"/>
      <point x="778" y="-158"/>
      <point x="778" y="-254" type="curve" smooth="yes"/>
      <point x="778" y="-360"/>
      <point x="874" y="-414"/>
      <point x="996" y="-414" type="curve" smooth="yes"/>
      <point x="1096" y="-414"/>
      <point x="1156" y="-376"/>
      <point x="1182" y="-332" type="curve"/>
      <point x="1102" y="-250" type="line"/>
      <point x="1076" y="-282"/>
      <point x="1042" y="-302"/>
      <point x="998" y="-302" type="curve" smooth="yes"/>
      <point x="956" y="-302"/>
      <point x="914" y="-284"/>
      <point x="914" y="-228" type="curve" smooth="yes"/>
      <point x="914" y="-188"/>
      <point x="934" y="-130"/>
      <point x="1140" y="0" type="curve"/>
      <point x="712" y="1396" type="line"/>
      <point x="490" y="1396" type="line"/>
    </contour>
    <contour>
      <point x="804" y="544" type="line"/>
      <point x="394" y="544" type="line"/>
      <point x="590" y="1218" type="line"/>
      <point x="608" y="1218" type="line"/>
    </contour>
  </outline>
</glyph>
<glyph name="aogonek" format="2">
  <advance width="1200" height="1560"/>
  <unicode hex="0105"/>
  <outline>
    <contour>
      <point x="1100" y="140" type="line"/>
      <point x="956" y="140" type="line"/>
      <point x="956" y="708" type="line" smooth="yes"/>
      <point x="956" y="926"/>
      <point x="802" y="1056"/>
      <point x="560" y="1056" type="curve" smooth="yes"/>
      <point x="350" y="1056"/>
      <point x="218" y="956"/>
      <point x="166" y="848" type="curve"/>
      <point x="274" y="768" type="line"/>
      <point x="328" y="862"/>
      <point x="412" y="920"/>
      <point x="548" y="920" type="curve" smooth="yes"/>
      <point x="706" y="920"/>
      <point x="796" y="842"/>
      <point x="796" y="692" type="curve" smooth="yes"/>
      <point x="796" y="590" type="line"/>
      <point x="576" y="590" type="line" smooth="yes"/>
      <point x="266" y="590"/>
      <point x="132" y="480"/>
      <point x="132" y="290" type="curve" smooth="yes"/>
      <point x="132" y="96"/>
      <point x="270" y="-24"/>
      <point x="486" y="-24" type="curve" name="hr01"/>
      <point x="654" y="-24"/>
      <point x="752" y="50"/>
      <point x="796" y="168" type="curve"/>
      <point x="806" y="168" type="line"/>
      <point x="814" y="74"/>
      <point x="868" y="8"/>
      <point x="966" y="0" type="curve" name="hr02"/>
      <point x="968" y="-6" type="line"/>
      <point x="818" y="-78"/>
      <point x="738" y="-158"/>
      <point x="738" y="-254" type="curve" smooth="yes"/>
      <point x="738" y="-360"/>
      <point x="834" y="-414"/>
      <point x="956" y="-414" type="curve" smooth="yes" name="hr03"/>
      <point x="1056" y="-414"/>
      <point x="1116" y="-376"/>
      <point x="1142" y="-332" type="curve"/>
      <point x="1062" y="-250" type="line"/>
      <point x="1036" y="-282"/>
      <point x="1002" y="-302"/>
      <point x="958" y="-302" type="curve" smooth="yes"/>
      <point x="916" y="-302"/>
      <point x="874" y="-284"/>
      <point x="874" y="-228" type="curve" smooth="yes" name="hr04"/>
      <point x="874" y="-188"/>
      <point x="894" y="-130"/>
      <point x="1100" y="0" type="curve"/>
    </contour>
    <contour>
      <point x="796" y="470" type="line" name="hr05"/>
      <point x="796" y="300" type="line" smooth="yes"/>
      <point x="796" y="194"/>
      <point x="678" y="110"/>
      <point x="514" y="110" type="curve" smooth="yes"/>
      <point x="382" y="110"/>
      <point x="300" y="166"/>
      <point x="300" y="272" type="curve" smooth="yes"/>
      <point x="300" y="314" type="line" smooth="yes"/>
      <point x="300" y="414"/>
      <point x="386" y="470"/>
      <point x="576" y="470" type="curve" smooth="yes"/>
    </contour>
  </outline>
</glyph>
<glyph name="dcaron" format="1">
  <unicode hex="010F"/>
  <advance width="1200" height="1560"/>
  <outline>
    <contour>
      <point x="474" y="-24" type="curve" smooth="yes"/>
      <point x="608" y="-24"/>
      <point x="710" y="42"/>
      <point x="772" y="168" type="curve"/>
      <point x="780" y="168" type="line"/>
      <point x="780" y="0" type="line" name="hr01"/>
      <point x="940" y="0" type="line"/>
      <point x="940" y="1480" type="line"/>
      <point x="780" y="1480" type="line"/>
      <point x="780" y="864" type="line"/>
      <point x="772" y="864" type="line"/>
      <point x="710" y="990"/>
      <point x="608" y="1056"/>
      <point x="474" y="1056" type="curve" smooth="yes"/>
      <point x="234" y="1056"/>
      <point x="90" y="854"/>
      <point x="90" y="516" type="curve" smooth="yes"/>
      <point x="90" y="178"/>
      <point x="234" y="-24"/>
    </contour>
    <contour>
      <point x="526" y="118" type="curve" smooth="yes"/>
      <point x="352" y="118"/>
      <point x="262" y="236"/>
      <point x="262" y="428" type="curve" smooth="yes"/>
      <point x="262" y="604" type="line" smooth="yes"/>
      <point x="262" y="796"/>
      <point x="352" y="914"/>
      <point x="526" y="914" type="curve" smooth="yes"/>
      <point x="658" y="914"/>
      <point x="780" y="840"/>
      <point x="780" y="702" type="curve"/>
      <point x="780" y="330" type="line"/>
      <point x="780" y="192"/>
      <point x="658" y="118"/>
    </contour>
    <contour>
      <point x="1076" y="1102" type="line"/>
      <point x="1198" y="1102" type="line"/>
      <point x="1296" y="1480" type="line"/>
      <point x="1090" y="1480" type="line"/>
    </contour>
  </outline>
</glyph>
<glyph name="Dcroat" format="2">
  <advance width="1200" height="1560"/>
  <unicode hex="0110"/>
  <outline>
    <contour>
      <point x="204" y="0" type="line" name="hr00"/>
      <point x="580" y="0" type="line" smooth="yes"/>
      <point x="920" y="0"/>
      <point x="1088" y="240"/>
      <point x="1088" y="698" type="curve" smooth="yes"/>
      <point x="1088" y="1156"/>
      <point x="920" y="1396"/>
      <point x="580" y="1396" type="curve" smooth="yes"/>
      <point x="204" y="1396" type="line"/>
      <point x="204" y="800" type="line"/>
      <point x="44" y="800" type="line"/>
      <point x="44" y="672" type="line"/>
      <point x="204" y="672" type="line"/>
    </contour>
    <contour>
      <point x="372" y="146" type="line"/>
      <point x="372" y="672" type="line"/>
      <point x="654" y="672" type="line"/>
      <point x="654" y="800" type="line"/>
      <point x="372" y="800" type="line"/>
      <point x="372" y="1250" type="line"/>
      <point x="572" y="1250" type="line" smooth="yes"/>
      <point x="794" y="1250"/>
      <point x="910" y="1086"/>
      <point x="910" y="806" type="curve" smooth="yes"/>
      <point x="910" y="590" type="line" smooth="yes"/>
      <point x="910" y="310"/>
      <point x="794" y="146"/>
      <point x="572" y="146" type="curve" smooth="yes"/>
    </contour>
  </outline>
</glyph>
<glyph name="eogonek" format="2">
  <advance width="1200" height="1560"/>
  <unicode hex="0119"/>
  <outline>
    <contour>
      <point x="722" y="-414" type="curve" smooth="yes" name="hr00"/>
      <point x="822" y="-414"/>
      <point x="882" y="-376"/>
      <point x="908" y="-332" type="curve"/>
      <point x="828" y="-250" type="line"/>
      <point x="802" y="-282"/>
      <point x="768" y="-302"/>
      <point x="724" y="-302" type="curve" smooth="yes"/>
      <point x="682" y="-302"/>
      <point x="640" y="-284"/>
      <point x="640" y="-228" type="curve" smooth="yes"/>
      <point x="640" y="-170"/>
      <point x="686" y="-126"/>
      <point x="810" y="-24" type="curve" smooth="yes"/>
      <point x="894" y="44"/>
      <point x="994" y="130"/>
      <point x="1032" y="214" type="curve"/>
      <point x="914" y="294" type="line"/>
      <point x="860" y="182"/>
      <point x="756" y="114"/>
      <point x="618" y="114" type="curve" smooth="yes"/>
      <point x="424" y="114"/>
      <point x="302" y="246"/>
      <point x="302" y="428" type="curve" smooth="yes"/>
      <point x="302" y="476" type="line"/>
      <point x="1066" y="476" type="line"/>
      <point x="1066" y="552" type="line" smooth="yes"/>
      <point x="1066" y="844"/>
      <point x="886" y="1056"/>
      <point x="608" y="1056" type="curve" smooth="yes"/>
      <point x="328" y="1056"/>
      <point x="134" y="842"/>
      <point x="134" y="516" type="curve" smooth="yes"/>
      <point x="134" y="188"/>
      <point x="328" y="-24"/>
      <point x="604" y="-24" type="curve" smooth="yes"/>
      <point x="658" y="-24"/>
      <point x="700" y="-16"/>
      <point x="726" y="-6" type="curve"/>
      <point x="730" y="-12" type="line"/>
      <point x="582" y="-82"/>
      <point x="504" y="-160"/>
      <point x="504" y="-254" type="curve" smooth="yes"/>
      <point x="504" y="-360"/>
      <point x="600" y="-414"/>
    </contour>
    <contour>
      <point x="302" y="596" type="line"/>
      <point x="302" y="610" type="line" smooth="yes"/>
      <point x="302" y="790"/>
      <point x="432" y="924"/>
      <point x="608" y="924" type="curve" smooth="yes"/>
      <point x="778" y="924"/>
      <point x="894" y="800"/>
      <point x="894" y="618" type="curve" smooth="yes"/>
      <point x="894" y="596" type="line"/>
    </contour>
  </outline>
</glyph>
<glyph name="Hbar" format="1">
  <unicode hex="0126"/>
  <advance width="1200" height="1560"/>
  <outline>
    <contour>
      <point x="872" y="0" type="line" name="hr00"/>
      <point x="1040" y="0" type="line"/>
      <point x="1040" y="1036" type="line"/>
      <point x="1180" y="1036" type="line"/>
      <point x="1180" y="1164" type="line"/>
      <point x="1040" y="1164" type="line"/>
      <point x="1040" y="1396" type="line"/>
      <point x="872" y="1396" type="line"/>
      <point x="872" y="1164" type="line"/>
      <point x="328" y="1164" type="line"/>
      <point x="328" y="1396" type="line"/>
      <point x="160" y="1396" type="line"/>
      <point x="160" y="1164" type="line"/>
      <point x="20" y="1164" type="line"/>
      <point x="20" y="1036" type="line"/>
      <point x="160" y="1036" type="line"/>
      <point x="160" y="0" type="line"/>
      <point x="328" y="0" type="line"/>
      <point x="328" y="634" type="line"/>
      <point x="872" y="634" type="line"/>
    </contour>
    <contour>
      <point x="328" y="780" type="line"/>
      <point x="328" y="1036" type="line"/>
      <point x="872" y="1036" type="line"/>
      <point x="872" y="780" type="line"/>
    </contour>
  </outline>
</glyph>
<glyph name="hbar" format="1">
  <unicode hex="0127"/>
  <advance width="1200" height="1560"/>
  <outline>
    <contour>
      <point x="356" y="0" type="line" name="hr00"/>
      <point x="356" y="716" type="line" smooth="yes"/>
      <point x="356" y="852"/>
      <point x="484" y="914"/>
      <point x="612" y="914" type="curve" smooth="yes"/>
      <point x="770" y="914"/>
      <point x="856" y="822"/>
      <point x="856" y="634" type="curve" smooth="yes"/>
      <point x="856" y="0" type="line"/>
      <point x="1016" y="0" type="line"/>
      <point x="1016" y="662" type="line" smooth="yes"/>
      <point x="1016" y="912"/>
      <point x="874" y="1056"/>
      <point x="658" y="1056" type="curve" smooth="yes"/>
      <point x="488" y="1056"/>
      <point x="408" y="966"/>
      <point x="364" y="864" type="curve"/>
      <point x="356" y="864" type="line"/>
      <point x="356" y="1216" type="line"/>
      <point x="662" y="1216" type="line"/>
      <point x="662" y="1340" type="line"/>
      <point x="356" y="1340" type="line"/>
      <point x="356" y="1480" type="line"/>
      <point x="196" y="1480" type="line"/>
      <point x="196" y="1340" type="line"/>
      <point x="66" y="1340" type="line"/>
      <point x="66" y="1216" type="line"/>
      <point x="196" y="1216" type="line"/>
      <point x="196" y="0" type="line"/>
    </contour>
  </outline>
</glyph>
<glyph name="Iogonek" format="2">
  <advance width="1200" height="1560"/>
  <unicode hex="012E"/>
  <outline>
    <contour>
      <point x="168" y="0" type="line"/>
      <point x="898" y="0" type="line"/>
      <point x="900" y="-6" type="line"/>
      <point x="750" y="-78"/>
      <point x="670" y="-158"/>
      <point x="670" y="-254" type="curve" smooth="yes"/>
      <point x="670" y="-360"/>
      <point x="766" y="-414"/>
      <point x="888" y="-414" type="curve" smooth="yes"/>
      <point x="988" y="-414"/>
      <point x="1048" y="-376"/>
      <point x="1074" y="-332" type="curve"/>
      <point x="994" y="-250" type="line"/>
      <point x="968" y="-282"/>
      <point x="934" y="-302"/>
      <point x="890" y="-302" type="curve" smooth="yes"/>
      <point x="848" y="-302"/>
      <point x="806" y="-284"/>
      <point x="806" y="-228" type="curve" smooth="yes"/>
      <point x="806" y="-188"/>
      <point x="826" y="-130"/>
      <point x="1032" y="0" type="curve"/>
      <point x="1032" y="134" type="line"/>
      <point x="684" y="134" type="line" name="hr01"/>
      <point x="684" y="1262" type="line"/>
      <point x="1032" y="1262" type="line"/>
      <point x="1032" y="1396" type="line"/>
      <point x="168" y="1396" type="line"/>
      <point x="168" y="1262" type="line"/>
      <point x="516" y="1262" type="line"/>
      <point x="516" y="134" type="line"/>
      <point x="168" y="134" type="line"/>
    </contour>
  </outline>
</glyph>
<glyph name="iogonek" format="2">
  <advance width="1200" height="1560"/>
  <unicode hex="012F"/>
  <outline>
    <contour>
      <point x="948" y="-414" type="curve" smooth="yes"/>
      <point x="1048" y="-414"/>
      <point x="1108" y="-376"/>
      <point x="1134" y="-332" type="curve"/>
      <point x="1054" y="-250" type="line"/>
      <point x="1028" y="-282"/>
      <point x="994" y="-302"/>
      <point x="950" y="-302" type="curve" smooth="yes"/>
      <point x="908" y="-302"/>
      <point x="866" y="-284"/>
      <point x="866" y="-228" type="curve" smooth="yes"/>
      <point x="866" y="-188"/>
      <point x="886" y="-130"/>
      <point x="1092" y="0" type="curve"/>
      <point x="1092" y="136" type="line"/>
      <point x="744" y="136" type="line" name="hr01"/>
      <point x="744" y="1032" type="line"/>
      <point x="212" y="1032" type="line"/>
      <point x="212" y="896" type="line"/>
      <point x="584" y="896" type="line"/>
      <point x="584" y="136" type="line"/>
      <point x="212" y="136" type="line"/>
      <point x="212" y="0" type="line"/>
      <point x="958" y="0" type="line"/>
      <point x="960" y="-6" type="line"/>
      <point x="810" y="-78"/>
      <point x="730" y="-158"/>
      <point x="730" y="-254" type="curve" smooth="yes" name="hr02"/>
      <point x="730" y="-360"/>
      <point x="826" y="-414"/>
    </contour>
    <contour>
      <point x="664" y="1260" type="curve" smooth="yes"/>
      <point x="756" y="1260"/>
      <point x="790" y="1304"/>
      <point x="790" y="1362" type="curve" smooth="yes" name="hr03"/>
      <point x="790" y="1394" type="line" smooth="yes"/>
      <point x="790" y="1452"/>
      <point x="756" y="1496"/>
      <point x="664" y="1496" type="curve" smooth="yes"/>
      <point x="572" y="1496"/>
      <point x="538" y="1452"/>
      <point x="538" y="1394" type="curve" smooth="yes"/>
      <point x="538" y="1362" type="line" smooth="yes"/>
      <point x="538" y="1304"/>
      <point x="572" y="1260"/>
    </contour>
  </outline>
</glyph>
<glyph name="dotlessi" format="2">
  <advance width="1200" height="1560"/>
  <unicode hex="0131"/>
  <anchor x="664" y="0" name="bottom"/>
  <anchor x="1092" y="0" name="bottomright"/>
  <anchor x="664" y="1032" name="top"/>
  <anchor x="332" y="0" name="b.cedillacomb"/>
  <anchor x="546" y="0" name="b.ogonekcomb"/>
  <anchor x="332" y="516" name="m.tildecomb"/>
  <outline>
    <contour>
      <point x="212" y="0" type="line" name="hr00"/>
      <point x="1092" y="0" type="line"/>
      <point x="1092" y="136" type="line"/>
      <point x="744" y="136" type="line"/>
      <point x="744" y="1032" type="line"/>
      <point x="212" y="1032" type="line"/>
      <point x="212" y="896" type="line"/>
      <point x="584" y="896" type="line"/>
      <point x="584" y="136" type="line"/>
      <point x="212" y="136" type="line"/>
    </contour>
  </outline>
</glyph>
<glyph name="ij" format="2">
  <advance width="1200" height="1560"/>
  <unicode hex="0133"/>
  <outline>
    <contour>
      <point x="210" y="0" type="line"/>
      <point x="370" y="0" type="line"/>
      <point x="370" y="1032" type="line"/>
      <point x="210" y="1032" type="line"/>
    </contour>
    <contour>
      <point x="370" y="-400" type="line"/>
      <point x="762" y="-400" type="line" smooth="yes"/>
      <point x="918" y="-400"/>
      <point x="990" y="-302"/>
      <point x="990" y="-164" type="curve" smooth="yes"/>
      <point x="990" y="1032" type="line"/>
      <point x="830" y="1032" type="line"/>
      <point x="830" y="-264" type="line"/>
      <point x="370" y="-264" type="line"/>
    </contour>
    <contour>
      <point x="290" y="1260" type="curve" smooth="yes"/>
      <point x="382" y="1260"/>
      <point x="416" y="1304"/>
      <point x="416" y="1362" type="curve" smooth="yes" name="hr01"/>
      <point x="416" y="1394" type="line" smooth="yes"/>
      <point x="416" y="1452"/>
      <point x="382" y="1496"/>
      <point x="290" y="1496" type="curve" smooth="yes"/>
      <point x="198" y="1496"/>
      <point x="164" y="1452"/>
      <point x="164" y="1394" type="curve" smooth="yes"/>
      <point x="164" y="1362" type="line" smooth="yes"/>
      <point x="164" y="1304"/>
      <point x="198" y="1260"/>
    </contour>
    <contour>
      <point x="910" y="1260" type="curve" smooth="yes"/>
      <point x="1002" y="1260"/>
      <point x="1036" y="1304"/>
      <point x="1036" y="1362" type="curve" smooth="yes"/>
      <point x="1036" y="1394" type="line" smooth="yes"/>
      <point x="1036" y="1452"/>
      <point x="1002" y="1496"/>
      <point x="910" y="1496" type="curve" smooth="yes"/>
      <point x="818" y="1496"/>
      <point x="784" y="1452"/>
      <point x="784" y="1394" type="curve" smooth="yes"/>
      <point x="784" y="1362" type="line" smooth="yes"/>
      <point x="784" y="1304"/>
      <point x="818" y="1260"/>
    </contour>
  </outline>
</glyph>
<glyph name="Lslash" format="2">
  <advance width="1200" height="1560"/>
  <unicode hex="0141"/>
  <outline>
    <contour>
      <point x="1070" y="146" type="line" name="hr00"/>
      <point x="408" y="146" type="line"/>
      <point x="408" y="590" type="line"/>
      <point x="830" y="728" type="line"/>
      <point x="830" y="866" type="line"/>
      <point x="408" y="728" type="line"/>
      <point x="408" y="1396" type="line"/>
      <point x="240" y="1396" type="line"/>
      <point x="240" y="680" type="line"/>
      <point x="80" y="628" type="line"/>
      <point x="80" y="490" type="line"/>
      <point x="240" y="542" type="line"/>
      <point x="240" y="0" type="line"/>
      <point x="1070" y="0" type="line"/>
    </contour>
  </outline>
</glyph>
<glyph name="lslash" format="1">
  <unicode hex="0142"/>
  <advance width="1200" height="1560"/>
  <outline>
    <contour>
      <point x="160" y="0" type="line" name="hr00"/>
      <point x="1040" y="0" type="line"/>
      <point x="1040" y="136" type="line"/>
      <point x="680" y="136" type="line"/>
      <point x="680" y="622" type="line"/>
      <point x="986" y="722" type="line"/>
      <point x="986" y="856" type="line"/>
      <point x="680" y="756" type="line"/>
      <point x="680" y="1480" type="line"/>
      <point x="160" y="1480" type="line"/>
      <point x="160" y="1344" type="line"/>
      <point x="520" y="1344" type="line"/>
      <point x="520" y="710" type="line"/>
      <point x="214" y="610" type="line"/>
      <point x="214" y="476" type="line"/>
      <point x="520" y="576" type="line"/>
      <point x="520" y="136" type="line"/>
      <point x="160" y="136" type="line"/>
    </contour>
  </outline>
</glyph>
<glyph name="napostrophe" format="1">
  <unicode hex="0149"/>
  <advance width="1200" height="1560"/>
  <outline>
    <contour>
      <point x="196" y="0" type="line"/>
      <point x="356" y="0" type="line"/>
      <point x="356" y="716" type="line"/>
      <point x="356" y="852"/>
      <point x="484" y="914"/>
      <point x="612" y="914" type="curve" smooth="yes"/>
      <point x="770" y="914"/>
      <point x="856" y="822"/>
      <point x="856" y="634" type="curve" smooth="yes"/>
      <point x="856" y="0" type="line"/>
      <point x="1016" y="0" type="line"/>
      <point x="1016" y="662" type="line" smooth="yes"/>
      <point x="1016" y="912"/>
      <point x="874" y="1056"/>
      <point x="658" y="1056" type="curve" smooth="yes"/>
      <point x="488" y="1056"/>
      <point x="408" y="966"/>
      <point x="364" y="864" type="curve"/>
      <point x="356" y="864" type="line"/>
      <point x="356" y="1032" type="line" name="hr01"/>
      <point x="196" y="1032" type="line"/>
    </contour>
    <contour>
      <point x="0" y="1110" type="line" name="hr02"/>
      <point x="106" y="1110" type="line"/>
      <point x="210" y="1480" type="line"/>
      <point x="24" y="1480" type="line"/>
    </contour>
  </outline>
</glyph>
<glyph name="Eng" format="2">
  <advance width="1200" height="1560"/>
  <unicode hex="014A"/>
  <outline>
    <contour>
      <point x="312" y="0" type="line" name="hr00"/>
      <point x="312" y="1182" type="line"/>
      <point x="326" y="1182" type="line"/>
      <point x="802" y="0" type="line"/>
      <point x="888" y="0" type="line"/>
      <point x="888" y="-264" type="line"/>
      <point x="314" y="-264" type="line"/>
      <point x="314" y="-400" type="line"/>
      <point x="812" y="-400" type="line" smooth="yes"/>
      <point x="968" y="-400"/>
      <point x="1040" y="-302"/>
      <point x="1040" y="-164" type="curve" smooth="yes"/>
      <point x="1040" y="1396" type="line"/>
      <point x="888" y="1396" type="line"/>
      <point x="888" y="226" type="line"/>
      <point x="874" y="226" type="line"/>
      <point x="398" y="1396" type="line"/>
      <point x="160" y="1396" type="line"/>
      <point x="160" y="0" type="line"/>
    </contour>
  </outline>
</glyph>
<glyph name="OE" format="2">
  <advance width="1200" height="1560"/>
  <unicode hex="0152"/>
  <outline>
    <contour>
      <point x="1120" y="0" type="line" name="hr00"/>
      <point x="1120" y="138" type="line"/>
      <point x="784" y="138" type="line"/>
      <point x="784" y="638" type="line"/>
      <point x="1096" y="638" type="line"/>
      <point x="1096" y="776" type="line"/>
      <point x="784" y="776" type="line"/>
      <point x="784" y="1258" type="line"/>
      <point x="1120" y="1258" type="line"/>
      <point x="1120" y="1396" type="line"/>
      <point x="578" y="1396" type="line" smooth="yes"/>
      <point x="240" y="1396"/>
      <point x="74" y="1156"/>
      <point x="74" y="698" type="curve" smooth="yes"/>
      <point x="74" y="240"/>
      <point x="240" y="0"/>
      <point x="578" y="0" type="curve" smooth="yes"/>
    </contour>
    <contour>
      <point x="586" y="138" type="line" smooth="yes"/>
      <point x="362" y="138"/>
      <point x="244" y="304"/>
      <point x="244" y="590" type="curve" smooth="yes"/>
      <point x="244" y="806" type="line" smooth="yes"/>
      <point x="244" y="1092"/>
      <point x="362" y="1258"/>
      <point x="586" y="1258" type="curve" smooth="yes"/>
      <point x="624" y="1258" type="line"/>
      <point x="624" y="138" type="line"/>
    </contour>
  </outline>
</glyph>
<glyph name="oe" format="2">
  <advance width="1200" height="1560"/>
  <unicode hex="0153"/>
  <outline>
    <contour>
      <point x="352" y="96" type="curve" smooth="yes" name="hr00"/>
      <point x="246" y="96"/>
      <point x="182" y="180"/>
      <point x="182" y="410" type="curve" smooth="yes"/>
      <point x="182" y="622" type="line" smooth="yes"/>
      <point x="182" y="852"/>
      <point x="246" y="936"/>
      <point x="352" y="936" type="curve" smooth="yes"/>
      <point x="458" y="936"/>
      <point x="522" y="852"/>
      <point x="522" y="622" type="curve" smooth="yes"/>
      <point x="522" y="410" type="line" smooth="yes"/>
      <point x="522" y="180"/>
      <point x="458" y="96"/>
    </contour>
    <contour>
      <point x="668" y="590" type="line"/>
      <point x="668" y="658" type="line" smooth="yes"/>
      <point x="668" y="848"/>
      <point x="734" y="940"/>
      <point x="850" y="940" type="curve" smooth="yes"/>
      <point x="966" y="940"/>
      <point x="1032" y="848"/>
      <point x="1032" y="658" type="curve" smooth="yes"/>
      <point x="1032" y="590" type="line"/>
    </contour>
    <contour>
      <point x="854" y="-24" type="curve" smooth="yes"/>
      <point x="1016" y="-24"/>
      <point x="1110" y="106"/>
      <point x="1148" y="228" type="curve"/>
      <point x="1032" y="282" type="line"/>
      <point x="1002" y="192"/>
      <point x="956" y="104"/>
      <point x="858" y="104" type="curve" smooth="yes"/>
      <point x="736" y="104"/>
      <point x="668" y="236"/>
      <point x="668" y="426" type="curve" smooth="yes"/>
      <point x="668" y="476" type="line"/>
      <point x="1164" y="476" type="line"/>
      <point x="1164" y="584" type="line" smooth="yes"/>
      <point x="1164" y="894"/>
      <point x="1062" y="1056"/>
      <point x="864" y="1056" type="curve" smooth="yes"/>
      <point x="754" y="1056"/>
      <point x="658" y="1006"/>
      <point x="600" y="868" type="curve"/>
      <point x="594" y="868" type="line"/>
      <point x="546" y="992"/>
      <point x="456" y="1056"/>
      <point x="340" y="1056" type="curve" smooth="yes"/>
      <point x="128" y="1056"/>
      <point x="28" y="844"/>
      <point x="28" y="516" type="curve" smooth="yes"/>
      <point x="28" y="188"/>
      <point x="128" y="-24"/>
      <point x="340" y="-24" type="curve" smooth="yes"/>
      <point x="454" y="-24"/>
      <point x="534" y="36"/>
      <point x="586" y="146" type="curve"/>
      <point x="592" y="146" type="line"/>
      <point x="652" y="38"/>
      <point x="742" y="-24"/>
    </contour>
  </outline>
</glyph>
<glyph name="scedilla" format="1">
  <unicode hex="015F"/>
  <advance width="1200" height="1560"/>
  <outline>
    <contour>
      <point x="620" y="-414" type="curve" smooth="yes" name="hr00"/>
      <point x="738" y="-414"/>
      <point x="842" y="-362"/>
      <point x="842" y="-248" type="curve" smooth="yes"/>
      <point x="842" y="-162"/>
      <point x="784" y="-116"/>
      <point x="706" y="-116" type="curve" smooth="yes"/>
      <point x="682" y="-116"/>
      <point x="654" y="-120"/>
      <point x="628" y="-128" type="curve"/>
      <point x="622" y="-122" type="line"/>
      <point x="640" y="-24" type="line"/>
      <point x="888" y="-16"/>
      <point x="1048" y="102"/>
      <point x="1048" y="298" type="curve" smooth="yes"/>
      <point x="1048" y="522"/>
      <point x="842" y="562"/>
      <point x="694" y="584" type="curve" smooth="yes"/>
      <point x="532" y="608" type="line" smooth="yes"/>
      <point x="440" y="622"/>
      <point x="350" y="650"/>
      <point x="350" y="758" type="curve" smooth="yes"/>
      <point x="350" y="864"/>
      <point x="440" y="922"/>
      <point x="602" y="922" type="curve" smooth="yes"/>
      <point x="784" y="922"/>
      <point x="876" y="850"/>
      <point x="924" y="792" type="curve"/>
      <point x="1028" y="890" type="line"/>
      <point x="930" y="994"/>
      <point x="794" y="1056"/>
      <point x="608" y="1056" type="curve" smooth="yes"/>
      <point x="368" y="1056"/>
      <point x="192" y="954"/>
      <point x="192" y="748" type="curve" smooth="yes"/>
      <point x="192" y="524"/>
      <point x="400" y="484"/>
      <point x="546" y="462" type="curve" smooth="yes"/>
      <point x="708" y="438" type="line" smooth="yes"/>
      <point x="802" y="424"/>
      <point x="890" y="396"/>
      <point x="890" y="288" type="curve" smooth="yes"/>
      <point x="890" y="166"/>
      <point x="776" y="110"/>
      <point x="616" y="110" type="curve" smooth="yes"/>
      <point x="452" y="110"/>
      <point x="340" y="168"/>
      <point x="242" y="272" type="curve"/>
      <point x="134" y="178" type="line"/>
      <point x="230" y="70"/>
      <point x="362" y="-6"/>
      <point x="542" y="-20" type="curve"/>
      <point x="516" y="-154" type="line"/>
      <point x="572" y="-162" type="line" smooth="yes"/>
      <point x="684" y="-178"/>
      <point x="708" y="-208"/>
      <point x="708" y="-244" type="curve" smooth="yes"/>
      <point x="708" y="-286"/>
      <point x="670" y="-306"/>
      <point x="620" y="-306" type="curve" smooth="yes"/>
      <point x="562" y="-306"/>
      <point x="522" y="-280"/>
      <point x="498" y="-250" type="curve"/>
      <point x="422" y="-332" type="line"/>
      <point x="450" y="-370"/>
      <point x="512" y="-414"/>
    </contour>
  </outline>
</glyph>
<glyph name="Tbar" format="1">
  <unicode hex="0166"/>
  <advance width="1200" height="1560"/>
  <outline>
    <contour>
      <point x="1030" y="672" type="line" name="hr00"/>
      <point x="1030" y="800" type="line"/>
      <point x="684" y="800" type="line"/>
      <point x="684" y="1250" type="line"/>
      <point x="1150" y="1250" type="line"/>
      <point x="1150" y="1396" type="line"/>
      <point x="50" y="1396" type="line"/>
      <point x="50" y="1250" type="line"/>
      <point x="516" y="1250" type="line"/>
      <point x="516" y="800" type="line"/>
      <point x="170" y="800" type="line"/>
      <point x="170" y="672" type="line"/>
      <point x="516" y="672" type="line"/>
      <point x="516" y="0" type="line"/>
      <point x="684" y="0" type="line"/>
      <point x="684" y="672" type="line"/>
    </contour>
  </outline>
</glyph>
<glyph name="tbar" format="2">
  <advance width="1200" height="1560"/>
  <unicode hex="0167"/>
  <outline>
    <contour>
      <point x="1048" y="136" type="line" name="hr00"/>
      <point x="582" y="136" type="line"/>
      <point x="582" y="494" type="line"/>
      <point x="928" y="494" type="line"/>
      <point x="928" y="618" type="line"/>
      <point x="582" y="618" type="line"/>
      <point x="582" y="896" type="line"/>
      <point x="1052" y="896" type="line"/>
      <point x="1052" y="1032" type="line"/>
      <point x="582" y="1032" type="line"/>
      <point x="582" y="1396" type="line"/>
      <point x="428" y="1396" type="line"/>
      <point x="428" y="1126" type="line" smooth="yes"/>
      <point x="428" y="1056"/>
      <point x="402" y="1032"/>
      <point x="334" y="1032" type="curve" smooth="yes"/>
      <point x="78" y="1032" type="line"/>
      <point x="78" y="896" type="line"/>
      <point x="422" y="896" type="line"/>
      <point x="422" y="618" type="line"/>
      <point x="204" y="618" type="line"/>
      <point x="204" y="494" type="line"/>
      <point x="422" y="494" type="line"/>
      <point x="422" y="236" type="line" smooth="yes"/>
      <point x="422" y="98"/>
      <point x="494" y="0"/>
      <point x="650" y="0" type="curve" smooth="yes"/>
      <point x="1048" y="0" type="line"/>
    </contour>
  </outline>
</glyph>
<glyph name="Uogonek" format="2">
  <advance width="1200" height="1560"/>
  <unicode hex="0172"/>
  <outline>
    <contour>
      <point x="160" y="1396" type="line" name="hr00"/>
      <point x="160" y="598" type="line" smooth="yes"/>
      <point x="160" y="190"/>
      <point x="220" y="-24"/>
      <point x="590" y="-24" type="curve" smooth="yes"/>
      <point x="626" y="-24"/>
      <point x="658" y="-22"/>
      <point x="690" y="-14" type="curve"/>
      <point x="694" y="-22" type="line"/>
      <point x="544" y="-90"/>
      <point x="464" y="-164"/>
      <point x="464" y="-256" type="curve" smooth="yes"/>
      <point x="464" y="-358"/>
      <point x="560" y="-414"/>
      <point x="682" y="-414" type="curve" smooth="yes"/>
      <point x="782" y="-414"/>
      <point x="842" y="-376"/>
      <point x="868" y="-332" type="curve"/>
      <point x="788" y="-250" type="line"/>
      <point x="762" y="-282"/>
      <point x="728" y="-302"/>
      <point x="684" y="-302" type="curve" smooth="yes"/>
      <point x="640" y="-302"/>
      <point x="600" y="-280"/>
      <point x="600" y="-232" type="curve" smooth="yes"/>
      <point x="600" y="-144"/>
      <point x="738" y="-64"/>
      <point x="826" y="0" type="curve" smooth="yes"/>
      <point x="1020" y="142"/>
      <point x="1040" y="292"/>
      <point x="1040" y="598" type="curve" smooth="yes"/>
      <point x="1040" y="1396" type="line"/>
      <point x="872" y="1396" type="line"/>
      <point x="872" y="558" type="line" smooth="yes"/>
      <point x="872" y="288"/>
      <point x="862" y="122"/>
      <point x="600" y="122" type="curve" smooth="yes"/>
      <point x="338" y="122"/>
      <point x="328" y="288"/>
      <point x="328" y="558" type="curve" smooth="yes"/>
      <point x="328" y="1396" type="line"/>
    </contour>
  </outline>
</glyph>
<glyph name="Schwa" format="1">
  <unicode hex="018F"/>
  <advance width="1200" height="1560"/>
  <outline>
    <contour>
      <point x="600" y="-24" type="curve" smooth="yes" name="hr00"/>
      <point x="940" y="-24"/>
      <point x="1088" y="242"/>
      <point x="1088" y="700" type="curve" smooth="yes"/>
      <point x="1088" y="1148"/>
      <point x="948" y="1420"/>
      <point x="590" y="1420" type="curve" smooth="yes"/>
      <point x="348" y="1420"/>
      <point x="188" y="1294"/>
      <point x="126" y="1064" type="curve"/>
      <point x="266" y="998" type="line"/>
      <point x="340" y="1236"/>
      <point x="466" y="1274"/>
      <point x="578" y="1274" type="curve" smooth="yes"/>
      <point x="824" y="1274"/>
      <point x="910" y="1088"/>
      <point x="910" y="808" type="curve" smooth="yes"/>
      <point x="910" y="742" type="line"/>
      <point x="112" y="742" type="line"/>
      <point x="112" y="698" type="line" smooth="yes"/>
      <point x="112" y="242"/>
      <point x="260" y="-24"/>
    </contour>
    <contour>
      <point x="598" y="122" type="curve" smooth="yes"/>
      <point x="376" y="122"/>
      <point x="286" y="304"/>
      <point x="286" y="584" type="curve" smooth="yes"/>
      <point x="286" y="604" type="line"/>
      <point x="910" y="604" type="line"/>
      <point x="910" y="584" type="line" smooth="yes"/>
      <point x="910" y="304"/>
      <point x="820" y="122"/>
    </contour>
  </outline>
</glyph>
<glyph name="Ohorn" format="2">
  <advance width="1200" height="1560"/>
  <unicode hex="01A0"/>
  <anchor x="600" y="0" name="bottom"/>
  <anchor x="600" y="1396" name="top"/>
  <anchor x="300" y="0" name="b.cedillacomb"/>
  <anchor x="300" y="698" name="m.tildecomb"/>
  <anchor x="300" y="0" name="m.cedillacomb"/>
  <anchor x="300" y="698" name="t.tildecomb"/>
  <outline>
    <contour>
      <point x="1098" y="1620" type="line"/>
      <point x="956" y="1620" type="line"/>
      <point x="956" y="1396" type="line"/>
      <point x="760" y="1396" type="line"/>
      <point x="712" y="1412"/>
      <point x="658" y="1420"/>
      <point x="600" y="1420" type="curve" smooth="yes" name="hr01"/>
      <point x="260" y="1420"/>
      <point x="112" y="1154"/>
      <point x="112" y="698" type="curve" smooth="yes"/>
      <point x="112" y="242"/>
      <point x="260" y="-24"/>
      <point x="600" y="-24" type="curve" smooth="yes"/>
      <point x="940" y="-24"/>
      <point x="1088" y="242"/>
      <point x="1088" y="698" type="curve" smooth="yes"/>
      <point x="1088" y="976"/>
      <point x="1038" y="1178"/>
      <point x="916" y="1294" type="curve"/>
      <point x="935" y="1294"/>
      <point x="953" y="1294"/>
      <point x="972" y="1294" type="curve" smooth="yes"/>
      <point x="1072" y="1294"/>
      <point x="1098" y="1350"/>
      <point x="1098" y="1420" type="curve"/>
      <point x="1098" y="1420"/>
      <point x="1098" y="1420"/>
      <point x="1098" y="1420" type="curve"/>
    </contour>
    <contour>
      <point x="600" y="122" type="curve" smooth="yes"/>
      <point x="378" y="122"/>
      <point x="290" y="304"/>
      <point x="290" y="584" type="curve" smooth="yes"/>
      <point x="290" y="812" type="line" smooth="yes"/>
      <point x="290" y="1092"/>
      <point x="378" y="1274"/>
      <point x="600" y="1274" type="curve" smooth="yes"/>
      <point x="822" y="1274"/>
      <point x="910" y="1092"/>
      <point x="910" y="812" type="curve" smooth="yes"/>
      <point x="910" y="584" type="line" smooth="yes"/>
      <point x="910" y="304"/>
      <point x="822" y="122"/>
    </contour>
  </outline>
</glyph>
<glyph name="Uhorn" format="1">
  <unicode hex="01AF"/>
  <advance width="1200" height="1560"/>
  <outline>
    <contour>
      <point x="160" y="1396" type="line"/>
      <point x="160" y="598" type="line"/>
      <point x="160" y="598" type="line"/>
      <point x="160" y="184"/>
      <point x="220" y="-24"/>
      <point x="600" y="-24" type="curve" smooth="yes"/>
      <point x="980" y="-24"/>
      <point x="1040" y="184"/>
      <point x="1040" y="598" type="curve" smooth="yes"/>
      <point x="1040" y="1290" type="line"/>
      <point x="1051" y="1290"/>
      <point x="1063" y="1290"/>
      <point x="1074" y="1290" type="curve" smooth="yes"/>
      <point x="1174" y="1290"/>
      <point x="1200" y="1346"/>
      <point x="1200" y="1416" type="curve" smooth="yes"/>
      <point x="1200" y="1620" type="line"/>
      <point x="1058" y="1620" type="line"/>
      <point x="1058" y="1396" type="line"/>
      <point x="872" y="1396" type="line"/>
      <point x="872" y="558" type="line" smooth="yes"/>
      <point x="872" y="288"/>
      <point x="862" y="122"/>
      <point x="600" y="122" type="curve" smooth="yes"/>
      <point x="338" y="122"/>
      <point x="328" y="288"/>
      <point x="328" y="558" type="curve" smooth="yes"/>
      <point x="328" y="1396" type="line"/>
    </contour>
    <contour>
      <point x="600" y="0" type="move" name="bottom"/>
    </contour>
    <contour>
      <point x="600" y="1396" type="move" name="top"/>
    </contour>
  </outline>
</glyph>
<glyph name="uhorn" format="2">
  <advance width="1200" height="1560"/>
  <unicode hex="01B0"/>
  <anchor x="594" y="0" name="bottom"/>
  <anchor x="594" y="1032" name="top"/>
  <anchor x="297" y="0" name="b.cedillacomb"/>
  <anchor x="297" y="516" name="m.tildecomb"/>
  <outline>
    <contour>
      <point x="1174" y="1256" type="line"/>
      <point x="1032" y="1256" type="line"/>
      <point x="1032" y="1032" type="line"/>
      <point x="844" y="1032" type="line"/>
      <point x="844" y="316" type="line" smooth="yes"/>
      <point x="844" y="180"/>
      <point x="716" y="118"/>
      <point x="588" y="118" type="curve" smooth="yes"/>
      <point x="456" y="118"/>
      <point x="375" y="182"/>
      <point x="351" y="312" type="curve" smooth="yes"/>
      <point x="346" y="338"/>
      <point x="344" y="367"/>
      <point x="344" y="398" type="curve" smooth="yes"/>
      <point x="344" y="1032" type="line"/>
      <point x="184" y="1032" type="line"/>
      <point x="184" y="370" type="line" smooth="yes"/>
      <point x="184" y="120"/>
      <point x="326" y="-24"/>
      <point x="542" y="-24" type="curve" smooth="yes"/>
      <point x="712" y="-24"/>
      <point x="792" y="66"/>
      <point x="836" y="168" type="curve"/>
      <point x="844" y="168" type="line"/>
      <point x="844" y="0" type="line"/>
      <point x="1004" y="0" type="line"/>
      <point x="1004" y="926" type="line"/>
      <point x="1019" y="926"/>
      <point x="1033" y="926"/>
      <point x="1048" y="926" type="curve" smooth="yes"/>
      <point x="1148" y="926"/>
      <point x="1174" y="982"/>
      <point x="1174" y="1052" type="curve" smooth="yes"/>
    </contour>
  </outline>
</glyph>
<glyph name="dotlessj" format="1">
  <unicode hex="0237"/>
  <advance width="1200" height="1560"/>
  <outline>
    <contour>
      <point x="204" y="-400" type="line" name="hr00"/>
      <point x="636" y="-400" type="line" smooth="yes"/>
      <point x="792" y="-400"/>
      <point x="864" y="-302"/>
      <point x="864" y="-164" type="curve" smooth="yes"/>
      <point x="864" y="1032" type="line"/>
      <point x="186" y="1032" type="line"/>
      <point x="186" y="896" type="line"/>
      <point x="704" y="896" type="line"/>
      <point x="704" y="-264" type="line"/>
      <point x="204" y="-264" type="line"/>
    </contour>
    <contour>
      <point x="784" y="1032" type="move" name="top"/>
    </contour>
  </outline>
</glyph>
<glyph name="schwa" format="2">
  <advance width="1200" height="1560"/>
  <unicode hex="0259"/>
  <outline>
    <contour>
      <point x="134" y="556" type="line" name="hr00"/>
      <point x="134" y="480" type="line" smooth="yes"/>
      <point x="134" y="188"/>
      <point x="314" y="-24"/>
      <point x="592" y="-24" type="curve" smooth="yes"/>
      <point x="872" y="-24"/>
      <point x="1066" y="188"/>
      <point x="1066" y="518" type="curve" smooth="yes"/>
      <point x="1066" y="844"/>
      <point x="878" y="1056"/>
      <point x="582" y="1056" type="curve" smooth="yes"/>
      <point x="378" y="1056"/>
      <point x="230" y="956"/>
      <point x="168" y="818" type="curve"/>
      <point x="286" y="738" type="line"/>
      <point x="340" y="850"/>
      <point x="444" y="918"/>
      <point x="582" y="918" type="curve" smooth="yes"/>
      <point x="776" y="918"/>
      <point x="898" y="786"/>
      <point x="898" y="604" type="curve" smooth="yes"/>
      <point x="898" y="556" type="line"/>
    </contour>
    <contour>
      <point x="306" y="436" type="line"/>
      <point x="898" y="436" type="line"/>
      <point x="898" y="422" type="line" smooth="yes"/>
      <point x="898" y="242"/>
      <point x="768" y="108"/>
      <point x="592" y="108" type="curve" smooth="yes"/>
      <point x="422" y="108"/>
      <point x="306" y="232"/>
      <point x="306" y="414" type="curve" smooth="yes"/>
    </contour>
  </outline>
</glyph>
<glyph name="commaturnedtop" format="2">
  <advance width="1200" height="1560"/>
  <unicode hex="02BB"/>
  <anchor x="600" y="1032" name="_top"/>
  <outline>
    <contour>
      <point x="486" y="1174" type="line" name="hr00"/>
      <point x="704" y="1174" type="line"/>
      <point x="760" y="1552" type="line"/>
      <point x="638" y="1552" type="line"/>
    </contour>
  </outline>
</glyph>
<glyph name="caronslovak" format="2">
  <advance width="1200" height="1560"/>
  <unicode hex="02BC"/>
  <anchor x="380" y="1480" name="_topright"/>
  <outline>
    <contour>
      <point x="600" y="1480" type="line" name="hr00"/>
      <point x="394" y="1480" type="line"/>
      <point x="380" y="1102" type="line"/>
      <point x="502" y="1102" type="line"/>
    </contour>
  </outline>
</glyph>
<glyph name="circumflex" format="1">
  <unicode hex="02C6"/>
  <advance width="1200" height="1560"/>
  <outline>
    <contour>
      <point x="500" y="1530" type="line" name="hr00"/>
      <point x="278" y="1244" type="line"/>
      <point x="364" y="1182" type="line"/>
      <point x="598" y="1416" type="line"/>
      <point x="832" y="1182" type="line"/>
      <point x="922" y="1244" type="line"/>
      <point x="700" y="1530" type="line"/>
    </contour>
    <contour>
      <point x="600" y="1032" type="move" name="_top"/>
    </contour>
  </outline>
</glyph>
<glyph name="caron" format="1">
  <unicode hex="02C7"/>
  <advance width="1200" height="1560"/>
  <outline>
    <contour>
      <point x="700" y="1198" type="line" name="hr00"/>
      <point x="922" y="1484" type="line"/>
      <point x="838" y="1546" type="line"/>
      <point x="604" y="1312" type="line"/>
      <point x="370" y="1546" type="line"/>
      <point x="278" y="1484" type="line"/>
      <point x="500" y="1198" type="line"/>
    </contour>
    <contour>
      <point x="600" y="1032" type="move" name="_top"/>
    </contour>
  </outline>
</glyph>
<glyph name="breve" format="1">
  <unicode hex="02D8"/>
  <advance width="1200" height="1560"/>
  <outline>
    <contour>
      <point x="600" y="1190" type="curve" smooth="yes" name="hr00"/>
      <point x="814" y="1190"/>
      <point x="884" y="1370"/>
      <point x="922" y="1492" type="curve"/>
      <point x="820" y="1536" type="line"/>
      <point x="778" y="1468" type="line" smooth="yes"/>
      <point x="716" y="1368"/>
      <point x="688" y="1320"/>
      <point x="600" y="1320" type="curve" smooth="yes"/>
      <point x="512" y="1320"/>
      <point x="484" y="1368"/>
      <point x="422" y="1468" type="curve" smooth="yes"/>
      <point x="380" y="1536" type="line"/>
      <point x="278" y="1492" type="line"/>
      <point x="316" y="1370"/>
      <point x="386" y="1190"/>
    </contour>
    <contour>
      <point x="600" y="1032" type="move" name="_top"/>
    </contour>
  </outline>
</glyph>
<glyph name="dotaccent" format="2">
  <advance width="1200" height="1560"/>
  <unicode hex="02D9"/>
  <anchor x="600" y="1032" name="_top"/>
  <outline>
    <contour>
      <point x="600" y="1224" type="curve" smooth="yes" name="hr00"/>
      <point x="692" y="1224"/>
      <point x="726" y="1268"/>
      <point x="726" y="1326" type="curve" smooth="yes"/>
      <point x="726" y="1358" type="line" smooth="yes"/>
      <point x="726" y="1416"/>
      <point x="692" y="1460"/>
      <point x="600" y="1460" type="curve" smooth="yes"/>
      <point x="508" y="1460"/>
      <point x="474" y="1416"/>
      <point x="474" y="1358" type="curve" smooth="yes"/>
      <point x="474" y="1326" type="line" smooth="yes"/>
      <point x="474" y="1268"/>
      <point x="508" y="1224"/>
    </contour>
  </outline>
</glyph>
<glyph name="ring" format="2">
  <advance width="1200" height="1560"/>
  <unicode hex="02DA"/>
  <anchor x="600" y="1032" name="_top"/>
  <outline>
    <contour>
      <point x="600" y="1152" type="curve" smooth="yes" name="hr00"/>
      <point x="730" y="1152"/>
      <point x="832" y="1250"/>
      <point x="832" y="1382" type="curve" smooth="yes"/>
      <point x="832" y="1514"/>
      <point x="730" y="1612"/>
      <point x="600" y="1612" type="curve" smooth="yes"/>
      <point x="470" y="1612"/>
      <point x="368" y="1514"/>
      <point x="368" y="1382" type="curve" smooth="yes"/>
      <point x="368" y="1250"/>
      <point x="470" y="1152"/>
    </contour>
    <contour>
      <point x="600" y="1250" type="curve" smooth="yes"/>
      <point x="528" y="1250"/>
      <point x="484" y="1290"/>
      <point x="484" y="1360" type="curve" smooth="yes"/>
      <point x="484" y="1404" type="line" smooth="yes"/>
      <point x="484" y="1474"/>
      <point x="528" y="1514"/>
      <point x="600" y="1514" type="curve" smooth="yes"/>
      <point x="672" y="1514"/>
      <point x="716" y="1474"/>
      <point x="716" y="1404" type="curve" smooth="yes"/>
      <point x="716" y="1360" type="line" smooth="yes"/>
      <point x="716" y="1290"/>
      <point x="672" y="1250"/>
    </contour>
  </outline>
</glyph>
<glyph name="ogonek" format="2">
  <advance width="1200" height="1560"/>
  <unicode hex="02DB"/>
  <anchor x="600" y="0" name="_bottomright"/>
  <outline>
    <contour>
      <point x="456" y="-414" type="curve" smooth="yes" name="hr00"/>
      <point x="556" y="-414"/>
      <point x="616" y="-376"/>
      <point x="642" y="-332" type="curve"/>
      <point x="562" y="-250" type="line"/>
      <point x="536" y="-282"/>
      <point x="502" y="-302"/>
      <point x="458" y="-302" type="curve" smooth="yes"/>
      <point x="416" y="-302"/>
      <point x="374" y="-284"/>
      <point x="374" y="-228" type="curve" smooth="yes"/>
      <point x="374" y="-188"/>
      <point x="394" y="-130"/>
      <point x="600" y="0" type="curve"/>
      <point x="586" y="38" type="line"/>
      <point x="456" y="24" type="line"/>
      <point x="468" y="-6" type="line"/>
      <point x="318" y="-78"/>
      <point x="238" y="-158"/>
      <point x="238" y="-254" type="curve" smooth="yes"/>
      <point x="238" y="-360"/>
      <point x="334" y="-414"/>
    </contour>
  </outline>
</glyph>
<glyph name="tilde" format="1">
  <unicode hex="02DC"/>
  <advance width="1200" height="1560"/>
  <outline>
    <contour>
      <point x="746" y="1224" type="curve" smooth="yes"/>
      <point x="838" y="1224"/>
      <point x="900" y="1276"/>
      <point x="936" y="1330" type="curve"/>
      <point x="870" y="1410" type="line"/>
      <point x="830" y="1376"/>
      <point x="798" y="1356"/>
      <point x="754" y="1356" type="curve" smooth="yes"/>
      <point x="720" y="1356"/>
      <point x="678" y="1370"/>
      <point x="614" y="1404" type="curve" smooth="yes"/>
      <point x="572" y="1426"/>
      <point x="524" y="1456"/>
      <point x="454" y="1456" type="curve" smooth="yes" name="hr01"/>
      <point x="362" y="1456"/>
      <point x="300" y="1404"/>
      <point x="264" y="1350" type="curve"/>
      <point x="330" y="1270" type="line"/>
      <point x="370" y="1304"/>
      <point x="402" y="1324"/>
      <point x="446" y="1324" type="curve" smooth="yes"/>
      <point x="480" y="1324"/>
      <point x="522" y="1310"/>
      <point x="586" y="1276" type="curve" smooth="yes"/>
      <point x="628" y="1254"/>
      <point x="676" y="1224"/>
    </contour>
    <contour>
      <point x="600" y="1032" type="move" name="_top"/>
    </contour>
  </outline>
</glyph>
<glyph name="hungarumlaut" format="2">
  <advance width="1200" height="1560"/>
  <unicode hex="02DD"/>
  <anchor x="600" y="1032" name="_top"/>
  <outline>
    <contour>
      <point x="666" y="1490" type="line" name="hr00"/>
      <point x="528" y="1556" type="line"/>
      <point x="358" y="1216" type="line"/>
      <point x="454" y="1172" type="line"/>
    </contour>
    <contour>
      <point x="986" y="1490" type="line"/>
      <point x="848" y="1556" type="line"/>
      <point x="678" y="1216" type="line"/>
      <point x="774" y="1172" type="line"/>
    </contour>
  </outline>
</glyph>
<glyph name="hookcomb" format="2">
  <advance width="0" height="1560"/>
  <unicode hex="0309"/>
  <anchor x="0" y="1032" name="_top"/>
  <anchor x="0" y="516" name="_m.tildecomb"/>
  <outline>
    <contour>
      <point x="-168" y="1408" type="line" name="hr00"/>
      <point x="68" y="1408" type="line"/>
      <point x="-48" y="1200" type="line"/>
      <point x="44" y="1154" type="line"/>
      <point x="92" y="1214" type="line" smooth="yes"/>
      <point x="154" y="1292"/>
      <point x="190" y="1362"/>
      <point x="190" y="1420" type="curve" smooth="yes"/>
      <point x="190" y="1480"/>
      <point x="152" y="1530"/>
      <point x="50" y="1530" type="curve" smooth="yes"/>
      <point x="-168" y="1530" type="line"/>
    </contour>
  </outline>
</glyph>
<glyph name="horncomb" format="1">
  <unicode hex="031B"/>
  <advance width="0" height="1560"/>
  <outline>
    <contour>
      <point x="154" y="1256" type="line" name="hr00"/>
      <point x="12" y="1256" type="line"/>
      <point x="12" y="1032" type="line"/>
      <point x="-154" y="1032" type="line"/>
      <point x="-154" y="926" type="line"/>
      <point x="28" y="926" type="line" smooth="yes"/>
      <point x="128" y="926"/>
      <point x="154" y="982"/>
      <point x="154" y="1052" type="curve" smooth="yes"/>
    </contour>
  </outline>
</glyph>
<glyph name="dotbelowcomb" format="2">
  <advance width="0" height="1560"/>
  <unicode hex="0323"/>
  <anchor x="0" y="0" name="_bottom"/>
  <anchor x="0" y="0" name="_b.cedillacomb"/>
  <anchor x="0" y="0" name="_m.cedillacomb"/>
  <outline>
    <contour>
      <point x="0" y="-344" type="curve" smooth="yes" name="hr00"/>
      <point x="82" y="-344"/>
      <point x="114" y="-304"/>
      <point x="114" y="-252" type="curve" smooth="yes"/>
      <point x="114" y="-224" type="line" smooth="yes"/>
      <point x="114" y="-172"/>
      <point x="82" y="-132"/>
      <point x="0" y="-132" type="curve" smooth="yes"/>
      <point x="-82" y="-132"/>
      <point x="-114" y="-172"/>
      <point x="-114" y="-224" type="curve" smooth="yes"/>
      <point x="-114" y="-252" type="line" smooth="yes"/>
      <point x="-114" y="-304"/>
      <point x="-82" y="-344"/>
    </contour>
  </outline>
</glyph>
<glyph name="commabelowcomb" format="2">
  <advance width="0" height="1560"/>
  <unicode hex="0326"/>
  <anchor x="0" y="0" name="_bottom"/>
  <anchor x="0" y="0" name="_b.cedillacomb"/>
  <anchor x="0" y="0" name="_m.cedillacomb"/>
  <outline>
    <contour>
      <point x="-160" y="-502" type="line" name="hr00"/>
      <point x="-38" y="-502" type="line"/>
      <point x="114" y="-124" type="line"/>
      <point x="-104" y="-124" type="line"/>
    </contour>
  </outline>
</glyph>
<glyph name="uni0402" format="2">
  <advance width="1200" height="1560"/>
  <unicode hex="0402"/>
  <outline>
    <contour>
      <point x="508" y="-328" type="line" name="hr00"/>
      <point x="876" y="-328" type="line" smooth="yes"/>
      <point x="1032" y="-328"/>
      <point x="1104" y="-230"/>
      <point x="1104" y="-92" type="curve" smooth="yes"/>
      <point x="1104" y="460" type="line" smooth="yes"/>
      <point x="1104" y="724"/>
      <point x="998" y="876"/>
      <point x="728" y="876" type="curve" smooth="yes"/>
      <point x="660" y="876"/>
      <point x="578" y="858"/>
      <point x="518" y="838" type="curve"/>
      <point x="508" y="838" type="line"/>
      <point x="508" y="1250" type="line"/>
      <point x="828" y="1250" type="line"/>
      <point x="828" y="1396" type="line"/>
      <point x="20" y="1396" type="line"/>
      <point x="20" y="1250" type="line"/>
      <point x="340" y="1250" type="line"/>
      <point x="340" y="0" type="line"/>
      <point x="508" y="0" type="line"/>
      <point x="508" y="690" type="line"/>
      <point x="564" y="714"/>
      <point x="646" y="730"/>
      <point x="722" y="730" type="curve" smooth="yes"/>
      <point x="874" y="730"/>
      <point x="936" y="644"/>
      <point x="936" y="460" type="curve" smooth="yes"/>
      <point x="936" y="-182" type="line"/>
      <point x="508" y="-182" type="line"/>
    </contour>
  </outline>
</glyph>
<glyph name="uni0404" format="2">
  <advance width="1200" height="1560"/>
  <unicode hex="0404"/>
  <outline>
    <contour>
      <point x="774" y="634" type="line"/>
      <point x="774" y="780" type="line"/>
      <point x="312" y="780" type="line"/>
      <point x="312" y="791"/>
      <point x="312" y="801"/>
      <point x="312" y="812" type="curve" smooth="yes"/>
      <point x="312" y="1092"/>
      <point x="418" y="1274"/>
      <point x="646" y="1274" type="curve" smooth="yes"/>
      <point x="822" y="1274"/>
      <point x="888" y="1172"/>
      <point x="938" y="1048" type="curve"/>
      <point x="1082" y="1114" type="line"/>
      <point x="1014" y="1266"/>
      <point x="908" y="1420"/>
      <point x="646" y="1420" type="curve" smooth="yes"/>
      <point x="300" y="1420"/>
      <point x="134" y="1162"/>
      <point x="134" y="698" type="curve" smooth="yes"/>
      <point x="134" y="234"/>
      <point x="300" y="-24"/>
      <point x="646" y="-24" type="curve" smooth="yes"/>
      <point x="908" y="-24"/>
      <point x="1014" y="130"/>
      <point x="1082" y="282" type="curve"/>
      <point x="938" y="348" type="line"/>
      <point x="888" y="224"/>
      <point x="822" y="122"/>
      <point x="646" y="122" type="curve" smooth="yes"/>
      <point x="418" y="122"/>
      <point x="312" y="304"/>
      <point x="312" y="584" type="curve" smooth="yes"/>
      <point x="312" y="634" type="line"/>
    </contour>
  </outline>
</glyph>
<glyph name="uni0409" format="1">
  <unicode hex="0409"/>
  <advance width="1200" height="1560"/>
  <outline>
    <contour>
      <point x="610" y="0" type="line" name="hr00"/>
      <point x="806" y="0" type="line" smooth="yes"/>
      <point x="1056" y="0"/>
      <point x="1196" y="150"/>
      <point x="1196" y="418" type="curve" smooth="yes"/>
      <point x="1196" y="686"/>
      <point x="1056" y="836"/>
      <point x="806" y="836" type="curve" smooth="yes"/>
      <point x="774" y="836" type="line"/>
      <point x="774" y="1396" type="line"/>
      <point x="226" y="1396" type="line"/>
      <point x="226" y="1086" type="line" smooth="yes"/>
      <point x="226" y="376"/>
      <point x="192" y="248"/>
      <point x="90" y="146" type="curve"/>
      <point x="-4" y="146" type="line"/>
      <point x="-4" y="0" type="line"/>
      <point x="18" y="0" type="line" smooth="yes"/>
      <point x="114" y="0"/>
      <point x="176" y="20"/>
      <point x="236" y="80" type="curve" smooth="yes"/>
      <point x="340" y="184"/>
      <point x="386" y="364"/>
      <point x="386" y="1074" type="curve" smooth="yes"/>
      <point x="386" y="1250" type="line"/>
      <point x="610" y="1250" type="line"/>
    </contour>
    <contour>
      <point x="774" y="146" type="line"/>
      <point x="774" y="690" type="line"/>
      <point x="806" y="690" type="line" smooth="yes"/>
      <point x="938" y="690"/>
      <point x="1022" y="620"/>
      <point x="1022" y="470" type="curve" smooth="yes"/>
      <point x="1022" y="366" type="line" smooth="yes"/>
      <point x="1022" y="216"/>
      <point x="938" y="146"/>
      <point x="806" y="146" type="curve" smooth="yes"/>
    </contour>
  </outline>
</glyph>
<glyph name="uni0413" format="2">
  <advance width="1200" height="1560"/>
  <unicode hex="0413"/>
  <anchor x="654" y="1396" name="top"/>
  <outline>
    <contour>
      <point x="264" y="0" type="line" name="hr00"/>
      <point x="432" y="0" type="line"/>
      <point x="432" y="1250" type="line"/>
      <point x="1046" y="1250" type="line"/>
      <point x="1046" y="1396" type="line"/>
      <point x="264" y="1396" type="line"/>
    </contour>
  </outline>
</glyph>
<glyph name="uni0414" format="2">
  <advance width="1200" height="1560"/>
  <unicode hex="0414"/>
  <outline>
    <contour>
      <point x="28" y="-300" type="line" name="hr00"/>
      <point x="182" y="-300" type="line"/>
      <point x="182" y="0" type="line"/>
      <point x="998" y="0" type="line"/>
      <point x="998" y="-300" type="line"/>
      <point x="1152" y="-300" type="line"/>
      <point x="1152" y="146" type="line"/>
      <point x="982" y="146" type="line"/>
      <point x="982" y="1396" type="line"/>
      <point x="330" y="1396" type="line"/>
      <point x="330" y="986" type="line" smooth="yes"/>
      <point x="330" y="572"/>
      <point x="268" y="318"/>
      <point x="148" y="146" type="curve"/>
      <point x="28" y="146" type="line"/>
    </contour>
    <contour>
      <point x="814" y="146" type="line"/>
      <point x="340" y="146" type="line"/>
      <point x="432" y="294"/>
      <point x="494" y="550"/>
      <point x="494" y="974" type="curve" smooth="yes"/>
      <point x="494" y="1250" type="line"/>
      <point x="814" y="1250" type="line"/>
    </contour>
  </outline>
</glyph>
